<?xml version="1.0" encoding="utf-8"?>
<!-- Generator: Adobe Illustrator 23.0.1, SVG Export Plug-In . SVG Version: 6.00 Build 0)  -->
<svg version="1.1" id="Layer_1" xmlns="http://www.w3.org/2000/svg" xmlns:xlink="http://www.w3.org/1999/xlink" x="0px" y="0px"
	 viewBox="0 0 300 300" style="enable-background:new 0 0 300 300;" xml:space="preserve">
<style type="text/css">
	.st0{fill:#467EC0;}
	.st1{fill:#CD6603;}
	.st2{fill:#DC9C27;}
	.st3{fill:#FEE28E;}
	.st4{fill:#FBBC04;}
</style>
<g>
	<path class="st0" d="M103.55,131.62c0.03,0.06,0.06,0.13,0.1,0.19c0,0,0.03,0,0.06-0.03c0.64-0.45,0.84-1.09,0.64-1.38
		c-0.1-0.13-0.32-0.22-0.58-0.22c-0.26,0-0.61,0.1-0.93,0.32c-0.1,0.06-0.19,0.13-0.26,0.19c0.13,0.06,0.26,0.16,0.35,0.26
		C103.16,131.13,103.39,131.36,103.55,131.62z"/>
	<path class="st1" d="M106.92,143.21c0.13-0.22,0.26-0.48,0.38-0.77c0.06-0.16,0.16-0.35,0.22-0.51c-0.55-0.96-1.15-2.02-1.86-3.21
		c-0.71-1.15-1.41-2.31-2.15-3.47c0,0-0.03,0.03-0.06,0.06c-0.13,0.13-0.26,0.22-0.42,0.26c-0.13,0.03-0.22,0-0.32-0.03
		c-0.06-0.03-0.13-0.06-0.13-0.06s0-0.03,0.03-0.13c0-0.1,0.06-0.19,0.1-0.29c0.03-0.06,0.1-0.16,0.16-0.26
		c0.03-0.1,0.06-0.22,0.1-0.35c0-0.03,0-0.06,0-0.1c-0.19-0.29-0.38-0.58-0.58-0.87c-0.16-0.03-0.32-0.06-0.48-0.13l-0.58,1.03
		c1.15,1.7,2.37,3.6,3.63,5.62C105.67,141.15,106.31,142.21,106.92,143.21z"/>
	<path class="st0" d="M216.41,83.94c-0.42,0.13-0.8,0.26-1.22,0.38c0.45-0.1,0.87-0.16,1.32-0.26
		C216.48,84,216.45,83.97,216.41,83.94z"/>
	<path class="st0" d="M212.14,79.19c0.03-0.03,0.03-0.03,0.06-0.06c-0.8-0.61-2.25-1.44-4.3-1.83c0.32,0.35,0.55,0.64,0.74,0.9
		C209.86,78.25,211.37,78.86,212.14,79.19z"/>
	<path class="st0" d="M214.74,80.92c-0.16-0.58-0.58-1-1.03-1c-0.58,0-1.06,0.64-1.12,1.44c0.26-0.19,0.55-0.32,0.87-0.42
		C213.91,80.82,214.33,80.82,214.74,80.92z"/>
	<path class="st1" d="M103.55,143.98c0.22,0.55,0.42,1.06,0.58,1.51c0.58-0.51,1.28-0.8,1.96-0.77c0.03,0,0.03-0.03,0.06-0.06
		c-0.71-1.19-1.51-2.44-2.37-3.85c-1.28-2.09-2.47-3.89-3.53-5.49l-2.83,2.09c0.51,1.03,1.03,2.09,1.64,3.21
		C100.11,140.87,102.59,141.67,103.55,143.98z"/>
	<path class="st1" d="M110.04,152.71c0.45,0.19,0.77,0.42,1.09,0.68c0.03,0.03,0.03,0.03,0.06,0.06c-0.68-1.35-1.64-3.08-2.99-5.39
		c-0.06,0.26-0.16,0.51-0.29,0.77c-0.03,0.03-0.03,0.06-0.06,0.1c0.84,0.45,1.7,1.28,1.67,2.6
		C109.49,151.94,109.59,152.52,110.04,152.71z"/>
	<path class="st1" d="M94.94,135.41c-2.31-5.17-3.53-9.12-3.34-10.21l0.06-0.32l0.26-0.16c0.22-0.13,0.48-0.22,0.8-0.16l-2.54-2.7
		c-0.03,0.1-0.1,0.16-0.13,0.29c-0.58,1.51-0.13,5.62,2.89,12.2L94.94,135.41z"/>
	<path class="st1" d="M91.51,134.57c-2.06-4.53-3.15-8.44-3.08-11.08c-1.57,1.19-4.33,3.27-7.61,5.72
		c0.03,1.77,0.35,5.84,2.44,11.14L91.51,134.57z"/>
	<path class="st0" d="M82.07,141.22c-2.34-5.75-2.67-10.18-2.67-12.07c-1.03,0.58-2.89,2.02-4.46,3.43
		c-0.03,1.09,0.19,5.33,3.02,11.53L82.07,141.22z"/>
	<path class="st1" d="M97.26,128.73c0.96,1.22,2.02,2.7,3.18,4.37l0.42-0.77c-0.13-0.29-0.16-0.61-0.13-0.96c-0.03,0-0.03,0-0.06,0
		c-0.16-0.03-0.29-0.03-0.42-0.03c-0.13,0-0.22,0-0.35-0.03c-0.1,0-0.19-0.06-0.29-0.1c-0.06-0.03-0.13-0.06-0.13-0.06
		s0-0.06,0.03-0.13c0.03-0.1,0.06-0.22,0.16-0.32c0.1-0.1,0.22-0.19,0.38-0.26c0.06-0.03,0.1-0.03,0.16-0.06
		c-4.01-5.36-7.07-8.06-8.67-8.73l1.32,2.96C93.69,124.81,94.94,125.81,97.26,128.73z"/>
	<path class="st1" d="M93.12,126.26c0.35,1.57,1.51,5.14,3.69,9.83l2.67-1.99C96.26,129.47,94.17,127.06,93.12,126.26z"/>
	<path class="st0" d="M104.9,149.15c0.16,0.06,0.32,0.1,0.48,0.06c0,0,0-0.03,0-0.06c-0.03-0.13-0.06-0.22-0.1-0.32
		c0-0.06-0.03-0.13-0.06-0.16c-0.03-0.06-0.06-0.13-0.1-0.16c-0.03-0.06-0.06-0.1-0.13-0.16c-0.03-0.06-0.1-0.1-0.13-0.13
		c-0.16-0.06-0.29-0.13-0.45-0.1C104.38,148.57,104.58,148.99,104.9,149.15z"/>
	<path class="st0" d="M105.61,147.03l0.06,0.03c0.1,0.06,0.19,0.13,0.29,0.22c0.1,0.1,0.19,0.19,0.29,0.29
		c0.06,0.1,0.16,0.22,0.22,0.35c0.06,0.1,0.13,0.19,0.16,0.32c0.03-0.03,0.03-0.06,0.06-0.1c0.38-0.77,0.29-1.67-0.26-1.96
		c-0.13-0.06-0.26-0.1-0.38-0.1c-0.42,0-0.87,0.26-1.19,0.71c0.22,0.03,0.45,0.1,0.71,0.19L105.61,147.03z"/>
	<path class="st0" d="M214.65,82.4c-0.26-0.1-0.55-0.13-0.8-0.06c-0.29,0.06-0.58,0.26-0.8,0.51c0.19,0.19,0.42,0.32,0.64,0.32
		C214.1,83.17,214.45,82.84,214.65,82.4z"/>
	<path class="st1" d="M218.53,83.71c5.07-0.61,8.67,0.19,9.83,2.28c1.8,3.21-2.37,8.28-8.6,13l2.09,0.22
		c6.94-5.65,10.82-11.46,9.06-14.58c-0.84-1.51-2.89-2.21-5.75-2.21c-2.06,0-4.56,0.38-7.29,1.09c0.06,0.06,0.13,0.16,0.19,0.26
		C218.21,83.74,218.37,83.74,218.53,83.71z"/>
	<path class="st1" d="M202.54,90.93c0.03,0.42,0.06,0.87,0.1,1.28c0.13,1.64,0.26,3.24,0.38,4.72c0.1-0.06,0.19-0.1,0.29-0.16
		c0.38-0.19,0.84-0.45,1.48-0.61c0.29-0.06,0.68-0.13,1.09-0.06c0.26,0.03,0.38,0.1,0.55,0.13c0.16,0.03,0.29,0.06,0.45,0.1
		c1.25,0.26,2.86,0.19,4.37-0.35c0.38-0.13,0.74-0.29,1.09-0.51c0.35-0.19,0.71-0.51,1.06-0.77c0.74-0.58,1.48-1.12,2.21-1.7
		c0.74-0.58,1.51-1.12,2.31-1.61c0.38-0.22,0.8-0.48,1.25-0.68c0.22-0.1,0.45-0.19,0.71-0.26c0.26-0.06,0.55-0.13,0.9-0.1
		c0.16,0,0.38,0.06,0.58,0.19c0.1,0.06,0.19,0.13,0.26,0.22c0.06,0.1,0.16,0.19,0.16,0.22c0.16,0.26,0.22,0.55,0.29,0.8
		c0.03,0.06,0.03,0.16,0.03,0.22c0.42-0.35,0.87-0.58,1.28-0.74c0.61-0.22,1.19-0.29,1.64-0.32c0.42,0,0.77,0,1,0.03
		c1.22-1.77,1.67-3.27,1.09-4.3c-0.64-1.15-2.67-1.77-5.49-1.77c-0.9,0-1.86,0.06-2.92,0.19c-4.82,0.61-10.24,2.47-14.9,5.07
		C203.34,90.46,202.96,90.68,202.54,90.93z"/>
	<path class="st1" d="M222.96,100.15l3.34,7c6.84-5.75,8.44-10.34,8.73-11.27l-2.73-7.26C231.18,92.03,227.84,96.14,222.96,100.15z"
		/>
	<path class="st0" d="M226.94,108.47l2.5,5.23c5.46-4.53,9.41-9.15,9.25-10.76c-0.22-2.28-1.74-4.49-2.63-5.68
		C235.23,99.28,232.98,103.49,226.94,108.47z"/>
	<path class="st0" d="M234.36,124.04l2.73,5.72c6.9-6.9,7-9.34,7-9.6l-0.03-0.06l-0.03-0.03l0.03-0.16
		c0.03-0.03,0.29-3.11-1.41-5.75C241.49,115.95,238.6,120.19,234.36,124.04z"/>
	<path class="st1" d="M231.86,113.44c-0.61,0.51-1.22,1.03-1.83,1.54l3.69,7.71c4.01-3.73,6.78-7.77,7.8-9.41l-2.7-7.22
		C236.87,108.95,233.27,112.23,231.86,113.44z"/>
	<path class="st0" d="M203.15,104.91c0-0.93-0.48-1.61-0.9-1.61c-0.38,0-0.84,0.55-0.9,1.35c0.35,0,0.68,0.06,0.93,0.16
		c0.32,0.13,0.61,0.29,0.84,0.48C203.15,105.16,203.15,105.03,203.15,104.91z"/>
	<path class="st0" d="M200.87,107.31c-0.13-0.13-0.26-0.26-0.35-0.42c-0.06,0.16-0.1,0.35-0.13,0.55
		C200.55,107.41,200.71,107.34,200.87,107.31z"/>
	<path class="st2" d="M204.05,86.31c0.74-0.16,0.8-1.22,0.77-1.8c-0.03,0-0.06,0-0.1,0c-0.35-0.03-0.68-0.13-1-0.22
		c-0.16-0.06-0.32-0.13-0.48-0.19c-0.19-0.06-0.26-0.13-0.45-0.22c-0.13-0.06-0.38-0.26-0.38-0.26c-0.19-0.16-0.32-0.29-0.48-0.45
		c0.06,0.8,0.13,1.83,0.22,3.05C202.83,86.35,203.5,86.44,204.05,86.31z"/>
	<path class="st1" d="M76.77,144.94c-2.12-4.53-2.89-8.09-3.15-10.28c-2.06,1.57-4.17,3.18-6.26,4.75c0.22,1.64,0.8,5.91,2.18,10.59
		L76.77,144.94z"/>
	<path class="st0" d="M200.29,89.72c0.35-0.19,0.74-0.42,1.09-0.64c-0.03-0.55-0.03-1.09-0.06-1.61c-0.16-0.03-0.32-0.06-0.48-0.1
		c-0.19-0.03-0.42-0.1-0.61-0.13C200.23,88.01,200.26,88.85,200.29,89.72z"/>
	<path class="st0" d="M202.06,101.92c-0.03-0.58-0.1-1.38-0.16-2.34c-0.13-1.99-0.26-4.62-0.38-7.26c0-0.26-0.03-0.48-0.03-0.74
		c-0.38,0.22-0.74,0.48-1.09,0.71c0.16,3.18,0.48,6.61,1,9.83C201.61,102.01,201.84,101.95,202.06,101.92z"/>
	<path class="st0" d="M201.68,106.06c0.16,0.26,0.38,0.42,0.58,0.42c0.1,0,0.16-0.03,0.26-0.1c-0.22-0.13-0.45-0.22-0.68-0.29
		C201.77,106.06,201.74,106.06,201.68,106.06z"/>
	<path class="st0" d="M201.26,86.02c-0.06-1.9-0.13-3.34-0.16-3.95c-0.26-0.35-0.45-0.71-0.64-1.03c-0.03-0.06-0.1-0.16-0.16-0.26
		c-0.03,0.77-0.06,2.57-0.06,5.01c0.29,0.06,0.61,0.13,0.93,0.19C201.19,86.02,201.22,86.02,201.26,86.02z"/>
	<path class="st1" d="M79.4,149.82c-0.77-1.25-1.41-2.44-1.99-3.6l-7.42,5.2c1.12,3.47,2.67,7.03,4.79,9.83
		c6.13,8.09,9.63,11.98,13.71,13.2l7.9-4.17C91.51,167,83.45,156.47,79.4,149.82z"/>
	<path class="st1" d="M188.73,107.44c-1.44-2.54,0.29-6.52,4.05-10.56c-6.29,5.36-9.7,10.76-8.03,13.71
		c0.51,0.93,1.51,1.57,2.86,1.9l3.05-3.37C189.79,108.72,189.15,108.18,188.73,107.44z"/>
	<path class="st1" d="M219.78,111.87c2.09-1.28,3.85-2.57,5.42-3.82l-3.37-7c-2.6,2.02-5.55,3.98-8.8,5.81
		c-8.47,4.75-16.69,7.32-22.41,7.32c-0.45,0-0.87,0-1.28-0.03l4.43,6.39C197.82,120.22,208.84,118.74,219.78,111.87z"/>
	<path class="st1" d="M212.37,105.58c2.86-1.64,5.52-3.37,7.9-5.17l-2.21-0.22c-1.9,1.35-3.95,2.63-6.07,3.82
		c-2.37,1.35-4.66,2.44-7,3.34c0.03,0.13,0.1,0.8,0.1,0.8s-0.74-0.38-0.87-0.48c-1.35,0.51-2.31,0.84-3.6,1.15
		c0,0.16-0.19,0.93-0.19,0.93s-0.84-0.48-0.93-0.64c-0.8,0.19-1.19,0.26-1.93,0.38c-1.15,0.19-2.21,0.29-3.18,0.29
		c-0.84,0-1.57-0.06-2.25-0.19l-2.83,3.11C194.64,113.13,203.54,110.55,212.37,105.58z"/>
	<path class="st1" d="M189.92,106.7c0.13,0.22,0.29,0.42,0.48,0.58c0.35-0.1,0.74-0.29,1.15-0.58c0.26-0.19,0.48-0.42,0.68-0.68
		c0.1-0.13,0.19-0.26,0.26-0.42c0.03-0.06,0.06-0.13,0.1-0.22c0.03-0.1,0.06-0.19,0.1-0.29c0.1-0.38,0.22-0.77,0.32-1.19
		c0.13-0.42,0.22-0.87,0.51-1.35c0.13-0.26,0.35-0.51,0.61-0.68c0.26-0.16,0.51-0.26,0.77-0.35c0.48-0.13,1.03-0.16,1.31-0.22
		c0.35-0.06,0.71-0.16,1.06-0.26c0.29-0.06,0.61-0.16,0.84-0.26c0.03-0.03,0.06-0.1,0.13-0.13c0.19-0.16,0.45-0.38,0.71-0.61
		c0.22-0.22,0.48-0.42,0.68-0.58c-0.29-2.06-0.45-4.21-0.58-6.23C192.04,98.35,188.48,104.13,189.92,106.7z"/>
	<path class="st3" d="M160.93,199.75c-0.22-0.87-0.51-1.51-0.74-1.9c-0.06-0.13-0.13-0.19-0.16-0.26c0-0.03,0-0.03,0-0.03
		c-1.12,0.13-2.25,0.19-3.31,0.19c-0.71,0-1.41,0-2.09-0.06c-0.06,0.13-0.13,0.29-0.22,0.45c-0.29,0.55-0.64,1.28-0.96,2.06
		c-0.64,1.51-1.19,3.08-1.19,3.08s0.06-0.42,0.16-1.03c0.1-0.64,0.22-1.44,0.38-2.28c0.16-0.8,0.35-1.64,0.51-2.25
		c0-0.03,0.03-0.1,0.03-0.13c-6.07-0.74-10.37-3.34-12.46-5.46c-0.13,0.1-0.29,0.26-0.45,0.42c-0.58,0.58-1.38,1.38-2.09,2.21
		c-0.19,0.22-0.38,0.42-0.55,0.64c-0.16,0.22-0.32,0.42-0.48,0.64c-0.16,0.22-0.32,0.42-0.45,0.61c-0.13,0.22-0.29,0.38-0.38,0.58
		c-0.22,0.35-0.38,0.64-0.51,0.87c-0.05,0.08-0.09,0.14-0.11,0.2c-0.01,0.02-0.02,0.05-0.02,0.06c0,0.03-0.03,0.06-0.03,0.06
		s0,0,0-0.03s0.03-0.03,0.03-0.06c0-0.01,0.01-0.02,0.02-0.03c0.01-0.02,0.02-0.05,0.02-0.07c0-0.03,0.03-0.03,0.03-0.06
		s0.03-0.06,0.03-0.1c0.1-0.26,0.22-0.58,0.38-0.96c0.1-0.19,0.19-0.38,0.29-0.61c0.1-0.22,0.22-0.45,0.35-0.68
		c0.1-0.22,0.26-0.45,0.38-0.71c0.16-0.26,0.29-0.48,0.45-0.74c0.58-0.96,1.25-1.93,1.77-2.6c0.19-0.26,0.38-0.45,0.51-0.64
		c-0.26-0.35-0.42-0.68-0.51-0.96c-0.03-0.13-0.06-0.29-0.1-0.42c-1.57,0.74-4.62,2.44-5.75,4.4c-0.1,0.19-0.19,0.35-0.22,0.45
		c0.13,0,0.26-0.03,0.35-0.03c0.45-0.06,1.03-0.16,1.32,0.38c0.29,0.55-0.16,1.06-0.35,1.25c-0.48,0.51-1.48,1.35-2.76,2.37
		c-1.7,1.38-3.85,3.11-5.26,4.62l1.64,0.03c0,0-0.58,1-1.19,1.35c-0.35,0.19-0.77,0.32-1.25,0.38c-0.48,0.06-1,0.1-1.57,0.06
		c-0.58-0.03-1.19-0.1-1.86-0.22c-0.71-0.13-1.41-0.35-2.15-0.64c-1.48-0.58-2.99-1.41-4.56-2.44c-0.58-0.38-1.19-0.84-1.8-1.25
		c-0.06,0.03-0.1,0.06-0.16,0.1c-0.1,0.03-0.16,0.03-0.22,0.03s-0.16,0-0.19,0c-0.06,0-0.19-0.03-0.22-0.06
		c-0.22-0.1-0.29-0.19-0.38-0.26c-0.06-0.06-0.13-0.13-0.19-0.19c-0.42-0.48-0.71-0.9-1-1.38c-0.58-0.93-1.06-1.9-1.61-2.86
		c-0.55-0.96-1.06-1.96-1.64-2.96c-0.26-0.45-0.51-0.9-0.77-1.35c0,0.32,0.03,0.64,0.03,0.96l0.03,0.55c0,0.16,0,0.22,0,0.22v0.16
		v0.26v0.1c0.26,0.29,0.51,0.48,0.84,1.03c1.35,2.21,1.86,3.18,1.54,3.85c-0.13,0.29-0.38,0.45-0.71,0.48
		c-0.84,0.1-1.48-0.45-2.34-1.15c-0.71-0.61-1.61-1.35-2.79-1.8c-0.03-0.03-0.1-0.06-0.13-0.06c0.1,0.45,0.42,1.25,0.84,2.02
		c0.13,0.1,0.22,0.22,0.35,0.32c0.84,0.71,1.51,1.38,2.06,1.93c0.55,0.55,0.93,1,1.25,1.28c0.29,0.29,0.51,0.38,0.51,0.38
		s0,0-0.03,0c-0.03,0-0.06,0.03-0.13,0.03c-0.13,0-0.32,0-0.55-0.03c-0.48-0.06-1.12-0.29-1.83-0.71c-0.74-0.42-1.51-1-2.34-1.74
		c-0.87-0.74-1.77-1.57-2.79-2.44c-0.13-0.1-0.26-0.22-0.38-0.32c0.61,1.03,1.35,2.12,2.09,3.21c0.45,0.68,0.96,1.41,1.44,2.12
		l0.38,0.58c0.06,0.1,0.13,0.19,0.19,0.32c0.03,0.1,0.06,0.13,0.13,0.32c0,0.03,0.06,0.16,0.03,0.32c0.29,0.22,0.61,0.51,0.96,0.77
		c0.19,0.16,0.38,0.29,0.58,0.45c0.19,0.13,0.42,0.26,0.61,0.42c0.22,0.16,0.42,0.29,0.64,0.42c0.22,0.13,0.45,0.26,0.64,0.35
		c0.19,0.1,0.42,0.19,0.61,0.29c0.19,0.06,0.38,0.16,0.58,0.22c0.19,0.06,0.35,0.1,0.51,0.16c0.13,0.06,0.29,0.06,0.38,0.1
		c0.22,0.06,0.35,0.1,0.35,0.1s-0.13,0.03-0.35,0.03c-0.13,0-0.26,0-0.42,0s-0.35-0.03-0.55-0.03c-0.19-0.03-0.42-0.06-0.64-0.1
		c-0.22-0.03-0.45-0.1-0.71-0.16c-0.51-0.13-1-0.32-1.51-0.51c-0.26-0.13-0.51-0.22-0.74-0.35c-0.22-0.1-0.45-0.22-0.68-0.35
		c-0.22-0.13-0.42-0.26-0.61-0.38c-0.19-0.13-0.38-0.26-0.55-0.35c-0.13-0.1-0.26-0.16-0.35-0.26c-0.03,0-0.03,0-0.03,0l-0.06-0.03
		c-0.19-0.06-0.26-0.13-0.38-0.19l-0.29-0.19l-0.58-0.35c-0.74-0.48-1.48-0.93-2.25-1.35c-0.22-0.13-0.42-0.22-0.64-0.32
		c0,0.03,0.03,0.03,0.03,0.06c0.19,0.35,0.45,0.71,0.71,1.03c0.51,0.68,1.09,1.35,1.7,1.99c0.61,0.64,1.22,1.25,1.83,1.86
		c0.32,0.29,0.64,0.61,0.93,0.9c0.16,0.16,0.32,0.32,0.48,0.48l0.06,0.1l0.03,0.03c0.03,0,0.06,0.03,0.1,0.03
		c0.22,0.06,0.61,0.19,1.03,0.35c0.45,0.16,0.93,0.32,1.48,0.51c0.26,0.1,0.55,0.19,0.84,0.29s0.58,0.19,0.87,0.29
		c0.29,0.06,0.58,0.16,0.87,0.26c0.29,0.06,0.58,0.16,0.84,0.22c0.29,0.06,0.55,0.13,0.8,0.19c0.22,0.03,0.48,0.1,0.71,0.16
		c0.22,0.06,0.42,0.1,0.61,0.13c0.19,0.03,0.35,0.03,0.48,0.06c0.26,0.03,0.42,0.06,0.42,0.06s-0.16,0.06-0.42,0.13
		c-0.13,0.03-0.29,0.1-0.48,0.13c-0.19,0.03-0.42,0.06-0.64,0.1c-0.22,0-0.48,0.03-0.77,0.03c-0.26,0.03-0.58,0-0.87,0
		c-0.32,0-0.61-0.03-0.93-0.06c-0.32-0.03-0.64-0.06-0.96-0.13c-0.32-0.06-0.64-0.13-0.93-0.19c-0.32-0.06-0.61-0.13-0.9-0.22
		c-0.29-0.06-0.58-0.16-0.84-0.26c-0.26-0.06-0.51-0.19-0.74-0.26c-0.45-0.16-5.01-1.93-6.42-2.18c-0.35-0.06-0.71-0.1-0.96-0.06
		c-0.06,0-0.13,0.03-0.16,0.03c0,0.03,0,0.03,0,0.03c0,0.03,0,0.03,0,0.06c0,0.03,0.03,0.1,0.03,0.13l0.06,0.13l0.03,0.06l0.13,0.19
		c0.13,0.26,0.32,0.51,0.51,0.74c0.61,0.68,1.32,1.22,1.99,1.7c0.06,0.03,2.47,1.51,3.15,1.93c0.68,0.38,1.19,0.74,1.54,1
		c0.35,0.22,0.55,0.38,0.55,0.38s-0.26,0-0.68-0.06c-0.45-0.1-1.06-0.22-1.83-0.48c-0.77-0.26-2.99-1.38-2.99-1.38
		c-0.9-0.29-1.8-0.51-2.47-0.64c1.93,1.74,7.19,5.3,8.8,5.72c0.13,0.03,0.32,0.06,0.48,0.16c0.1,0.03,0.26,0.06,0.48,0.1
		c0.38,0.1,0.9,0.16,1.54,0.26c0.64,0.06,1.38,0.19,2.18,0.26c0.42,0.03,0.84,0.06,1.25,0.1c0.42,0.03,0.87,0.03,1.28,0.06
		c0.42,0,0.87,0,1.28,0c0.45-0.03,0.87-0.03,1.25-0.06c0.38-0.03,0.8-0.03,1.15-0.1c0.35-0.06,0.71-0.1,1.03-0.16
		c0.32-0.06,0.61-0.13,0.87-0.19c0.29-0.06,0.48-0.16,0.68-0.19c0.35-0.1,0.58-0.16,0.58-0.16s-0.19,0.13-0.51,0.32
		c-0.16,0.1-0.35,0.22-0.61,0.35c-0.26,0.13-0.51,0.26-0.84,0.38c-0.32,0.13-0.68,0.22-1.03,0.35c-0.38,0.13-0.77,0.19-1.19,0.29
		c-0.42,0.1-0.84,0.16-1.28,0.22c-0.45,0.06-0.9,0.1-1.35,0.13c-0.45,0-0.9,0.03-1.35,0.03s-0.9,0-1.32-0.03
		c-0.42-0.03-0.84-0.06-1.22-0.1c-0.38-0.03-0.77-0.1-1.09-0.13c-0.68-0.1-1.22-0.19-1.61-0.29c-0.16-0.03-0.32-0.06-0.42-0.1
		c-0.26,0.06-0.61,0.06-1.06,0.06c-0.32,0.03-0.93,0.03-1.44,0.06c7,4.11,16.73,3.63,17.11,3.6c0.38-0.03,0.77-0.1,1.19-0.13
		c0.42-0.06,0.84-0.16,1.28-0.22c0.42-0.13,0.87-0.22,1.28-0.35l0.64-0.22l0.32-0.1l0.32-0.13c0.19-0.1,0.42-0.16,0.61-0.26
		c0.19-0.1,0.38-0.19,0.58-0.29c0.38-0.19,0.71-0.42,1.06-0.61c0.32-0.19,0.64-0.42,0.9-0.61c0.29-0.19,0.55-0.38,0.74-0.58
		c0.22-0.16,0.38-0.35,0.55-0.48c0.03-0.03,0.06-0.06,0.1-0.1c0.03-0.03,0.1-0.1,0.13-0.13c0.06-0.06,0.13-0.13,0.16-0.16
		c0,0.03-0.03,0.06-0.06,0.1c-0.03,0.03-0.03,0.03-0.06,0.06c-0.03,0.06-0.1,0.13-0.16,0.22c-0.03,0.06-0.1,0.1-0.13,0.16
		c-0.22,0.32-0.61,0.71-1.09,1.15c-0.26,0.26-0.55,0.48-0.87,0.74c-0.32,0.26-0.64,0.51-1.03,0.74c-0.19,0.13-0.38,0.22-0.58,0.35
		c-0.19,0.1-0.42,0.22-0.61,0.32l-0.32,0.16l-0.32,0.16l-0.64,0.29c-0.42,0.16-0.87,0.32-1.32,0.48c-0.45,0.13-0.9,0.22-1.32,0.35
		c-0.42,0.06-0.87,0.16-1.25,0.22c-0.38,0.06-0.77,0.1-1.12,0.13c-0.06,0-0.1,0-0.13,0c0,1-1.51,1.77-2.79,2.28
		c2.41,0.29,6.68,0.35,9.79-0.84c1.19-0.45,2.18-0.87,3.02-1.22c2.44-1,3.18-1.31,3.69-0.64c0.48,0.64-0.06,1.41-1.12,2.76
		c-0.03,0.03-0.06,0.06-0.1,0.1c1.35-0.42,4.17-2.05,4.56-3.24c0.26-0.8,0.48-1.44,0.8-1.9c0.42-0.68,0.87-0.96,0.87-0.96
		s0.16,0.48,0.13,1.28c0,0.55-0.19,1.22-0.45,2.02c-0.1,0.35-0.22,0.74-0.35,1.19c-0.19,0.71-0.42,1.44-0.61,2.28
		c-0.1,0.42-0.19,0.84-0.29,1.28c-0.03,0.22-0.1,0.45-0.13,0.68c-0.03,0.1-0.03,0.19-0.06,0.32c0.26-0.19,0.55-0.45,0.8-0.71
		c0.8-0.74,1.57-1.61,2.47-2.54c0.13-0.1,0.22-0.22,0.38-0.35c0.03-0.03,0.06-0.06,0.13-0.1l0.06-0.06c0.03,0,0.1-0.03,0.13-0.06
		l0.06-0.03c0.03-0.03,0.03-0.03,0.06-0.03h0.03h0.03c0,0,0.26-0.03,0.38,0c0.19,0.03,0.48,0.19,0.55,0.35
		c0.13,0.19,0.13,0.29,0.16,0.38c0,0.13,0,0.13,0,0.19c0,0.03,0,0.06,0,0.1l-0.03,0.06c-0.03,0.16-0.06,0.26-0.1,0.35l-0.1,0.26
		c-0.06,0.16-0.13,0.29-0.19,0.45c-0.26,0.58-0.55,1.15-0.8,1.77c-0.51,1.19-1,2.44-1.35,3.76c-0.35,1.32-0.58,2.7-0.58,4.08
		c0,0.58,0.03,1.15,0.1,1.67c0.06-0.06,0.1-0.13,0.16-0.19c0.48-0.55,0.96-1.22,1.61-1.83c0.19-0.16,0.35-0.29,0.58-0.45
		c0.03-0.03,0.1-0.06,0.16-0.1l0.1-0.06l0.03-0.03l0.06-0.03l0.06-0.03c0.06-0.03,0.13-0.03,0.19-0.06c0.06,0,0.13-0.03,0.19-0.03
		c0.1,0,0.16,0,0.29,0c0.03,0,0.1,0.03,0.16,0.03c0.06,0,0.13,0.03,0.19,0.06c0.13,0.06,0.26,0.16,0.32,0.26
		c0.03,0.03,0.06,0.06,0.1,0.13c0.03,0.03,0.03,0.1,0.06,0.13c0.06,0.1,0.06,0.16,0.1,0.22c0.06,0.26,0.06,0.38,0.06,0.55
		c-0.03,0.29-0.06,0.48-0.1,0.71c-0.13,0.84-0.35,1.61-0.51,2.37c-0.16,0.77-0.32,1.54-0.42,2.31c-0.1,0.77-0.16,1.51-0.1,2.25
		c0.03,0.74,0.22,1.44,0.51,1.99c0.19,0.38,0.38,0.68,0.58,0.96c0.1,0.13,0.19,0.26,0.29,0.35c0.03,0.03,0.06,0.03,0.1,0.06
		c0.03-0.03,0.1-0.06,0.13-0.13c0.19-0.26,0.35-0.58,0.55-0.93l0.55-1.09l0.29-0.58c0,0,0.03-0.03,0.06-0.1
		c0.03-0.13,0.03-0.29,0.06-0.45c0.03-0.29,0.1-0.64,0.19-1.03c0.06-0.19,0.1-0.38,0.16-0.58c0.06-0.19,0.13-0.38,0.19-0.58
		c0.13-0.38,0.29-0.77,0.45-1.12c0.06-0.19,0.16-0.35,0.26-0.51c0.09-0.16,0.19-0.32,0.29-0.45c0.1-0.16,0.19-0.26,0.29-0.35
		c0.1-0.1,0.16-0.16,0.26-0.22c0.13-0.13,0.22-0.19,0.22-0.19s0,0.13-0.06,0.29c-0.03,0.1-0.03,0.19-0.06,0.32
		c0,0.1-0.03,0.22-0.06,0.38c0,0.16-0.03,0.32-0.06,0.48c-0.03,0.16-0.06,0.32-0.1,0.51c-0.03,0.16-0.06,0.35-0.1,0.55
		c-0.03,0.19-0.06,0.38-0.1,0.58c-0.58,2.47,0.45,4.3,0.96,4.82c0.51,0.51,1.15,0.96,1.8,1.38c0.32,0.22,0.68,0.42,1,0.61
		c0.35,0.19,0.71,0.35,1.06,0.55c0.74,0.35,1.44,0.71,2.15,1c0.29,0.13,0.58,0.22,0.87,0.32c0-0.03-0.03-0.06-0.03-0.1
		c-0.13-0.35-0.29-0.74-0.42-1.09c-0.16-0.38-0.29-0.77-0.38-1.19c-0.03-0.22-0.1-0.42-0.13-0.64c0-0.1-0.03-0.19-0.03-0.32
		l-0.03-0.16v-0.1c0-0.03,0,0,0-0.1v-0.03v-0.16c0-0.03,0-0.06,0-0.16c0-0.19,0-0.32,0.06-0.51c0.03-0.13,0.13-0.38,0.35-0.61
		c0.1-0.1,0.22-0.22,0.38-0.26c0.06-0.03,0.16-0.03,0.22-0.06c0.1-0.03,0.13-0.03,0.19-0.03c0.26-0.03,0.42,0.03,0.58,0.06
		c0.13,0.03,0.29,0.06,0.38,0.13c0.22,0.1,0.38,0.19,0.58,0.29c0.71,0.42,1.32,0.84,1.93,1.22c1.22,0.77,2.44,1.48,3.69,1.93
		c0.61,0.22,1.25,0.42,1.86,0.51c0.64,0.1,1.22,0.13,1.9,0.13c0.29,0,0.58,0,0.87-0.03c-0.1-0.06-0.16-0.13-0.26-0.19
		c-0.93-0.77-1.96-1.44-2.79-2.41c-0.19-0.26-0.38-0.48-0.58-0.87c-0.06-0.13-0.1-0.22-0.13-0.35c-0.03-0.1-0.03-0.22-0.03-0.38
		c-0.06,0-0.16-0.03-0.22-0.03c-0.38-0.03-0.74-0.1-1.09-0.19c-0.35-0.06-0.68-0.19-0.93-0.29c-0.26-0.13-0.48-0.22-0.64-0.32
		c-0.06-0.06-0.13-0.1-0.16-0.13c-0.03-0.03-0.06-0.03-0.06-0.03s0.03,0,0.06-0.03c0.03,0,0.1-0.03,0.19-0.06
		c0.16-0.06,0.38-0.13,0.68-0.19c0.26-0.06,0.58-0.1,0.93-0.13c0.16,0,0.32-0.03,0.51-0.03s0.38,0,0.55-0.03
		c0.16-0.03,0.35-0.03,0.51-0.03c0.19,0,0.35-0.03,0.51-0.03c0.22,0,0.42-0.03,0.61-0.03c0.26-0.1,0.51-0.16,0.74-0.19
		c1.09-0.16,2.02-0.19,2.89-0.26c0.87-0.06,1.64-0.1,2.31-0.19c0.32-0.03,0.61-0.1,0.87-0.16c-0.03-0.03-0.1-0.03-0.13-0.06
		c-0.32-0.13-0.58-0.22-0.77-0.29c-0.03-0.03-0.03-0.03-0.06-0.03c-0.22-0.06-0.38-0.1-0.58-0.13c-0.96-0.22-1.7-0.45-2.18-0.64
		c-0.48-0.16-0.74-0.29-0.74-0.29s0.29-0.03,0.8,0c0.55,0,1.28,0.03,2.25,0.06c0.96,0.03,2.12,0.06,3.37-0.06
		c0.29-0.03,0.61-0.1,0.93-0.16c0.32-0.06,0.64-0.19,0.9-0.29c0.06-0.03,0.16-0.1,0.26-0.13l0.13-0.06h0.03l0.06-0.03
		c0.16-0.1,0.29-0.19,0.45-0.29c0.03-0.03,0.1-0.1,0.16-0.13c-0.03,0-0.06,0-0.1,0c-0.38-0.03-0.8-0.03-1.22-0.03
		c-0.84,0.03-1.74,0.13-2.67,0.22c-1.99,0.22-4.11,0.06-6.2-0.58c-2.09-0.64-4.14-1.86-5.65-3.63c-1.54-1.77-2.5-4.01-2.96-6.26
		c-0.22-1.12-0.32-2.28-0.35-3.4c0-0.29,0-0.58,0-0.87l0.03-0.84c0.03-0.55,0.1-1.12,0.13-1.67c0.03-0.55,0.13-1.09,0.19-1.64
		c0.1-0.55,0.19-1.09,0.29-1.64c0.1-0.51,0.22-1.03,0.32-1.54c0.13-0.51,0.22-1.03,0.35-1.54c0.45-1.99,0.84-3.95,1.12-5.78
		c0.29-1.83,0.51-3.6,0.61-5.2c0.03-0.42,0.03-0.8,0.06-1.19c0-0.38,0-0.77,0-1.12s0.03-0.71,0-1.06c-0.03-0.35-0.03-0.68-0.06-1
		c0-0.32-0.06-0.64-0.1-0.93c-0.06-0.29-0.1-0.58-0.29-0.87C161.15,200.68,161.06,200.17,160.93,199.75z"/>
	<path class="st2" d="M198.88,81.91c-0.03-0.03-0.1-0.03-0.16-0.06s-0.16-0.06-0.22-0.1c-0.03,0-0.1-0.03-0.13-0.06
		c-0.03-0.03-0.1-0.06-0.16-0.19l-0.03-0.06v-0.06v-0.03c0-0.03,0-0.03,0-0.1c0-0.06,0-0.13,0.03-0.16c0-0.03,0.03-0.06,0.03-0.1
		c0.03-0.13,0.13-0.19,0.19-0.29c0.29-0.32,0.68-0.58,1.12-0.77c0.13-0.06,0.22-0.1,0.35-0.16l0.1-0.03l0.1-0.03h0.03
		c0,0,0,0,0.03,0c0.06,0,0.1,0,0.13,0c0.19,0.03,0.22,0.06,0.29,0.1c0.03,0.03,0.1,0.06,0.13,0.1c0.26,0.26,0.38,0.48,0.55,0.71
		c0.29,0.45,0.58,0.93,0.93,1.35c0.19,0.22,0.42,0.48,0.64,0.71c0,0,0.32,0.26,0.48,0.35c0.1,0.06,0.29,0.16,0.38,0.19
		c0.13,0.03,0.26,0.1,0.38,0.13c0.26,0.1,0.55,0.16,0.8,0.19c0.26,0.03,0.55,0.03,0.77,0c0.26-0.06,0.42-0.13,0.55-0.26
		c0-0.03,0.03-0.06,0.06-0.1c0.03-0.06,0.03-0.1,0.06-0.13c0-0.03,0.03-0.1,0.03-0.13v-0.03v-0.03c0-0.06,0-0.1,0-0.1v-0.03
		l-0.03-0.06c-0.03-0.03-0.03-0.1-0.06-0.16c-0.03-0.13-0.1-0.22-0.16-0.35c-0.22-0.48-0.55-0.93-0.87-1.35
		c-0.32-0.42-0.64-0.8-0.93-1.15c-0.29-0.35-0.55-0.71-0.77-1c-0.22-0.29-0.42-0.55-0.58-0.77c-0.32-0.45-0.48-0.71-0.48-0.71
		s0.26,0.16,0.71,0.48c0.22,0.16,0.48,0.35,0.77,0.61c0.29,0.26,0.61,0.55,0.93,0.87c0.35,0.32,0.68,0.71,1.03,1.12
		c0.32,0.38,0.64,0.8,0.96,1.32c0.16-0.1,0.38-0.22,0.55-0.42c0.03-0.03,0.06-0.06,0.1-0.13c0.03-0.03,0.06-0.16,0.06-0.22v-0.03
		c0,0-0.03-0.06-0.03-0.1l-0.06-0.13c-0.1-0.19-0.22-0.38-0.38-0.58c-0.13-0.19-0.29-0.38-0.45-0.58c-0.64-0.77-1.35-1.54-1.86-2.09
		c-0.45-0.48-0.8-0.84-0.87-0.9c0.06,0.03,0.48,0.32,1.03,0.74c0.61,0.45,1.41,1.09,2.21,1.77c0.13,0.13,0.32,0.26,0.45,0.38
		c0-0.06-0.1-0.22-0.16-0.32c-0.13-0.32-1.93-1.96-1.93-1.96c-1.8-1.48-4.37-3.11-6.2-2.89c-3.27,0.42-7.38,4.08-7.9,4.69
		c-0.38,0.48-1.15,0.74-2.37,1.19c-1.35,0.51-3.05,1.12-4.4,2.12c-1.25,0.93-2.96,2.63-4.49,4.11c-2.06,1.99-2.86,2.79-3.37,2.99
		c-0.48,0.19-1.35,1.38-1.54,1.83c0.03,0.51-0.71,1.12-7,6.1c-2.57,2.06-5.23,4.14-5.91,4.79c-0.58,0.55-1.25,0.8-1.96,0.77
		c-1.22-0.1-2.09-1.06-2.18-1.19l-0.16-0.19v-0.22c-0.32-5.01-8.7-35.67-16.41-44.98c-3.08-3.69-6.2-5.07-8.99-4.01
		c-2.63,1.03-4.33,4.05-4.24,6.26c0.1,2.25,2.96,7.96,6.23,14.61c3.15,6.32,6.61,14.39,10.02,21.93c2.44,5.36,3.82,18.11,3.82,18.11
		c2.54,19.33,3.24,44.89,3.4,51.12c0.19-0.1,0.42-0.22,0.68-0.29c0.13-0.03,0.29-0.1,0.51-0.1c0.03,0,0.13,0,0.19,0
		s0.13,0,0.22,0.03c0.1,0.03,0.16,0.06,0.26,0.13c0.1,0.06,0.19,0.13,0.26,0.22c0.06,0.06,0.13,0.19,0.16,0.29
		c0.03,0.1,0.06,0.16,0.06,0.26s0,0.13,0,0.19c-0.03,0.06-0.03,0.13-0.03,0.19s-0.03,0.16-0.06,0.26l-0.1,0.22
		c-0.03,0.06-0.06,0.13-0.1,0.19c-0.03,0.06-0.06,0.16-0.1,0.19l-0.16,0.29c-0.35,0.58-0.48,1.38-0.55,2.18
		c-0.03,0.45,0,0.93,0.03,1.38c0.1-0.35,0.19-0.68,0.29-1.03c0.29-0.87,0.61-1.7,1-2.5c0.19-0.38,0.38-0.8,0.64-1.19
		c0.1-0.22,0.22-0.42,0.38-0.61c0.06-0.1,0.16-0.19,0.26-0.29c0.06-0.06,0.1-0.1,0.16-0.16c0.06-0.03,0.1-0.1,0.22-0.16
		c0.03-0.03,0.06-0.06,0.16-0.1c0.06-0.03,0.16-0.03,0.26-0.06c0.13-0.03,0.29,0,0.42,0.03c0.13,0.03,0.26,0.13,0.35,0.22
		c0.13,0.13,0.22,0.32,0.26,0.42c0,0.03,0.03,0.1,0.03,0.16l0.03,0.13c0.03,0.16,0.03,0.29,0.03,0.45l-0.03,0.32
		c-0.03,0.35,0,0.74,0.03,1.12c0.1,0.74,0.29,1.51,0.55,2.25c0.26,0.71,0.58,1.44,1,1.96c0.1,0.13,0.19,0.22,0.29,0.29
		c0.03,0,0.06,0.03,0.06,0.03l0.03-0.03l0.03-0.03c0,0,0.03-0.03,0.03-0.06l0.06-0.13l0.03-0.06c0.26-0.61,0.42-1.35,0.51-2.09
		c0.13-0.74,0.16-1.48,0.26-2.25c0.03-0.38,0.06-0.77,0.16-1.19c0.03-0.19,0.1-0.42,0.22-0.71l0.06-0.1c0.03-0.03,0.06-0.1,0.1-0.13
		c0.06-0.06,0.16-0.19,0.29-0.26c0.13-0.1,0.32-0.16,0.48-0.16c0.06-0.03,0.16,0,0.22,0c0.06,0.03,0.13,0.03,0.19,0.06
		c0.42,0.16,0.61,0.42,0.71,0.51l0.03,0.06l0.03,0.03l0.06,0.06l0.1,0.13c0.06,0.1,0.13,0.16,0.19,0.26
		c0.1,0.19,0.22,0.35,0.32,0.55c0.03-15.44-1.8-34.9-2.83-45.72c-0.51-5.62-0.74-7.93-0.64-8.47c0.32-2.06,2.83-4.66,3.76-5.36
		c0.96-0.74,10.56-10.69,11.08-11.4c0.71-0.96,2.21-1.93,4.3-2.63c0.8-0.29,1.93-0.87,3.11-1.51c1.67-0.9,3.53-1.9,5.33-2.44
		c1.32-0.42,2.44-1.06,3.43-1.64c1.28-0.74,2.34-1.35,3.24-0.93c0.77,0.35,2.15,0.29,3.5,0.26c0.22-0.03,0.42-0.03,0.64-0.03
		c0.06,0,0.16,0,0.22,0C198.85,84.13,198.85,82.84,198.88,81.91z"/>
	<path class="st3" d="M162.02,165.91c-0.03-0.06-0.06-0.1-0.1-0.13c-0.06,0.29-0.1,0.58-0.13,0.9c-0.1,0.74-0.13,1.51-0.26,2.31
		c-0.1,0.8-0.26,1.64-0.61,2.47l-0.03,0.06c0,0.03,0-0.03-0.03,0.06l-0.03,0.03l-0.06,0.13c0,0.03,0,0.03-0.03,0.06l-0.06,0.1
		c-0.06,0.06-0.1,0.13-0.16,0.19c-0.03,0.06-0.1,0.13-0.16,0.19c-0.06,0.06-0.16,0.1-0.22,0.16c-0.16,0.1-0.38,0.19-0.61,0.19
		c-0.45,0-0.8-0.19-1.03-0.35c-0.26-0.16-0.42-0.35-0.58-0.55c-0.61-0.74-0.96-1.54-1.25-2.37c-0.29-0.84-0.51-1.7-0.61-2.6
		c-0.03-0.16-0.06-0.35-0.06-0.55c-0.13,0.22-0.26,0.48-0.38,0.74c-0.35,0.74-0.64,1.51-0.9,2.31c-0.13,0.38-0.22,0.8-0.32,1.19
		c-0.06,0.22-0.1,0.42-0.13,0.61l-0.1,0.64c-0.03,0.26-0.1,0.51-0.22,0.84c-0.06,0.06-0.1,0.16-0.19,0.29
		c-0.03,0.03-0.1,0.13-0.19,0.19c-0.03,0.03-0.1,0.06-0.16,0.1c-0.06,0.03-0.13,0.06-0.22,0.06c-0.19,0.03-0.35,0-0.48-0.06
		c-0.06-0.03-0.1-0.06-0.16-0.1s-0.1-0.06-0.13-0.1c-0.13-0.1-0.19-0.22-0.26-0.29c-0.19-0.32-0.26-0.55-0.35-0.8
		c-0.1-0.22-0.13-0.48-0.19-0.71c-0.19-0.93-0.26-1.86-0.19-2.83c0.06-0.87,0.19-1.74,0.61-2.6c-0.55,0.35-1.09,0.77-1.57,1.25
		c-0.29,0.26-2.44,3.05-2.44,3.05c-0.06,0.03-2.02,3.43-2.02-7.19v0.03c-1.03,0.9-0.9,3.85-0.74,5.62c0.1,0.74,0.22,1.48,0.38,2.18
		c0.13,0.55,0.29,1.15,0.26,1.22c-0.06,0.1-0.1,0.19-0.19,0.26c-0.96,0.58-3.56-1.7-4.05-2.34c-0.22-0.32-0.42-0.61-0.61-0.93
		c0.16,2.79,1.48,5.01,1.48,5.01s0.8,1.22,1.19,2.76c0.22,0.96,0.32,1.9,0.32,2.7c-0.03,1.64-0.32,2.89-0.55,3.73
		c-0.1,0.32-0.16,0.55-0.22,0.74c2.25,1.41,12.14,7.38,19.65,6.68c0.03,0,0.1-0.06,0.16-0.1c0.19-0.13,0.48-0.35,0.84-0.64
		c0.71-0.61,1.7-1.48,2.7-2.7c0.51-0.61,1.03-1.28,1.51-2.06c0.51-0.77,0.96-1.57,1.38-2.47c0.38-0.87,0.77-1.83,1.03-2.83
		c0.29-1,0.48-2.02,0.58-3.08c0.1-1.06,0.13-2.12,0.06-3.15c-0.03-0.26-0.03-0.51-0.06-0.77c-0.03-0.26-0.06-0.51-0.1-0.77
		c-0.03-0.48-0.16-1-0.22-1.48c-0.1-0.45-0.19-0.87-0.29-1.32c-0.26,0.77-0.55,1.44-0.87,1.99c-0.35,0.61-0.71,1.09-1.03,1.44
		s-0.61,0.64-0.8,0.8c-0.16,0.16-0.26,0.22-0.29,0.26c0,0,0-0.03,0.03-0.06c0.03,0,0.03-0.03,0.03-0.03
		c0.03-0.03,0.03-0.03,0.03-0.06c0.03-0.03,0.03-0.1,0.06-0.13c0-0.03,0.03-0.06,0.03-0.1c0.1-0.22,0.29-0.58,0.48-1
		c0.03-0.1,0.1-0.22,0.16-0.35c0-0.19,0-0.51-0.03-0.9c-0.06-0.8-0.19-1.99-0.51-3.47c-0.03-0.29-0.13-0.61-0.19-0.9
		c-0.03,0.13-0.06,0.22-0.1,0.35c-0.32,1.06-0.68,2.15-1.09,3.27c-0.19,0.55-0.38,1.12-0.61,1.74l-0.03,0.06v0.03
		c-0.03,0.06-0.03,0.13-0.19,0.29c-0.19,0.19-0.48,0.26-0.74,0.19c-0.26-0.06-0.51-0.35-0.55-0.58l-0.06-0.26
		c-0.03-0.13-0.06-0.29-0.1-0.45c-0.1-0.32-0.16-0.64-0.29-0.8c-0.32-1.22-0.74-2.54-1.32-3.73
		C162.37,166.46,162.21,166.17,162.02,165.91z"/>
	<path class="st2" d="M142.34,184.88c-0.22,0.13-0.19,0.22-0.19,0.29c0.48,2.37,12.17,8.28,16.95,7.93c3.02-0.22,3.5-0.93,3.56-1.09
		c0-0.03,0.03-0.06,0.03-0.1C154.51,192.46,144.3,186.17,142.34,184.88z"/>
	<path class="st1" d="M237.77,131.1l3.82,7.96c4.59-4.14,5.91-8.25,6.17-9.18l-2.86-7.58C244.06,124.04,242.07,126.83,237.77,131.1z
		"/>
	<path class="st0" d="M68.29,150.88c-1.44-4.85-2.09-9.34-2.31-11.18c-1.19,0.61-3.11,2.41-4.43,3.85
		c-0.03,3.95,0.61,7.58,1.67,10.89L68.29,150.88z"/>
	<path class="st1" d="M208.74,142.6l4.46,6.52c11.75-0.84,20.9-3.89,27.26-9.09l-3.79-7.9C227.59,140.06,211.82,142.25,208.74,142.6
		z"/>
	<path class="st1" d="M226.24,128.12c2.34-1.22,4.49-2.76,6.39-4.43l-3.73-7.8c-4.62,3.63-9.53,6.58-13.58,8.16
		c-7,2.7-13.13,3.47-16.73,3.69l5.04,7.42C207.26,134.48,218.31,132.16,226.24,128.12z"/>
	<path class="st0" d="M228.29,114.6l-2.5-5.23c-1.54,1.22-3.27,2.47-5.3,3.73c-12.3,7.74-24.69,8.8-27.71,8.96
		c0.19,1.51,1.96,3.5,2.86,4.33c1.51,0.03,9.66,0,19.17-3.69C219.4,120.92,224.18,117.84,228.29,114.6z"/>
	<path class="st0" d="M233.27,125.03c-1.9,1.61-4.05,3.15-6.39,4.33c-8.89,4.56-21.51,6.9-23.86,7.32c0.06,0.16,0.1,0.35,0.19,0.61
		l0.13,0.35c0.64,2.06,1.25,3.98,4.88,3.6c1.93-0.19,18.72-2.18,27.81-10.43L233.27,125.03z"/>
	<path class="st0" d="M110.74,136.79c-0.19,0.58-0.35,1.15-0.55,1.7c-0.19,0.58-0.35,1.12-0.55,1.64c-0.19,0.51-0.35,1.03-0.55,1.51
		c-0.03,0.03-0.03,0.06-0.03,0.1c1.9-4.59,3.5-9.79,3.82-10.76c-0.1-0.35-0.19-0.71-0.26-1.03
		C112.19,131.72,111.51,134.25,110.74,136.79z"/>
	<path class="st1" d="M96.55,143.85c-1.7-2.7-3.21-5.36-4.43-7.93l-8.28,5.81c1.48,3.37,3.63,7.16,6.81,11.11
		c9.28,11.53,13.29,12.91,14.03,13.07l8.32-4.4C108.69,159.71,101.56,152.33,96.55,143.85z"/>
	<path class="st1" d="M108.66,146.04c0.13,0,0.29,0.03,0.29,0.03l1.15,0.45c-0.29-0.51-0.58-1.06-0.87-1.61
		C109.04,145.3,108.85,145.68,108.66,146.04z"/>
	<path class="st1" d="M111.93,151.91c2.12,4.11,2.54,5.88,1.48,6.52c-0.1,0.06-0.29,0.19-0.61,0.19c-0.74,0-2.25-0.61-5.3-3.82
		c-0.93-0.96-1.64-1.77-2.57-2.92c-0.06,0.03-0.42,0.29-0.48,0.32c0.03-0.06,0.03-0.77,0.06-0.84c-0.8-1-4.43-6.1-5.39-7.64
		c-1.19-2.12-2.25-4.21-3.18-6.13l-1.93-1.06c1.09,2.12,2.34,4.33,3.76,6.58c6.52,11.05,14.61,17.4,16.86,17.4
		c0.16,0,0.29-0.03,0.38-0.1c0.13-0.1,1.51-1.38-3.95-11.94l-1.35-0.55C110.61,149.44,111.32,150.75,111.93,151.91z"/>
	<path class="st1" d="M70.83,170.31c-2.92-3.34-6.17-7.96-8.28-13.64l-7.22,5.07c2.47,5.75,7.64,13.81,18.34,20.58l6.55-3.47
		C78.22,177.4,74.52,174.55,70.83,170.31z"/>
	<path class="st0" d="M89.52,153.68c-3.21-3.98-5.39-7.77-6.9-11.14l-4.05,2.86c0.58,1.19,1.25,2.41,2.02,3.69
		c2.96,4.88,7,10.34,10.85,14.64c4.88,5.42,7,6.29,7.35,6.17c1.48-0.64,3.4-2.06,4.53-2.99C101.3,165.97,97.03,163.02,89.52,153.68z
		"/>
	<path class="st0" d="M73.66,162.12c-2.15-2.83-3.73-6.36-4.88-9.83l-5.04,3.53c2.06,5.65,5.23,10.21,8.12,13.52
		c4.56,5.2,9.18,8.38,10.34,9.12c1.74-0.61,3.76-2.06,4.91-2.96C83.1,173.91,79.53,169.86,73.66,162.12z"/>
	<path class="st4" d="M150.56,251.16c-0.74-0.45-1.44-0.96-2.09-1.61c-0.32-0.32-0.61-0.64-0.87-1.03
		c-0.19,0.35-0.38,0.74-0.68,1.12c-0.19,0.19-0.38,0.42-0.71,0.64c-0.19,0.1-0.42,0.19-0.64,0.22c-0.26,0.03-0.51,0-0.71-0.06
		c-0.03,0-0.03-0.03-0.06-0.03c0.42,1.7,1.03,3.08,1.64,3.21c0.19,0.03,0.26-0.03,0.32-0.06c0.38-0.29,0.68-1.44,0.71-2.86
		c0-0.35,0.26-0.68,0.61-0.74c0.35-0.06,0.71,0.13,0.87,0.45c0.96,2.15,1.9,3.66,2.6,4.4c-0.1-1.25,0-2.15,0.1-2.6
		c0.03-0.13,0.06-0.22,0.19-0.32c-0.06-0.03-0.13-0.06-0.19-0.1C151.3,251.61,150.91,251.38,150.56,251.16z"/>
	<path class="st4" d="M159.1,255.46c-1.19-0.58-2.15-1.15-2.7-1.51c-0.06-0.03-0.16-0.03-0.22-0.06c-0.45-0.13-0.84-0.29-1.22-0.45
		c-0.55-0.22-1.09-0.48-1.61-0.74c0.51,1.22,1.8,3.4,4.62,3.4c1,0,1.44-0.1,1.67-0.16C159.52,255.78,159.29,255.59,159.1,255.46z"/>
	<path class="st1" d="M60.2,144.91c-5.55,4.24-7.16,5.55-7.61,5.97c0.03,1,0.32,4.66,2.18,9.5l7.29-5.11
		C61.01,152.14,60.33,148.67,60.2,144.91z"/>
	<path class="st2" d="M141.28,105.32c-0.35-0.1-0.9-0.22-1.57-0.38c-7.61-1.83-12.91-3.18-13.9-3.82c-1.61-1.03-2.34-1-2.44-0.87
		c-0.1,0.13-0.16,0.26-0.26,0.38c-0.42,0.68-0.84,1.35-2.44,2.57c-1.64,1.25-5.46,6.17-7.45,10.72c-1,2.25-1.41,3.5-1.7,4.43
		c-0.32,0.96-0.51,1.61-1.12,2.6c-1,1.61-1.7,4.3-1,6.48c0.45,1.35,1.51,2.18,2.18,2.6c0.29-1.03,0.51-1.83,0.64-2.25
		c0-0.19-0.03-0.35-0.03-0.51c-0.03-0.38-0.03-0.74-0.03-1.03c0.03-0.32,0.03-0.58,0.06-0.8c0.06-0.45,0.13-0.71,0.13-0.71
		s0.13,0.22,0.29,0.64c0.06,0.19,0.16,0.45,0.26,0.74c0.1,0.29,0.19,0.61,0.29,0.96c0.19,0.71,0.38,1.51,0.64,2.37
		c0.1,0.45,0.22,0.9,0.38,1.32c0.13,0.42,0.32,0.87,0.51,1.22c0.13,0.16,0.22,0.32,0.32,0.42c0.03,0.03,0.06,0.06,0.06,0.06
		c0,0.03,0.03,0.03,0.03,0.03h0.1c0.03,0,0.03,0,0.06-0.03c0.06-0.03,0.13-0.16,0.19-0.32c0.13-0.32,0.19-0.74,0.26-1.12
		c0.06-0.42,0.1-0.8,0.13-1.15c0.03-0.35,0.1-0.71,0.13-1c0.06-0.29,0.1-0.55,0.16-0.77c0.06-0.22,0.13-0.38,0.16-0.51
		c0.03-0.1,0.06-0.16,0.06-0.16s0.06,0.26,0.16,0.68c0,0.03,0,0.03,0,0.03c0.1-0.26,0.19-0.55,0.32-0.9
		c0.19-0.68,0.45-1.48,0.51-2.41c0.03-0.22,0.03-0.48,0.03-0.71c0-0.29-0.03-0.51-0.06-0.77c-0.03-0.26-0.1-0.51-0.19-0.77
		c-0.1-0.26-0.19-0.55-0.26-0.93c-0.03-0.38,0-0.74,0.1-1.09c0.06-0.32,0.19-0.64,0.32-0.96c0.26-0.61,0.51-1.25,0.8-1.9
		c0.58-1.28,1.15-2.63,1.77-4.05c0.58-1.38,1.19-2.86,1.7-4.33c0.13-0.38,0.26-0.74,0.35-1.12l0.16-0.58
		c0.06-0.19,0.1-0.38,0.16-0.61c0.26-0.84,0.58-1.67,1.22-2.37c0.32-0.35,0.74-0.68,1.25-0.84c0.26-0.06,0.51-0.1,0.77-0.1
		c0.13,0,0.26,0,0.38,0.03l0.1,0.03c0.06,0.03,0.06,0.03,0.1,0.03l0.16,0.03c0.42,0.13,0.8,0.22,1.19,0.35
		c0.38,0.13,0.77,0.26,1.15,0.38c1.51,0.51,3.02,1,4.46,1.51c2.89,1,5.59,1.96,7.87,2.86c2.28,0.87,4.17,1.67,5.49,2.31
		c0.06,0.06,0.13,0.1,0.16,0.13c-0.32-2.21-0.64-4.3-1-6.26C144.68,105.45,143.14,105.77,141.28,105.32z"/>
	<path class="st4" d="M177.59,243.61c-0.06,0.03-0.13,0.1-0.26,0.13c-0.19,0.1-0.42,0.16-0.61,0.22c-0.19,0.03-0.38,0.1-0.58,0.13
		c-0.38,0.06-0.77,0.1-1.12,0.13c-0.13,0-0.22,0-0.35,0c0,0.1,0.03,0.22,0,0.32c-0.03,0.06-0.03,0.13-0.06,0.19
		c0,0.03-0.03,0.1-0.06,0.13c-0.13,0.16-0.22,0.26-0.32,0.32c-0.1,0.06-0.19,0.1-0.29,0.16c-0.06,0.03-0.16,0.1-0.26,0.13
		l-0.13,0.06l-0.13,0.03c-0.35,0.1-0.71,0.22-1.09,0.29c-0.74,0.13-1.57,0.22-2.44,0.29c-0.84,0.06-1.77,0.1-2.63,0.26
		c-0.06,0.03-0.16,0.06-0.26,0.1c-0.13,0-0.26,0.03-0.42,0.06c-0.1,0.03-0.16,0.06-0.22,0.1c0.06,0.13,0.16,0.29,0.32,0.45
		c0.29,0.35,0.71,0.71,1.15,1.06c0.45,0.38,0.93,0.74,1.41,1.12c0.26,0.19,0.51,0.42,0.8,0.71c0.06,0.06,0.16,0.13,0.22,0.26
		c0.06,0.06,0.1,0.13,0.13,0.19l0.06,0.13l0.03,0.06l0.03,0.1c0,0.03,0.03,0.1,0.03,0.16v0.1c0,0.06,0,0.1,0,0.13
		c0,0.16-0.03,0.32-0.1,0.45c-0.06,0.06-0.1,0.13-0.13,0.19c-0.06,0.03-0.1,0.1-0.13,0.13c-0.03,0.06-0.1,0.1-0.13,0.13
		c-0.06,0.03-0.1,0.03-0.13,0.06c-0.06,0.06-0.16,0.1-0.22,0.13l-0.19,0.06c-0.13,0.06-0.22,0.06-0.32,0.1
		c-0.1,0.03-0.19,0.03-0.29,0.06c-0.1,0-0.19,0.03-0.29,0.03c-0.35,0.06-0.71,0.06-1.06,0.06c-0.64,0.03-1.48-0.06-2.18-0.19
		c-0.74-0.13-1.41-0.26-2.12-0.51c-1.41-0.55-2.73-1.28-4.01-2.09c-0.61-0.42-1.25-0.84-1.86-1.19c-0.06-0.03-0.13-0.06-0.19-0.1
		v0.1c0,0.1,0.03,0.16,0.03,0.26c0,0.19,0.06,0.35,0.1,0.51c0.06,0.32,0.19,0.68,0.32,1.03c0.13,0.35,0.29,0.74,0.42,1.09
		c0.1,0.19,0.16,0.42,0.22,0.64c0.03,0.13,0.06,0.26,0.1,0.42c0,0.1,0,0.19,0,0.29c0,0.1-0.03,0.26-0.06,0.38
		c-0.03,0.06-0.06,0.13-0.1,0.19c1.86,1.06,5.11,2.67,7.9,2.73c0.03,0,0.06,0,0.1,0c-0.32-0.32-0.74-0.71-1.03-0.96
		c-0.19-0.16-0.38-0.35-0.58-0.51c-0.8-0.74-0.13-2.02,0.93-1.8c0.48,0.1,1.12,0.26,1.93,0.48c3.18,0.87,5.52,0.64,6.84,0.51
		c-0.93-0.42-1.83-1-2.18-1.51c-0.42-0.58-0.22-1.03-0.13-1.19c0.35-0.61,1.22-0.77,3.02-0.58c2.79,0.32,5.3-0.45,6.52-1.06
		c-2.02-0.06-5.11-0.93-5.2-2.31c-0.06-1.25,1.77-1.38,2.37-1.44c1.74-0.16,3.18-0.77,4.17-1.35c-1.67-0.16-3.76-0.87-4.66-1.19
		c-0.13,0.1-0.26,0.16-0.35,0.26l-0.06,0.03l-0.1,0.06L177.59,243.61z"/>
	<path class="st4" d="M100.24,206.78c0.68,0.1,1.35,0.26,1.99,0.45c-0.29-0.32-0.61-0.61-0.9-0.93c-0.61-0.64-1.25-1.31-1.83-2.06
		c-0.32-0.35-0.61-0.74-0.87-1.15c-0.13-0.19-0.26-0.42-0.38-0.68c-0.06-0.13-0.1-0.26-0.16-0.42c0-0.03-0.03-0.1-0.03-0.13v-0.06
		v-0.03c0,0-0.03-0.06-0.03-0.1L98,201.52c-0.03-0.16-0.03-0.32,0-0.48c0.03-0.19,0.1-0.35,0.26-0.55c0.13-0.19,0.32-0.29,0.51-0.35
		c0.13-0.03,0.32-0.06,0.42-0.06c0.45,0,0.71,0.1,0.96,0.19c0.51,0.16,0.93,0.38,1.35,0.61c0.13,0.1,0.26,0.16,0.38,0.22
		c-0.03,0-0.03-0.03-0.03-0.03c-0.48-0.71-0.93-1.41-1.38-2.12c-0.45-0.71-0.87-1.41-1.22-2.18c-0.1-0.19-0.19-0.38-0.26-0.61
		c-0.1-0.22-0.16-0.45-0.19-0.8c0-0.1,0-0.19,0.03-0.32V195c0.03-0.06,0.03-0.1,0.03-0.1v-0.03l0.03-0.06
		c0.03-0.06,0.03-0.1,0.06-0.13c0.06-0.06,0.1-0.16,0.16-0.19c0.22-0.22,0.48-0.29,0.68-0.29c0.1-0.03,0.16,0,0.22,0
		s0.1,0.03,0.16,0.03c0.35,0.13,0.51,0.22,0.71,0.35c0.68,0.48,1.22,0.96,1.74,1.41c0.06,0.03,0.1,0.1,0.16,0.13
		c-0.03-0.42,0.03-0.8,0.26-1.06c0.26-0.29,0.8-0.58,1.8-0.19c1.41,0.55,2.41,1.38,3.21,2.02c0.13,0.1,0.22,0.19,0.35,0.29
		c-0.32-0.58-0.71-1.22-0.96-1.64c-0.29-0.48-0.51-0.84-0.68-1.15c-0.35-0.26-0.77-0.58-1.35-2.47c-0.32-0.93-0.74-1.8-1.12-2.7
		c-0.03,0.22-0.1,0.45-0.13,0.64c-0.06,0.26-0.1,0.55-0.1,0.77c0,0.06,0,0.1,0,0.16c0,0.03,0,0.32-0.1,0.64
		c-0.13,0.38-0.51,0.64-0.9,0.51c-0.29-0.06-0.38-0.29-0.35-0.26c-0.03-0.03-0.06-0.06-0.06-0.06c-0.1-0.13-0.13-0.16-0.16-0.26
		c-0.13-0.29-0.26-0.55-0.38-0.84c-0.51-1.09-1-2.18-1.51-3.24c-0.38-0.8-0.8-1.64-1.22-2.37c0,0.16,0,0.35,0,0.51
		c-0.03,1.06,0.03,2.15,0.1,3.18c0.03,0.55,0.06,1.03,0.13,1.54c0.03,0.26,0.06,0.51,0.1,0.77v0.03c0,0.06,0,0.1,0,0.13
		s-0.03,0.06-0.03,0.13c0,0.03-0.03,0.1-0.06,0.19c-0.03,0.06-0.1,0.16-0.19,0.22c-0.06,0.06-0.16,0.1-0.26,0.13
		c-0.16,0.03-0.29,0-0.35,0c-0.13-0.03-0.19-0.06-0.26-0.1c-0.03-0.03-0.1-0.06-0.13-0.1c-0.16-0.1-0.26-0.19-0.35-0.29
		c-0.42-0.35-0.74-0.71-1.09-1.03c-0.22-0.19-0.45-0.42-0.64-0.58c-0.1,0.45-0.19,0.84-0.29,1.22c-0.16,0.77-0.19,1.44-0.06,2.09
		c0.06,0.32,0.16,0.61,0.29,0.9c0.13,0.32,0.29,0.61,0.42,0.93c0.26,0.61,0.48,1.19,0.64,1.7c0.32,1.06,0.45,1.9,0.45,2.5
		c0,0.29,0,0.51-0.03,0.68c0,0.16-0.03,0.22-0.03,0.22s-0.16-0.29-0.42-0.8c-0.26-0.51-0.64-1.28-1.03-2.25
		c-0.16-0.38-0.32-0.8-0.51-1.25c-0.77-0.35-1.61-0.68-2.12-0.77c0.22,0.61,0.61,1.41,1,2.28c0.71,1.57,1.48,3.21,1.67,4.33
		c0.22,1.41-0.84,1.83-1.35,2.06c-0.13,0.03-0.29,0.1-0.38,0.16c0,0.03,0.03,0.13,0.1,0.29c0.55,1.15,1.7,2.6,2.96,3.76
		c0-0.06,0.03-0.13,0.06-0.19c0.06-0.22,0.22-0.35,0.38-0.48c0.29-0.19,0.58-0.26,0.84-0.29
		C99.41,206.69,99.83,206.72,100.24,206.78z"/>
	<path class="st2" d="M160.25,196.19c0.16-0.16,0.64-0.71,0.87-1.93c-0.58,0.13-1.22,0.19-1.93,0.26c-0.13,0-0.26,0-0.42,0
		c-4.4,0-14.26-4.24-17.21-7.61c-0.42,0.68-0.9,1.77-0.55,2.86C141.7,191.79,148.69,197.51,160.25,196.19z"/>
	<path d="M135.82,198.4c0,0.03,0,0.03,0,0.03s0.03-0.03,0.03-0.06c0-0.02,0.01-0.04,0.02-0.06c0,0.01-0.01,0.02-0.02,0.03
		C135.85,198.37,135.82,198.37,135.82,198.4z"/>
	<path d="M243.13,112.42l-0.64-0.77l-0.03,0.06l-2.73-7.26c0.26-0.61,0.38-1.19,0.35-1.67c-0.35-3.5-3.15-6.71-3.73-7.35l-3.69-9.89
		c-0.1-0.58-0.26-1.12-0.55-1.61c-1.09-1.96-3.63-2.89-7.1-2.89c-2.34,0-5.11,0.42-8.12,1.25c-0.19-0.22-0.42-0.42-0.68-0.61
		c0-0.06,0-0.1,0-0.16c0-1.67-1.12-3.05-2.54-3.05h-0.03c-0.9-0.84-3.37-2.63-7.51-2.83c-2.02-1.67-4.79-3.27-7-2.99
		c-3.76,0.48-8.16,4.4-8.8,5.2c-0.16,0.19-1.06,0.51-1.77,0.77c-1.38,0.48-3.27,1.19-4.79,2.31c-1.32,1-3.05,2.7-4.62,4.24
		c-1.15,1.12-2.57,2.5-2.92,2.67c-0.77,0.32-2.15,1.9-2.41,2.92c-0.61,0.61-3.85,3.15-6.48,5.23c-2.7,2.15-5.26,4.17-6.01,4.85
		c-0.29,0.29-0.61,0.38-0.9,0.38c-0.42-0.03-0.84-0.32-1.06-0.51c-0.55-5.94-8.77-35.96-16.82-45.62c-4.66-5.59-8.64-5.17-10.59-4.4
		c-3.31,1.28-5.26,4.95-5.17,7.64c0.1,2.54,2.73,7.84,6.36,15.19c3.11,6.29,7,14.13,9.95,21.8c0.84,2.15,1.57,5.04,2.21,8.38
		c-0.64,0.26-1.99,0.64-3.69,0.22c-0.38-0.1-0.93-0.22-1.61-0.38c-3.4-0.8-12.46-2.99-13.45-3.63c-2.73-1.74-3.89-1.22-4.37-0.48
		c-0.1,0.16-0.19,0.29-0.29,0.45c-0.38,0.61-0.71,1.12-2.09,2.18c-2.06,1.54-5.94,6.81-7.9,11.3c-1,2.31-1.41,3.63-1.74,4.56
		c-0.29,0.93-0.48,1.44-1,2.31c-0.74,1.22-1.35,2.96-1.48,4.69c-0.77,0.55-2.92,2.15-4.37,3.82c-0.48,0.06-0.96,0.22-1.41,0.55
		c-0.19,0.13-0.38,0.29-0.55,0.45c-2.89-3.95-8.8-11.21-11.75-9.44c-0.42,0.26-0.71,0.61-0.93,1.12c-0.9,0.68-4.05,3.05-8.16,6.17
		l-0.42-0.06c-1.35-0.22-4.66,2.57-6.48,4.24l-0.22,0.19l-0.03,0.29c0,0.06-0.03,0.32,0,0.77c-2.21,1.67-4.46,3.37-6.65,5.04
		l-0.29,0.03c-2.02,0.16-5.52,3.98-6.2,4.72l-0.16,0.19v0.13c-9.02,6.9-9.02,7-9.02,7.48c0,0.19,0.03,4.88,2.6,11.14
		c2.47,6.04,7.87,14.74,19.46,21.96l0.35,0.22l7.96-4.21c0.1,0.06,0.19,0.1,0.19,0.13l0.26,0.16l0.29-0.1
		c2.79-0.87,6.13-3.69,6.65-4.11l8.89-4.72c0.35,0.13,0.68,0.19,0.96,0.19c0.19,0,0.38-0.03,0.55-0.1c2.31-1,5.33-3.56,5.84-3.98
		l10.5-5.55h0.03c1.35-0.8,1.28-2.96-0.16-6.81c-1.09-2.92-2.99-6.84-5.62-11.56c1.61-3.66,3.02-7.9,3.76-10.28
		c0.1,0.16,0.22,0.32,0.38,0.48c0.06,0.06,0.13,0.13,0.22,0.19c0.1,0.06,0.16,0.13,0.26,0.16c0.1,0.03,0.19,0.1,0.35,0.13
		c0.06,0,0.13,0.03,0.19,0.03h0.03c0,0,0.05,0,0.06,0h0h0.03h0.03h0.1c0.03,0,0.13,0,0.19-0.03c0.13-0.03,0.22-0.06,0.32-0.1
		c0.19-0.1,0.38-0.22,0.51-0.35c0.29-0.29,0.38-0.61,0.48-0.9c0.16-0.58,0.16-1.06,0.16-1.51c0-0.45-0.06-0.87-0.13-1.22
		c-0.03-0.13-0.06-0.29-0.06-0.42c0.03-0.1,0.1-0.22,0.19-0.42c0.16-0.35,0.38-0.87,0.61-1.57c0.22-0.71,0.51-1.54,0.61-2.6
		c0.03-0.26,0.03-0.55,0.03-0.84c0-0.26-0.03-0.58-0.06-0.87s-0.13-0.61-0.19-0.9c-0.06-0.29-0.19-0.55-0.19-0.8
		c-0.06-0.45,0.13-1.03,0.38-1.61c0.26-0.61,0.51-1.22,0.8-1.86c0.58-1.28,1.19-2.6,1.8-4.01c0.61-1.41,1.25-2.86,1.8-4.4
		c0.13-0.38,0.26-0.77,0.38-1.19l0.16-0.61c0.06-0.19,0.1-0.38,0.16-0.58c0.22-0.71,0.55-1.44,1-1.93c0.22-0.26,0.48-0.42,0.77-0.51
		c0.13-0.03,0.29-0.06,0.42-0.06c0.06,0,0.16,0,0.22,0.03h0.06c0,0,0.03,0,0.06,0l0.16,0.03c0.35,0.1,0.74,0.22,1.12,0.35
		c0.38,0.13,0.77,0.26,1.12,0.38c1.51,0.51,2.99,1.03,4.43,1.54c2.86,1.03,5.52,2.02,7.77,2.96c2.25,0.9,4.11,1.7,5.36,2.34
		c0.45,0.22,0.84,0.45,1.09,0.61c2.67,20.36,3.34,48.03,3.43,51.85c-0.32,0.26-0.64,0.55-0.96,0.84c-0.32,0.32-0.64,0.68-0.93,1.06
		c-0.16,0.19-0.29,0.38-0.42,0.58c-0.06,0.1-0.13,0.19-0.19,0.32l-0.16,0.29c-0.06,0.1-0.29-0.8-0.35-1.74
		c-0.19-2.99,0.38-5.04-0.61-5.52c-0.19-0.1-0.38,0.03-0.55,0.1c-0.13,0.03-0.26,0.1-0.38,0.16c-1.93,1.19-2.37,4.46-1.93,7.61
		c0.06,0.42,0.1,0.84,0.19,1.25c0.03,0.1,0.03,0.19,0.06,0.32c-0.93-0.87-1.77-1.99-2.21-3.08c-0.13-0.29-0.22-0.58-0.26-0.87
		l-0.03-0.19l-0.03-0.29c0-0.1-0.03-0.19-0.06-0.32c-0.03-0.13-0.03-0.22-0.16-0.42c-0.03-0.03-0.06-0.13-0.13-0.19
		c-0.06-0.06-0.13-0.13-0.19-0.16c-0.13-0.06-0.26-0.13-0.42-0.13c-0.16,0-0.32,0.06-0.38,0.1c-0.13,0.06-0.16,0.13-0.19,0.16
		c-0.06,0.06-0.1,0.1-0.1,0.13c-0.03,0.03-0.03,0.06-0.06,0.1c-0.1,0.19-0.13,0.29-0.16,0.42c-0.06,0.22-0.1,0.42-0.13,0.61
		c-0.06,0.38-0.06,0.74-0.1,1.09c-0.03,1.38,0.13,2.7,0.38,3.95c0.29,1.22,0.71,2.37,1.28,3.4l0.13,0.19l0.03,0.06v0.03l0.03,0.03
		c0.06,0.13,0.13,0.22,0.19,0.35s0.13,0.22,0.19,0.32c0.06,0.13,0.1,0.19,0.13,0.32c0.06,0.19,0.19,0.38,0.22,0.61
		c0.06,0.22,0.13,0.42,0.19,0.61c0.19,0.84,0.29,1.64,0.29,2.34c0,1.44-0.26,2.6-0.45,3.34c-0.1,0.38-0.19,0.64-0.26,0.84
		c-1.22,0.58-1.19,1.51-1.12,1.93c0,0.03,0.03,0.06,0.03,0.1c-0.38,0.48-1,1.44-1.22,2.63c-1.28,0.58-5.46,2.67-6.97,5.26
		c-0.35,0.64-0.74,1.44-0.29,2.06c0.19,0.29,0.48,0.42,0.77,0.48c-0.48,0.42-1.12,0.93-1.8,1.48c-2.34,1.9-5.2,4.21-6.52,6.07
		c-0.06,0-0.1,0-0.16,0c-0.48-0.03-1.06-0.1-1.67-0.22c-0.58-0.13-1.19-0.32-1.86-0.58c-1.32-0.55-2.76-1.35-4.24-2.34
		c-0.77-0.51-1.51-1.06-2.34-1.64l-0.19-0.13l-0.1-0.06c-0.06-0.03-0.06-0.06-0.22-0.1c-0.1-0.03-0.35-0.1-0.48-0.03
		c-0.13-0.19-0.26-0.38-0.35-0.58c-0.51-0.87-1.03-1.83-1.57-2.79c-0.55-0.97-1.09-1.96-1.64-2.96c-0.29-0.51-0.58-1-0.9-1.51
		c-0.16-0.26-0.32-0.51-0.48-0.77c-0.19-0.26-0.35-0.51-0.61-0.8c-0.03-0.03-0.06-0.06-0.13-0.13l-0.06-0.06
		c-0.03-0.03-0.1-0.06-0.13-0.1c-0.06-0.03-0.26-0.16-0.51-0.16c-0.19,0-0.45,0.1-0.55,0.19c-0.06,0.06-0.13,0.13-0.19,0.19
		c-0.06,0.06-0.1,0.16-0.1,0.16c-0.03,0.06-0.06,0.16-0.06,0.22v0.06v0.03l-0.03,0.16c0,0,0,0,0,0.03
		c-0.22-0.55-0.48-1.12-0.71-1.67c-0.13-0.29-0.26-0.58-0.38-0.87c-0.06-0.16-0.13-0.29-0.26-0.48c-0.03-0.03-0.06-0.1-0.1-0.16
		l-0.03-0.03l-0.06-0.06c0,0-0.06-0.06-0.1-0.1c0,0-0.13-0.1-0.29-0.16c-0.13-0.13-0.84,0.03-0.9,0.26
		c-0.19,0.32-0.13,0.26-0.16,0.38c-0.03,0.1,0,0.1-0.03,0.13v0.03v0.13c0,0.19-0.06,0.48-0.13,0.77l-0.19,0.74
		c-0.29-0.64-0.61-1.25-0.9-1.86c-0.55-1.06-1.03-2.12-1.7-3.15c-0.1-0.13-0.19-0.26-0.29-0.38c-0.13-0.13-0.19-0.29-0.45-0.45
		c-0.03-0.03-0.06-0.06-0.13-0.06l-0.06-0.03c-0.03-0.03-0.06-0.03-0.1-0.03c-0.03,0-0.06-0.03-0.1-0.03c-0.06,0-0.1,0-0.16-0.03
		c-0.1,0-0.22,0-0.35,0.06s-0.19,0.13-0.29,0.19c-0.06,0.06-0.1,0.13-0.13,0.19c-0.06,0.1-0.1,0.19-0.1,0.26v0.06l-0.03,0.06v0.06
		v0.1l-0.03,0.19c-0.06,0.64-0.06,1.19-0.1,1.77c0,1.12,0.06,2.21,0.16,3.27c0.03,0.29,0.06,0.58,0.1,0.87
		c-0.1-0.1-0.22-0.19-0.32-0.29c-0.35-0.32-0.71-0.64-1.19-0.96c-0.13-0.06-0.26-0.16-0.51-0.22c-0.13-0.03-0.32-0.06-0.61,0.06
		c-0.13,0.06-0.26,0.19-0.32,0.29c-0.03,0.03-0.06,0.1-0.06,0.16c-0.03,0.03-0.03,0.1-0.03,0.13C95,188.77,95,188.84,95,188.9v0.1
		v0.16c0,0.1-0.03,0.16-0.03,0.26c-0.06,0.38-0.19,0.8-0.26,1.25c-0.1,0.42-0.16,0.87-0.16,1.32c0,0.45,0.03,0.9,0.13,1.32
		c0.03,0.19,0.1,0.35,0.16,0.51c-1.19-0.42-2.02-0.42-2.47-0.03c-0.19,0.19-0.51,0.58-0.26,1.32c0.22,0.71,0.68,1.67,1.15,2.7
		c0.64,1.44,1.41,3.08,1.57,4.01c0.03,0.26,0.03,0.26-0.48,0.48c-0.38,0.16-0.93,0.38-1.15,0.96c-0.16,0.42-0.1,0.87,0.16,1.41
		c0.93,1.99,3.34,4.59,5.33,5.81c0.03,0.06,0.1,0.1,0.13,0.16c-1.32-0.16-1.57,0.16-1.74,0.38c-0.13,0.16-0.35,0.61,0.03,1.22
		c0.71,1.06,5.01,4.21,7.96,5.91c-0.9,0.1-1.41,0.29-1.61,0.77c-0.06,0.16-0.29,0.71,0.19,1.06c5.62,4.05,12.62,4.46,16.09,4.56
		c-0.61,0.42-1.86,1-3.05,1.25c-0.22,0.06-0.8,0.19-0.96,0.71c-0.06,0.29,0.03,0.61,0.26,0.84c1,0.9,8.19,1.61,12.94-0.19
		c1.19-0.45,2.21-0.87,3.05-1.22c0.45-0.19,0.87-0.35,1.25-0.51c-0.1,0.13-0.22,0.29-0.35,0.45c-0.45,0.58-0.9,1.31-0.55,1.96
		c0.13,0.19,0.38,0.55,1.06,0.55c0.06,0,0.13,0,0.19,0c0.9-0.1,2.6-0.84,4.01-1.83c-0.06,0.22-0.13,0.42-0.19,0.64
		c-0.13,0.42-0.22,0.87-0.32,1.35c-0.03,0.22-0.1,0.48-0.16,0.74c-0.03,0.13-0.03,0.26-0.06,0.38c-0.03,0.13-0.03,0.29-0.03,0.42
		v0.1l0.03,0.29v0.16v0.06c0,0.06-0.03-0.06,0.03,0.13v0.03l0.03,0.1c0.03,0.1,0.13,0.22,0.22,0.32c0.1,0.1,0.19,0.16,0.32,0.22
		c0.13,0.06,0.22,0.06,0.32,0.06c0.13,0,0.16,0,0.26,0c0.1,0,0.16-0.03,0.19-0.03c0.26-0.06,0.38-0.16,0.55-0.26
		c0.55-0.35,0.96-0.74,1.38-1.12c0.1-0.1,0.19-0.19,0.29-0.29c-0.42,1-0.8,2.06-1.12,3.15c-0.38,1.41-0.68,2.92-0.68,4.53
		c0.03,0.77,0,1.54,0.22,2.47c0.03,0.13,0.06,0.22,0.13,0.38c0.06,0.13,0.13,0.29,0.29,0.48c0.16,0.19,0.45,0.42,0.8,0.42
		c0.1,0,0.16,0,0.22,0c0.06,0,0.13-0.03,0.22-0.03c0.1-0.03,0.19-0.06,0.29-0.13c0.32-0.19,0.48-0.35,0.68-0.51
		c0.16-0.16,0.29-0.32,0.45-0.48c0.35-0.42,0.64-0.8,0.96-1.15c-0.1,0.48-0.22,0.96-0.35,1.48c-0.19,0.8-0.35,1.61-0.45,2.47
		c-0.1,0.84-0.16,1.7-0.1,2.6c0.06,0.9,0.26,1.83,0.74,2.73c0.06,0.1,0.1,0.19,0.16,0.29c0.26,1.83,1.12,6.07,3.18,6.55
		c0.55,0.13,1.09,0.03,1.51-0.32c0.48-0.38,0.8-1,0.96-1.74c1.03,1.96,2.34,3.69,3.66,3.82c0.22,0.03,0.45-0.06,0.61-0.22
		c0.16-0.16,0.22-0.42,0.19-0.64c-0.06-0.35-0.1-0.68-0.13-1c1.06,1.44,2.73,2.6,4.98,2.6c1.28,0,2.83-0.13,3.11-1.15
		c0,0,0,0,0-0.03c1.57,0.64,3.31,1.12,4.98,1.15c0.06,0,0.13,0,0.19,0c0.48,0,1.28-0.06,1.57-0.74c0.35-0.87-0.61-1.7-1.7-2.67
		c-0.03-0.03-0.06-0.06-0.13-0.1c0.32,0.06,0.77,0.19,1.28,0.32c6.39,1.77,9.18,0.74,9.79-0.06c0.22-0.29,0.26-0.68,0.06-0.96
		c-0.1-0.16-0.38-0.48-1.03-0.35c-0.42,0.03-1.7-0.55-2.41-1.03c0.26,0,0.64,0,1.15,0.06c4.01,0.42,7.87-1.06,8.64-2.25
		c0.32-0.51,0.16-0.9,0.06-1.06c-0.32-0.58-1.06-0.61-1.61-0.58c-1.51,0.06-3.11-0.45-3.85-0.87c0.16-0.03,0.42-0.06,0.71-0.1
		c3.37-0.29,6.36-2.28,6.71-3.24c0.1-0.32,0.03-0.64-0.19-0.84c-0.38-0.38-0.96-0.16-1.12-0.1c-0.74,0.29-3.02-0.26-4.85-0.87
		c0.03-0.1,0.06-0.19,0.1-0.35c0.03-0.16,0-0.35-0.1-0.51c-0.03-0.1-0.1-0.16-0.13-0.19c-0.03-0.06-0.1-0.13-0.16-0.16
		c-0.03-0.03-0.1-0.06-0.13-0.1l-0.13-0.06c-0.1-0.06-0.16-0.06-0.22-0.1c-0.29-0.1-0.55-0.13-0.77-0.16
		c-0.48-0.06-0.93-0.06-1.41-0.06c-0.93,0-1.86,0.1-2.83,0.19c-1.77,0.16-3.69,0-5.55-0.61c-1.83-0.61-3.6-1.67-4.88-3.21
		c-1.32-1.54-2.15-3.47-2.54-5.52c-0.19-1.03-0.32-2.09-0.32-3.11c0-0.26-0.03-0.51,0-0.8l0.03-0.8c0-0.51,0.06-1.06,0.1-1.57
		c0.03-0.51,0.13-1.06,0.19-1.57c0.06-0.51,0.19-1.03,0.26-1.54c0.1-0.51,0.22-1.03,0.32-1.54c0.13-0.51,0.22-1.03,0.32-1.51
		c0.48-2.02,0.87-4.01,1.15-5.91c0.29-1.9,0.48-3.69,0.55-5.39c0-0.42,0.03-0.84,0.03-1.22c0-0.38,0-0.8,0-1.19s0-0.77-0.03-1.12
		c-0.03-0.35-0.06-0.71-0.06-1.06c-0.03-0.35-0.06-0.68-0.13-1c-0.06-0.32-0.1-0.64-0.13-0.93c-0.13-0.61-0.22-1.15-0.38-1.64
		c-0.29-1-0.64-1.74-0.96-2.21c-0.03-0.06-0.1-0.13-0.13-0.19c0.45-0.51,0.96-1.48,1.12-3.15c0.68-0.32,1.12-0.71,1.35-1.19
		c0.19-0.42,0.19-0.84,0.1-1.19c0.19-0.16,0.48-0.35,0.77-0.58c0.38-0.29,0.84-0.71,1.35-1.19c0.51-0.48,1.03-1.03,1.57-1.67
		c0.55-0.64,1.09-1.38,1.64-2.18c0.51-0.8,1.03-1.7,1.44-2.67c0.42-0.96,0.8-1.99,1.09-3.08c0.26-1.09,0.48-2.18,0.58-3.31
		c0.06-1.12,0.1-2.25,0-3.34c-0.03-0.29-0.03-0.55-0.06-0.84c-0.03-0.26-0.06-0.55-0.13-0.8c-0.06-0.55-0.19-1.06-0.29-1.57
		c-0.22-1.03-0.51-1.99-0.8-2.89c-0.03-0.13-0.06-0.22-0.13-0.35l-0.03-0.1v-0.03v-0.03l-0.03-0.06c0,0,0,0-0.03-0.06
		s-0.06-0.1-0.1-0.13c-0.06-0.06-0.16-0.13-0.26-0.16c-0.19-0.06-0.35-0.03-0.55,0.06c-0.16,0.1-0.29,0.32-0.29,0.48V167v0.06v0.16
		c0,0.1,0,0.19,0,0.29c-0.03,0.42-0.1,0.8-0.19,1.15c-0.16,0.71-0.42,1.32-0.64,1.86c0.03-0.84-0.06-1.93-0.26-3.24
		c-0.13-0.77-0.26-1.64-0.48-2.54c-0.03-0.13-0.06-0.22-0.1-0.35l-0.03-0.1c-0.35-0.77-1.06-0.19-1.12,0.13c0,0-0.06,0.26-0.06,0.32
		c-0.03,0.1-0.06,0.22-0.1,0.32c-0.16,0.45-0.32,0.93-0.51,1.44c-0.35,0.96-0.74,1.96-1.12,3.02c-0.06-0.22-0.13-0.45-0.19-0.68
		c0.35-15.93-1.67-37.63-2.79-49.29c-0.38-4.11-0.74-7.64-0.68-8.12c0.22-1.38,2.21-3.73,3.21-4.46
		c1.12-0.84,10.79-10.89,11.37-11.69c0.51-0.74,1.9-1.51,3.63-2.15c0.93-0.32,2.09-0.93,3.31-1.57c1.61-0.87,3.43-1.83,5.11-2.34
		c1.48-0.45,2.73-1.19,3.73-1.77c0.68-0.38,1.74-1,1.96-0.9c1.09,0.48,2.57,0.45,4.14,0.38c0.22,0,0.42,0,0.64-0.03
		c0.06,0,0.13,0,0.19,0c0.03,1.09,0.03,2.28,0.1,3.53c-11.4,7.29-18.04,15.99-15.41,20.71c0.42,0.71,1,1.32,1.77,1.77l6.07,8.51
		c-0.19,2.67,3.15,5.72,3.53,6.07l0.19,0.16h0.26c0.03,0,0.19,0,0.48,0l5.78,8.09c-0.1,0.42,0.03,1.03,0.29,1.83l0.1,0.35
		c0.55,1.7,1.31,4.11,4.37,4.53l5.72,8l0.38-0.03c0.16,0,0.29-0.03,0.42-0.03c12.52-0.84,22.25-4.14,28.9-9.83
		c6.17-5.23,7.35-10.53,7.38-10.76l0.03-0.19l-3.5-9.76C245.57,119.03,245.63,115.34,243.13,112.42z M242.64,114.15
		c1.7,2.63,1.44,5.72,1.41,5.75l-0.03,0.16l0.03,0.03l0.03,0.06c0,0.26-0.1,2.7-7,9.6l-2.73-5.72
		C238.6,120.19,241.49,115.95,242.64,114.15z M241.52,113.28c-1.03,1.64-3.79,5.68-7.8,9.41l-3.69-7.71
		c0.61-0.51,1.22-1.03,1.83-1.54c1.41-1.22,5.01-4.49,6.97-7.38L241.52,113.28z M238.7,102.95c0.16,1.61-3.79,6.23-9.25,10.76
		l-2.5-5.23c6.04-4.98,8.28-9.18,9.12-11.21C236.96,98.45,238.47,100.67,238.7,102.95z M232.31,88.62l2.73,7.26
		c-0.29,0.93-1.9,5.52-8.73,11.27l-3.34-7C227.84,96.14,231.18,92.03,232.31,88.62z M225.15,82.43c2.86,0,4.91,0.71,5.75,2.21
		c1.77,3.11-2.12,8.93-9.06,14.58L219.75,99c6.23-4.72,10.4-9.79,8.6-13c-1.15-2.09-4.75-2.89-9.83-2.28
		c-0.16,0.03-0.32,0.03-0.48,0.06c-0.06-0.1-0.13-0.19-0.19-0.26C220.59,82.81,223.09,82.43,225.15,82.43z M218.69,85.13
		c1.06-0.13,2.02-0.19,2.92-0.19c2.83,0,4.85,0.61,5.49,1.77c0.58,1.03,0.13,2.54-1.09,4.3c-0.22-0.03-0.58-0.03-1-0.03
		c-0.45,0.03-1.03,0.1-1.64,0.32c-0.42,0.16-0.87,0.38-1.28,0.74c0-0.06,0-0.16-0.03-0.22c-0.06-0.26-0.13-0.55-0.29-0.8
		c0-0.03-0.1-0.13-0.16-0.22c-0.06-0.1-0.16-0.16-0.26-0.22c-0.19-0.13-0.42-0.19-0.58-0.19c-0.35-0.03-0.64,0.03-0.9,0.1
		c-0.26,0.06-0.48,0.16-0.71,0.26c-0.45,0.19-0.87,0.45-1.25,0.68c-0.8,0.48-1.57,1.03-2.31,1.61c-0.74,0.58-1.48,1.12-2.21,1.7
		c-0.35,0.26-0.71,0.58-1.06,0.77c-0.35,0.22-0.71,0.38-1.09,0.51c-1.51,0.55-3.11,0.61-4.37,0.35c-0.16-0.03-0.29-0.06-0.45-0.1
		c-0.16-0.03-0.29-0.1-0.55-0.13c-0.42-0.06-0.8,0-1.09,0.06c-0.64,0.16-1.09,0.42-1.48,0.61c-0.1,0.06-0.19,0.1-0.29,0.16
		c-0.13-1.48-0.26-3.08-0.38-4.72c-0.03-0.42-0.06-0.87-0.1-1.28c0.42-0.26,0.8-0.48,1.25-0.74
		C208.45,87.6,213.88,85.73,218.69,85.13z M202.28,104.81c-0.26-0.1-0.58-0.16-0.93-0.16c0.06-0.8,0.51-1.35,0.9-1.35
		c0.42,0,0.9,0.68,0.9,1.61c0,0.13,0,0.26-0.03,0.38C202.9,105.1,202.61,104.94,202.28,104.81z M202.51,106.38
		c-0.1,0.06-0.16,0.1-0.26,0.1c-0.19,0-0.42-0.16-0.58-0.42c0.06,0,0.1,0,0.16,0.03C202.06,106.16,202.28,106.25,202.51,106.38z
		 M200.84,87.37c0.16,0.03,0.32,0.06,0.48,0.1c0.03,0.51,0.03,1.06,0.06,1.61c-0.35,0.22-0.74,0.45-1.09,0.64
		c-0.03-0.87-0.06-1.7-0.06-2.47C200.42,87.28,200.65,87.34,200.84,87.37z M200.23,85.8c0-2.44,0.03-4.24,0.06-5.01
		c0.06,0.1,0.13,0.19,0.16,0.26c0.19,0.32,0.38,0.68,0.64,1.03c0.03,0.61,0.1,2.06,0.16,3.95c-0.03,0-0.06,0-0.1-0.03
		C200.84,85.93,200.52,85.86,200.23,85.8z M200.39,92.29c0.35-0.22,0.71-0.48,1.09-0.71c0,0.26,0.03,0.48,0.03,0.74
		c0.13,2.63,0.26,5.26,0.38,7.26c0.06,0.96,0.13,1.77,0.16,2.34c-0.22,0.03-0.45,0.1-0.68,0.19
		C200.87,98.9,200.55,95.46,200.39,92.29z M200.87,107.31c-0.16,0.03-0.32,0.1-0.48,0.13c0.03-0.19,0.06-0.38,0.13-0.55
		C200.62,107.06,200.74,107.18,200.87,107.31z M201.93,83.17c0.16,0.16,0.29,0.29,0.48,0.45c0,0,0.26,0.19,0.38,0.26
		c0.19,0.1,0.26,0.16,0.45,0.22c0.16,0.06,0.32,0.13,0.48,0.19c0.32,0.1,0.64,0.19,1,0.22c0.03,0,0.06,0,0.1,0
		c0.03,0.58-0.03,1.64-0.77,1.8c-0.55,0.13-1.22,0.03-1.9-0.1C202.06,85,202,83.97,201.93,83.17z M206.2,84.39
		c0.22-0.1,0.48-0.22,0.64-0.45c0.06-0.1,0.13-0.19,0.19-0.26c0.06-0.1,0.1-0.19,0.13-0.29c0.03-0.1,0.03-0.19,0.06-0.29v-0.03
		v-0.03v-0.03c0.03,0,0.03-0.03,0.1-0.06c0.06-0.03,0.16-0.1,0.26-0.19c0.26-0.19,0.55-0.45,0.8-0.9c0.06-0.13,0.13-0.26,0.16-0.38
		c0.03-0.16,0.1-0.29,0.06-0.51v-0.06c0,0,0.32-0.45,0.35-1.22c0.77,0.13,1.7,0.48,2.37,0.74c-0.13,0.35-0.19,0.74-0.19,1.15
		c0,0.42,0.06,0.8,0.19,1.15c-0.38,0.61-0.64,1.25-0.8,1.8c-1.57,0.64-3.18,1.38-4.82,2.21C206.14,86.02,206.23,85.13,206.2,84.39z
		 M213.04,82.84c0.22-0.26,0.51-0.45,0.8-0.51c0.26-0.06,0.55-0.03,0.8,0.06c-0.19,0.45-0.55,0.77-0.96,0.77
		C213.46,83.17,213.24,83.04,213.04,82.84z M216.41,83.94c0.03,0.03,0.06,0.06,0.1,0.13c-0.45,0.1-0.87,0.16-1.31,0.26
		C215.61,84.2,216,84.07,216.41,83.94z M213.71,79.92c0.45,0,0.87,0.42,1.03,1c-0.42-0.1-0.84-0.1-1.28,0.03
		c-0.32,0.1-0.61,0.22-0.87,0.42C212.65,80.56,213.14,79.92,213.71,79.92z M212.21,79.12c-0.03,0.03-0.03,0.03-0.06,0.06
		c-0.77-0.32-2.28-0.93-3.5-1c-0.19-0.26-0.42-0.55-0.74-0.9C209.96,77.68,211.4,78.51,212.21,79.12z M105.8,130.27
		c0.84-0.87,1.77-1.74,2.37-2.28c0.68,1.96,2.28,3.02,3.05,3.47c-0.16,0.55-0.32,1.12-0.51,1.7c-0.32,1.06-0.68,2.18-1.06,3.27
		c-0.19,0.55-0.38,1.12-0.58,1.64c-0.19,0.55-0.38,1.09-0.58,1.57c-0.1,0.19-0.16,0.42-0.22,0.61c-0.42-0.71-0.87-1.48-1.35-2.31
		c-0.87-1.48-1.8-2.96-2.73-4.4c0-0.13,0-0.22-0.03-0.35c0-0.03,0-0.06-0.03-0.1c0.13-0.06,0.26-0.13,0.38-0.22
		C105.51,132.26,105.99,131.2,105.8,130.27z M107.85,148.92c0.03-0.03,0.03-0.06,0.06-0.1c0.13-0.26,0.22-0.51,0.29-0.77
		c1.35,2.31,2.31,4.05,2.99,5.39c-0.03-0.03-0.03-0.03-0.06-0.06c-0.32-0.26-0.64-0.48-1.09-0.68c-0.45-0.19-0.55-0.77-0.51-1.19
		C109.55,150.21,108.69,149.38,107.85,148.92z M102.85,130.49c0.32-0.22,0.68-0.32,0.93-0.32c0.26,0,0.48,0.1,0.58,0.22
		c0.19,0.29,0,0.93-0.64,1.38c-0.03,0.03-0.06,0.03-0.06,0.03c-0.03-0.06-0.06-0.13-0.1-0.19c-0.16-0.26-0.38-0.48-0.61-0.68
		c-0.1-0.1-0.22-0.19-0.35-0.26C102.65,130.62,102.75,130.56,102.85,130.49z M101.91,133.35c0.16,0.06,0.32,0.1,0.48,0.13
		c0.19,0.29,0.38,0.58,0.58,0.87c0,0.03,0,0.06,0,0.1c-0.03,0.13-0.06,0.26-0.1,0.35c-0.06,0.1-0.13,0.19-0.16,0.26
		c-0.03,0.1-0.1,0.19-0.1,0.29c-0.03,0.1-0.03,0.13-0.03,0.13s0.06,0.03,0.13,0.06c0.1,0.03,0.19,0.06,0.32,0.03
		c0.16-0.03,0.29-0.13,0.42-0.26c0.03-0.03,0.06-0.06,0.06-0.06c0.74,1.15,1.44,2.31,2.15,3.47c0.71,1.19,1.32,2.25,1.86,3.21
		c-0.06,0.16-0.16,0.35-0.22,0.51c-0.13,0.29-0.26,0.55-0.38,0.77c-0.61-1-1.25-2.06-1.96-3.21c-1.25-2.02-2.47-3.92-3.63-5.62
		L101.91,133.35z M100.24,135.31c1.06,1.61,2.25,3.4,3.53,5.49c0.87,1.41,1.67,2.67,2.37,3.85c-0.03,0.03-0.03,0.06-0.06,0.06
		c-0.68-0.03-1.38,0.26-1.96,0.77c-0.16-0.45-0.35-0.96-0.58-1.51c-0.96-2.31-3.43-3.11-4.49-3.37c-0.61-1.12-1.12-2.18-1.64-3.21
		L100.24,135.31z M96.81,136.08c-2.18-4.69-3.34-8.25-3.69-9.83c1.06,0.8,3.15,3.21,6.36,7.84L96.81,136.08z M104.42,148.12
		c0.16-0.03,0.29,0.03,0.45,0.1c0.03,0.03,0.1,0.06,0.13,0.13c0.06,0.06,0.1,0.1,0.13,0.16c0.03,0.03,0.06,0.1,0.1,0.16
		c0.03,0.03,0.06,0.1,0.06,0.16c0.03,0.1,0.06,0.19,0.1,0.32c0,0.03,0,0.06,0,0.06c-0.16,0.03-0.32,0-0.48-0.06
		C104.58,148.99,104.38,148.57,104.42,148.12z M104.87,146.8c0.32-0.45,0.77-0.71,1.19-0.71c0.13,0,0.26,0.03,0.38,0.1
		c0.55,0.29,0.64,1.19,0.26,1.96c-0.03,0.03-0.03,0.06-0.06,0.1c-0.03-0.13-0.1-0.22-0.16-0.32c-0.06-0.13-0.16-0.26-0.22-0.35
		c-0.1-0.1-0.19-0.19-0.29-0.29c-0.1-0.1-0.19-0.16-0.29-0.22l-0.06-0.03l-0.03-0.03C105.32,146.9,105.09,146.84,104.87,146.8z
		 M100.21,130.37c-0.06,0.03-0.1,0.03-0.16,0.06c-0.16,0.06-0.29,0.16-0.38,0.26c-0.1,0.1-0.13,0.22-0.16,0.32
		c-0.03,0.06-0.03,0.13-0.03,0.13s0.06,0.03,0.13,0.06c0.1,0.03,0.19,0.1,0.29,0.1c0.13,0.03,0.22,0.03,0.35,0.03s0.26,0,0.42,0.03
		c0.03,0,0.03,0,0.06,0c-0.03,0.35,0,0.68,0.13,0.96l-0.42,0.77c-1.15-1.67-2.21-3.15-3.18-4.37c-2.31-2.92-3.56-3.92-4.4-4.14
		l-1.32-2.96C93.15,122.31,96.2,125,100.21,130.37z M90.07,122.15c0.03-0.13,0.1-0.19,0.13-0.29l2.54,2.7
		c-0.32-0.06-0.58,0.03-0.8,0.16l-0.26,0.16l-0.06,0.32c-0.19,1.09,1.03,5.04,3.34,10.21l-1.99-1.06
		C89.94,127.77,89.49,123.66,90.07,122.15z M88.43,123.5c-0.06,2.63,1.03,6.55,3.08,11.08l-8.25,5.78
		c-2.09-5.3-2.41-9.37-2.44-11.14C84.09,126.77,86.85,124.68,88.43,123.5z M74.94,132.58c1.57-1.41,3.43-2.86,4.46-3.43
		c0,1.9,0.32,6.32,2.67,12.07l-4.11,2.89C75.13,137.91,74.91,133.67,74.94,132.58z M73.63,134.67c0.26,2.18,1.03,5.75,3.15,10.28
		l-7.22,5.07c-1.38-4.69-1.96-8.96-2.18-10.59C69.45,137.85,71.57,136.24,73.63,134.67z M65.98,139.71
		c0.22,1.83,0.87,6.32,2.31,11.18l-5.07,3.56c-1.06-3.31-1.7-6.94-1.67-10.89C62.87,142.12,64.8,140.32,65.98,139.71z M52.59,150.88
		c0.45-0.42,2.06-1.74,7.61-5.97c0.13,3.76,0.8,7.22,1.86,10.37l-7.29,5.11C52.92,155.54,52.62,151.88,52.59,150.88z M73.66,182.32
		c-10.69-6.78-15.86-14.83-18.34-20.58l7.22-5.07c2.12,5.68,5.36,10.31,8.28,13.64c3.69,4.24,7.38,7.1,9.37,8.54L73.66,182.32z
		 M82.2,178.46c-1.15-0.74-5.78-3.92-10.34-9.12c-2.89-3.31-6.07-7.87-8.12-13.52l5.04-3.53c1.15,3.47,2.73,7,4.88,9.83
		c5.88,7.74,9.44,11.78,13.45,13.39C85.96,176.41,83.93,177.85,82.2,178.46z M88.49,174.45c-4.08-1.22-7.58-5.11-13.71-13.2
		c-2.12-2.79-3.66-6.36-4.79-9.83l7.42-5.2c0.58,1.15,1.22,2.34,1.99,3.6c4.05,6.65,12.11,17.18,16.99,20.46L88.49,174.45z
		 M98.8,169.89c-0.35,0.13-2.47-0.74-7.35-6.17c-3.85-4.3-7.9-9.76-10.85-14.64c-0.77-1.28-1.44-2.5-2.02-3.69l4.05-2.86
		c1.51,3.37,3.69,7.16,6.9,11.14c7.51,9.34,11.78,12.3,13.81,13.23C102.2,167.84,100.27,169.25,98.8,169.89z M104.68,165.91
		c-0.74-0.16-4.75-1.54-14.03-13.07c-3.18-3.95-5.33-7.74-6.81-11.11l8.28-5.81c1.22,2.57,2.73,5.23,4.43,7.93
		c5.01,8.47,12.14,15.86,16.44,17.66L104.68,165.91z M115.01,160.42c-0.1,0.06-0.22,0.1-0.38,0.1c-2.25,0-10.34-6.36-16.86-17.4
		c-1.41-2.25-2.67-4.46-3.76-6.58l1.93,1.06c0.93,1.93,1.99,4.01,3.18,6.13c0.96,1.54,4.59,6.65,5.39,7.64
		c-0.03,0.06-0.03,0.77-0.06,0.84c0.06-0.03,0.42-0.29,0.48-0.32c0.93,1.15,1.64,1.96,2.57,2.92c3.05,3.21,4.56,3.82,5.3,3.82
		c0.32,0,0.51-0.13,0.61-0.19c1.06-0.64,0.64-2.41-1.48-6.52c-0.61-1.15-1.32-2.47-2.21-3.98l1.35,0.55
		C116.52,159.04,115.14,160.32,115.01,160.42z M110.1,146.52l-1.15-0.45c0,0-0.16-0.03-0.29-0.03c0.19-0.35,0.38-0.74,0.58-1.12
		C109.52,145.46,109.81,146,110.1,146.52z M109.07,141.73c0-0.02,0-0.02,0-0.02S109.07,141.72,109.07,141.73c0-0.03,0-0.06,0.03-0.1
		c0.19-0.48,0.35-1,0.55-1.51c0.19-0.51,0.35-1.06,0.55-1.64c0.19-0.55,0.35-1.12,0.55-1.7c0.77-2.54,1.44-5.07,1.9-6.84
		c0.06,0.32,0.16,0.68,0.26,1.03C112.57,131.94,110.97,137.14,109.07,141.73z M146.42,111.26c-1.32-0.64-3.21-1.44-5.49-2.31
		c-2.28-0.9-4.98-1.86-7.87-2.86c-1.44-0.51-2.96-1-4.46-1.51c-0.38-0.13-0.77-0.26-1.15-0.38c-0.38-0.13-0.77-0.22-1.19-0.35
		l-0.16-0.03c-0.03,0-0.03,0-0.1-0.03l-0.1-0.03c-0.13-0.03-0.26-0.03-0.38-0.03c-0.26,0-0.51,0.03-0.77,0.1
		c-0.51,0.16-0.93,0.48-1.25,0.84c-0.64,0.71-0.96,1.54-1.22,2.37c-0.06,0.22-0.1,0.42-0.16,0.61l-0.16,0.58
		c-0.1,0.38-0.22,0.74-0.35,1.12c-0.51,1.48-1.12,2.96-1.7,4.33c-0.61,1.41-1.19,2.76-1.77,4.05c-0.29,0.64-0.55,1.28-0.8,1.9
		c-0.13,0.32-0.26,0.64-0.32,0.96c-0.1,0.35-0.13,0.71-0.1,1.09c0.06,0.38,0.16,0.68,0.26,0.93c0.1,0.26,0.16,0.51,0.19,0.77
		c0.03,0.26,0.06,0.48,0.06,0.77c0,0.22,0,0.48-0.03,0.71c-0.06,0.93-0.32,1.74-0.51,2.41c-0.13,0.35-0.22,0.64-0.32,0.9
		c0,0,0,0,0-0.03c-0.1-0.42-0.16-0.68-0.16-0.68s-0.03,0.06-0.06,0.16c-0.03,0.13-0.1,0.29-0.16,0.51c-0.06,0.22-0.1,0.48-0.16,0.77
		c-0.03,0.29-0.1,0.64-0.13,1s-0.06,0.74-0.13,1.15c-0.06,0.38-0.13,0.8-0.26,1.12c-0.06,0.16-0.13,0.29-0.19,0.32
		c-0.03,0.03-0.03,0.03-0.06,0.03h-0.1c0,0-0.03,0-0.03-0.03c0,0-0.03-0.03-0.06-0.06c-0.1-0.1-0.19-0.26-0.32-0.42
		c-0.19-0.35-0.38-0.8-0.51-1.22c-0.16-0.42-0.29-0.87-0.38-1.32c-0.26-0.87-0.45-1.67-0.64-2.37c-0.1-0.35-0.19-0.68-0.29-0.96
		c-0.1-0.29-0.19-0.55-0.26-0.74c-0.16-0.42-0.29-0.64-0.29-0.64s-0.06,0.26-0.13,0.71c-0.03,0.22-0.03,0.48-0.06,0.8
		c0,0.29,0,0.64,0.03,1.03c0,0.16,0.03,0.32,0.03,0.51c-0.13,0.42-0.35,1.22-0.64,2.25c-0.68-0.42-1.74-1.25-2.18-2.6
		c-0.71-2.18,0-4.88,1-6.48c0.61-1,0.8-1.64,1.12-2.6c0.29-0.93,0.71-2.18,1.7-4.43c1.99-4.56,5.81-9.47,7.45-10.72
		c1.61-1.22,2.02-1.9,2.44-2.57c0.1-0.13,0.16-0.26,0.26-0.38c0.1-0.13,0.84-0.16,2.44,0.87c1,0.64,6.29,1.99,13.9,3.82
		c0.68,0.16,1.22,0.29,1.57,0.38c1.86,0.45,3.4,0.13,4.3-0.19c0.35,1.96,0.68,4.05,1,6.26
		C146.54,111.36,146.48,111.32,146.42,111.26z M141.57,186.91c2.96,3.37,12.81,7.61,17.21,7.61c0.16,0,0.29,0,0.42,0
		c0.71-0.06,1.35-0.13,1.93-0.26c-0.22,1.22-0.71,1.77-0.87,1.93c-11.56,1.32-18.56-4.4-19.23-6.42
		C140.67,188.68,141.15,187.58,141.57,186.91z M97.68,207.52c-0.03,0.06-0.06,0.13-0.06,0.19c-1.25-1.15-2.41-2.6-2.96-3.76
		c-0.06-0.16-0.1-0.26-0.1-0.29c0.1-0.06,0.26-0.13,0.38-0.16c0.51-0.22,1.57-0.64,1.35-2.06c-0.19-1.12-0.96-2.76-1.67-4.33
		c-0.38-0.87-0.77-1.67-1-2.28c0.51,0.1,1.35,0.42,2.12,0.77c0.19,0.45,0.35,0.87,0.51,1.25c0.38,0.96,0.77,1.74,1.03,2.25
		c0.26,0.51,0.42,0.8,0.42,0.8s0.03-0.06,0.03-0.22c0.03-0.16,0.03-0.38,0.03-0.68c0-0.61-0.13-1.44-0.45-2.5
		c-0.16-0.51-0.38-1.09-0.64-1.7c-0.13-0.32-0.29-0.61-0.42-0.93c-0.13-0.29-0.22-0.58-0.29-0.9c-0.13-0.64-0.1-1.32,0.06-2.09
		c0.1-0.38,0.19-0.77,0.29-1.22c0.19,0.16,0.42,0.38,0.64,0.58c0.35,0.32,0.68,0.68,1.09,1.03c0.1,0.1,0.19,0.19,0.35,0.29
		c0.03,0.03,0.1,0.06,0.13,0.1c0.06,0.03,0.13,0.06,0.26,0.1c0.06,0,0.19,0.03,0.35,0c0.1-0.03,0.19-0.06,0.26-0.13
		c0.1-0.06,0.16-0.16,0.19-0.22c0.03-0.1,0.06-0.16,0.06-0.19c0-0.06,0.03-0.1,0.03-0.13s0-0.06,0-0.13v-0.03
		c-0.03-0.26-0.06-0.51-0.1-0.77c-0.06-0.51-0.1-1-0.13-1.54c-0.06-1.03-0.13-2.12-0.1-3.18c0-0.16,0-0.35,0-0.51
		c0.42,0.74,0.84,1.57,1.22,2.37c0.51,1.06,1,2.15,1.51,3.24c0.13,0.29,0.26,0.55,0.38,0.84c0.03,0.1,0.06,0.13,0.16,0.26
		c0,0,0.03,0.03,0.06,0.06c-0.03-0.03,0.06,0.19,0.35,0.26c0.38,0.13,0.77-0.13,0.9-0.51c0.1-0.32,0.1-0.61,0.1-0.64
		c0-0.06,0-0.1,0-0.16c0-0.22,0.03-0.51,0.1-0.77c0.03-0.19,0.1-0.42,0.13-0.64c0.38,0.9,0.8,1.77,1.12,2.7
		c0.58,1.9,1,2.21,1.35,2.47c0.16,0.32,0.38,0.68,0.68,1.15c0.26,0.42,0.64,1.06,0.96,1.64c-0.13-0.1-0.22-0.19-0.35-0.29
		c-0.8-0.64-1.8-1.48-3.21-2.02c-1-0.38-1.54-0.1-1.8,0.19c-0.22,0.26-0.29,0.64-0.26,1.06c-0.06-0.03-0.1-0.1-0.16-0.13
		c-0.51-0.45-1.06-0.93-1.74-1.41c-0.19-0.13-0.35-0.22-0.71-0.35c-0.06,0-0.1-0.03-0.16-0.03c-0.06,0-0.13-0.03-0.22,0
		c-0.19,0-0.45,0.06-0.68,0.29c-0.06,0.03-0.1,0.13-0.16,0.19c-0.03,0.03-0.03,0.06-0.06,0.13l-0.03,0.06v0.03c0,0,0,0.03-0.03,0.1
		v0.03c-0.03,0.13-0.03,0.22-0.03,0.32c0.03,0.35,0.1,0.58,0.19,0.8c0.06,0.22,0.16,0.42,0.26,0.61c0.35,0.77,0.77,1.48,1.22,2.18
		s0.9,1.41,1.38,2.12c0,0,0,0.03,0.03,0.03c-0.13-0.06-0.26-0.13-0.38-0.22c-0.42-0.22-0.84-0.45-1.35-0.61
		c-0.26-0.1-0.51-0.19-0.96-0.19c-0.1,0-0.29,0.03-0.42,0.06c-0.19,0.06-0.38,0.16-0.51,0.35c-0.16,0.19-0.22,0.35-0.26,0.55
		c-0.03,0.16-0.03,0.32,0,0.48l0.03,0.16c0,0.03,0.03,0.1,0.03,0.1v0.03v0.06c0,0.03,0.03,0.1,0.03,0.13
		c0.06,0.16,0.1,0.29,0.16,0.42c0.13,0.26,0.26,0.48,0.38,0.68c0.26,0.42,0.55,0.8,0.87,1.15c0.58,0.74,1.22,1.41,1.83,2.06
		c0.29,0.32,0.61,0.61,0.9,0.93c-0.64-0.19-1.32-0.35-1.99-0.45c-0.42-0.06-0.84-0.1-1.35-0.03c-0.26,0.03-0.55,0.1-0.84,0.29
		C97.9,207.17,97.74,207.3,97.68,207.52z M151.65,252.22c-0.1,0.45-0.19,1.35-0.1,2.6c-0.71-0.74-1.64-2.25-2.6-4.4
		c-0.16-0.32-0.51-0.51-0.87-0.45c-0.35,0.06-0.61,0.38-0.61,0.74c-0.03,1.41-0.32,2.57-0.71,2.86c-0.06,0.03-0.13,0.1-0.32,0.06
		c-0.61-0.13-1.22-1.51-1.64-3.21c0.03,0,0.03,0.03,0.06,0.03c0.19,0.06,0.45,0.1,0.71,0.06c0.22-0.03,0.45-0.13,0.64-0.22
		c0.32-0.22,0.51-0.45,0.71-0.64c0.29-0.38,0.48-0.77,0.68-1.12c0.26,0.38,0.55,0.71,0.87,1.03c0.64,0.64,1.35,1.15,2.09,1.61
		c0.35,0.22,0.74,0.45,1.09,0.64c0.06,0.03,0.13,0.06,0.19,0.1C151.71,251.99,151.68,252.09,151.65,252.22z M157.97,256.1
		c-2.83,0-4.11-2.18-4.62-3.4c0.51,0.26,1.06,0.51,1.61,0.74c0.38,0.16,0.77,0.32,1.22,0.45c0.06,0.03,0.16,0.03,0.22,0.06
		c0.55,0.35,1.51,0.93,2.7,1.51c0.19,0.13,0.42,0.32,0.55,0.48C159.42,256,158.97,256.1,157.97,256.1z M177.82,243.48l0.06-0.03
		c0.1-0.1,0.22-0.16,0.35-0.26c0.9,0.32,2.99,1.03,4.66,1.19c-1,0.58-2.44,1.19-4.17,1.35c-0.61,0.06-2.44,0.19-2.37,1.44
		c0.1,1.38,3.18,2.25,5.2,2.31c-1.22,0.61-3.73,1.38-6.52,1.06c-1.8-0.19-2.67-0.03-3.02,0.58c-0.1,0.16-0.29,0.61,0.13,1.19
		c0.35,0.51,1.25,1.09,2.18,1.51c-1.32,0.13-3.66,0.35-6.84-0.51c-0.8-0.22-1.44-0.38-1.93-0.48c-1.06-0.22-1.74,1.06-0.93,1.8
		c0.19,0.16,0.38,0.35,0.58,0.51c0.29,0.26,0.71,0.64,1.03,0.96c-0.03,0-0.06,0-0.1,0c-2.79-0.06-6.04-1.67-7.9-2.73
		c0.03-0.06,0.06-0.13,0.1-0.19c0.03-0.13,0.06-0.29,0.06-0.38s0-0.19,0-0.29c-0.03-0.16-0.06-0.29-0.1-0.42
		c-0.06-0.22-0.13-0.45-0.22-0.64c-0.13-0.35-0.29-0.74-0.42-1.09c-0.13-0.35-0.26-0.71-0.32-1.03c-0.03-0.16-0.1-0.32-0.1-0.51
		c0-0.1-0.03-0.16-0.03-0.26v-0.1c0.06,0.03,0.13,0.06,0.19,0.1c0.61,0.35,1.25,0.77,1.86,1.19c1.28,0.8,2.6,1.54,4.01,2.09
		c0.71,0.26,1.38,0.38,2.12,0.51c0.71,0.13,1.54,0.22,2.18,0.19c0.35,0,0.71,0,1.06-0.06c0.1,0,0.19-0.03,0.29-0.03
		c0.1-0.03,0.19-0.03,0.29-0.06c0.1-0.03,0.19-0.03,0.32-0.1l0.19-0.06c0.06-0.03,0.16-0.06,0.22-0.13
		c0.03-0.03,0.06-0.03,0.13-0.06c0.03-0.03,0.1-0.06,0.13-0.13c0.03-0.03,0.06-0.1,0.13-0.13c0.03-0.06,0.06-0.13,0.13-0.19
		c0.06-0.13,0.1-0.29,0.1-0.45c0-0.03,0-0.06,0-0.13v-0.1c0-0.06-0.03-0.13-0.03-0.16l-0.03-0.1l-0.03-0.06l-0.06-0.13
		c-0.03-0.06-0.06-0.13-0.13-0.19c-0.06-0.13-0.16-0.19-0.22-0.26c-0.29-0.29-0.55-0.51-0.8-0.71c-0.48-0.38-0.96-0.74-1.41-1.12
		c-0.45-0.35-0.87-0.71-1.15-1.06c-0.16-0.16-0.26-0.32-0.32-0.45c0.06-0.03,0.13-0.06,0.22-0.1c0.16-0.03,0.29-0.06,0.42-0.06
		c0.1-0.03,0.19-0.06,0.26-0.1c0.87-0.16,1.8-0.19,2.63-0.26c0.87-0.06,1.7-0.16,2.44-0.29c0.38-0.06,0.74-0.19,1.09-0.29l0.13-0.03
		l0.13-0.06c0.1-0.03,0.19-0.1,0.26-0.13c0.1-0.06,0.19-0.1,0.29-0.16c0.1-0.06,0.19-0.16,0.32-0.32c0.03-0.03,0.06-0.1,0.06-0.13
		c0.03-0.06,0.03-0.13,0.06-0.19c0.03-0.1,0-0.22,0-0.32c0.13,0,0.22,0,0.35,0c0.35-0.03,0.74-0.06,1.12-0.13
		c0.19-0.03,0.38-0.1,0.58-0.13c0.19-0.06,0.42-0.13,0.61-0.22c0.13-0.03,0.19-0.1,0.26-0.13l0.13-0.06L177.82,243.48z
		 M161.54,202.1c0.03,0.29,0.1,0.61,0.1,0.93c0.03,0.32,0.03,0.64,0.06,1c0.03,0.35,0,0.71,0,1.06c0,0.35,0,0.74,0,1.12
		c-0.03,0.38-0.03,0.77-0.06,1.19c-0.1,1.61-0.32,3.37-0.61,5.2c-0.29,1.83-0.68,3.79-1.12,5.78c-0.13,0.51-0.22,1.03-0.35,1.54
		c-0.1,0.51-0.22,1.03-0.32,1.54c-0.1,0.55-0.19,1.09-0.29,1.64c-0.06,0.55-0.16,1.09-0.19,1.64c-0.03,0.55-0.1,1.12-0.13,1.67
		l-0.03,0.84c0,0.29,0,0.58,0,0.87c0.03,1.12,0.13,2.28,0.35,3.4c0.45,2.25,1.41,4.49,2.96,6.26c1.51,1.77,3.56,2.99,5.65,3.63
		c2.09,0.64,4.21,0.8,6.2,0.58c0.93-0.1,1.83-0.19,2.67-0.22c0.42,0,0.84,0,1.22,0.03c0.03,0,0.06,0,0.1,0
		c-0.06,0.03-0.13,0.1-0.16,0.13c-0.16,0.1-0.29,0.19-0.45,0.29l-0.06,0.03h-0.03l-0.13,0.06c-0.1,0.03-0.19,0.1-0.26,0.13
		c-0.26,0.1-0.58,0.22-0.9,0.29c-0.32,0.06-0.64,0.13-0.93,0.16c-1.25,0.13-2.41,0.1-3.37,0.06c-0.96-0.03-1.7-0.06-2.25-0.06
		c-0.51-0.03-0.8,0-0.8,0s0.26,0.13,0.74,0.29c0.48,0.19,1.22,0.42,2.18,0.64c0.19,0.03,0.35,0.06,0.58,0.13
		c0.03,0,0.03,0,0.06,0.03c0.19,0.06,0.45,0.16,0.77,0.29c0.03,0.03,0.1,0.03,0.13,0.06c-0.26,0.06-0.55,0.13-0.87,0.16
		c-0.68,0.1-1.44,0.13-2.31,0.19c-0.87,0.06-1.8,0.1-2.89,0.26c-0.22,0.03-0.48,0.1-0.74,0.19c-0.19,0-0.38,0.03-0.61,0.03
		c-0.16,0-0.32,0.03-0.51,0.03c-0.16,0-0.35,0-0.51,0.03c-0.16,0.03-0.35,0.03-0.55,0.03c-0.19,0-0.35,0.03-0.51,0.03
		c-0.35,0.03-0.68,0.06-0.93,0.13c-0.29,0.06-0.51,0.13-0.68,0.19c-0.1,0.03-0.16,0.06-0.19,0.06c-0.03,0.03-0.06,0.03-0.06,0.03
		s0.03,0,0.06,0.03c0.03,0.03,0.1,0.06,0.16,0.13c0.16,0.1,0.38,0.19,0.64,0.32c0.26,0.1,0.58,0.22,0.93,0.29
		c0.35,0.1,0.71,0.16,1.09,0.19c0.06,0,0.16,0.03,0.22,0.03c0,0.16,0,0.29,0.03,0.38c0.03,0.13,0.06,0.22,0.13,0.35
		c0.19,0.38,0.38,0.61,0.58,0.87c0.84,0.96,1.86,1.64,2.79,2.41c0.1,0.06,0.16,0.13,0.26,0.19c-0.29,0.03-0.58,0.03-0.87,0.03
		c-0.68,0-1.25-0.03-1.9-0.13c-0.61-0.1-1.25-0.29-1.86-0.51c-1.25-0.45-2.47-1.15-3.69-1.93c-0.61-0.38-1.22-0.8-1.93-1.22
		c-0.19-0.1-0.35-0.19-0.58-0.29c-0.1-0.06-0.26-0.1-0.38-0.13c-0.16-0.03-0.32-0.1-0.58-0.06c-0.06,0-0.1,0-0.19,0.03
		c-0.06,0.03-0.16,0.03-0.22,0.06c-0.16,0.03-0.29,0.16-0.38,0.26c-0.22,0.22-0.32,0.48-0.35,0.61c-0.06,0.19-0.06,0.32-0.06,0.51
		c0,0.1,0,0.13,0,0.16v0.16v0.03c0,0.1,0,0.06,0,0.1v0.1l0.03,0.16c0,0.13,0.03,0.22,0.03,0.32c0.03,0.22,0.1,0.42,0.13,0.64
		c0.1,0.42,0.22,0.8,0.38,1.19c0.13,0.35,0.29,0.74,0.42,1.09c0,0.03,0.03,0.06,0.03,0.1c-0.29-0.1-0.58-0.19-0.87-0.32
		c-0.71-0.29-1.41-0.64-2.15-1c-0.35-0.19-0.71-0.35-1.06-0.55c-0.32-0.19-0.68-0.38-1-0.61c-0.64-0.42-1.28-0.87-1.8-1.38
		s-1.54-2.34-0.96-4.82c0.03-0.19,0.06-0.38,0.1-0.58c0.03-0.19,0.06-0.38,0.1-0.55c0.03-0.19,0.06-0.35,0.1-0.51
		c0.04-0.16,0.06-0.32,0.06-0.48c0.03-0.16,0.06-0.29,0.06-0.38c0.03-0.13,0.03-0.22,0.06-0.32c0.06-0.16,0.06-0.29,0.06-0.29
		s-0.1,0.06-0.22,0.19c-0.1,0.06-0.16,0.13-0.26,0.22c-0.09,0.09-0.19,0.19-0.29,0.35c-0.1,0.13-0.19,0.29-0.29,0.45
		c-0.1,0.16-0.19,0.32-0.26,0.51c-0.16,0.35-0.32,0.74-0.45,1.12c-0.06,0.19-0.13,0.38-0.19,0.58c-0.06,0.19-0.1,0.38-0.16,0.58
		c-0.1,0.38-0.16,0.74-0.19,1.03c-0.03,0.16-0.03,0.32-0.06,0.45c-0.03,0.06-0.06,0.1-0.06,0.1l-0.29,0.58l-0.55,1.09
		c-0.19,0.35-0.35,0.68-0.55,0.93c-0.03,0.06-0.1,0.1-0.13,0.13c-0.03-0.03-0.06-0.03-0.1-0.06c-0.1-0.1-0.19-0.22-0.29-0.35
		c-0.19-0.29-0.38-0.58-0.58-0.96c-0.29-0.55-0.48-1.25-0.51-1.99c-0.06-0.74,0-1.48,0.1-2.25c0.1-0.77,0.26-1.54,0.42-2.31
		c0.16-0.77,0.38-1.54,0.51-2.37c0.03-0.22,0.06-0.42,0.1-0.71c0-0.16,0-0.29-0.06-0.55c-0.03-0.06-0.03-0.13-0.1-0.22
		c-0.03-0.03-0.03-0.1-0.06-0.13c-0.03-0.06-0.06-0.1-0.1-0.13c-0.06-0.1-0.19-0.19-0.32-0.26c-0.06-0.03-0.13-0.06-0.19-0.06
		c-0.06,0-0.13-0.03-0.16-0.03c-0.13,0-0.19,0-0.29,0c-0.06,0-0.13,0.03-0.19,0.03c-0.06,0.03-0.13,0.03-0.19,0.06l-0.06,0.03
		l-0.06,0.03l-0.03,0.03l-0.1,0.06c-0.06,0.03-0.13,0.06-0.16,0.1c-0.22,0.16-0.38,0.29-0.58,0.45c-0.64,0.61-1.12,1.28-1.61,1.83
		c-0.06,0.06-0.1,0.13-0.16,0.19c-0.06-0.51-0.1-1.09-0.1-1.67c0-1.38,0.22-2.76,0.58-4.08c0.35-1.31,0.84-2.57,1.35-3.76
		c0.26-0.61,0.55-1.19,0.8-1.77c0.06-0.16,0.13-0.29,0.19-0.45l0.1-0.26c0.03-0.1,0.06-0.19,0.1-0.35l0.03-0.06c0-0.03,0-0.06,0-0.1
		c0-0.06,0-0.06,0-0.19c-0.03-0.1-0.03-0.19-0.16-0.38c-0.06-0.16-0.35-0.32-0.55-0.35c-0.13-0.03-0.38,0-0.38,0h-0.03h-0.03
		c-0.03,0-0.03,0-0.06,0.03l-0.06,0.03c-0.03,0.03-0.1,0.06-0.13,0.06l-0.06,0.06c-0.06,0.03-0.1,0.06-0.13,0.1
		c-0.16,0.13-0.26,0.26-0.38,0.35c-0.9,0.93-1.67,1.8-2.47,2.54c-0.26,0.26-0.55,0.51-0.8,0.71c0.03-0.13,0.03-0.22,0.06-0.32
		c0.03-0.22,0.1-0.45,0.13-0.68c0.1-0.45,0.19-0.87,0.29-1.28c0.19-0.84,0.42-1.57,0.61-2.28c0.13-0.45,0.26-0.84,0.35-1.19
		c0.26-0.8,0.45-1.48,0.45-2.02c0.03-0.8-0.13-1.28-0.13-1.28s-0.45,0.29-0.87,0.96c-0.32,0.45-0.55,1.09-0.8,1.9
		c-0.38,1.19-3.21,2.83-4.56,3.24c0.03-0.03,0.06-0.06,0.1-0.1c1.06-1.35,1.61-2.12,1.12-2.76c-0.51-0.68-1.25-0.35-3.69,0.64
		c-0.84,0.35-1.83,0.77-3.02,1.22c-3.11,1.19-7.38,1.12-9.79,0.84c1.28-0.51,2.79-1.28,2.79-2.28c0.03,0,0.06,0,0.13,0
		c0.35-0.03,0.74-0.06,1.12-0.13c0.38-0.06,0.84-0.16,1.25-0.22c0.42-0.13,0.87-0.22,1.32-0.35c0.45-0.16,0.9-0.32,1.32-0.48
		l0.64-0.29l0.32-0.16l0.32-0.16c0.19-0.1,0.42-0.22,0.61-0.32c0.19-0.13,0.38-0.22,0.58-0.35c0.38-0.22,0.71-0.48,1.03-0.74
		s0.61-0.48,0.87-0.74c0.48-0.45,0.87-0.84,1.09-1.15c0.03-0.06,0.1-0.1,0.13-0.16c0.06-0.1,0.13-0.16,0.16-0.22
		c0.03-0.03,0.03-0.03,0.06-0.06c0.03-0.03,0.06-0.06,0.06-0.1c-0.03,0.03-0.1,0.1-0.16,0.16c-0.03,0.03-0.1,0.1-0.13,0.13
		c-0.03,0.03-0.06,0.06-0.1,0.1c-0.16,0.13-0.32,0.32-0.55,0.48c-0.19,0.19-0.45,0.38-0.74,0.58c-0.26,0.19-0.58,0.42-0.9,0.61
		c-0.35,0.19-0.68,0.42-1.06,0.61c-0.19,0.1-0.38,0.19-0.58,0.29c-0.19,0.1-0.42,0.16-0.61,0.26l-0.32,0.13l-0.32,0.1l-0.64,0.22
		c-0.42,0.13-0.87,0.22-1.28,0.35c-0.45,0.06-0.87,0.16-1.28,0.22c-0.42,0.03-0.8,0.1-1.19,0.13c-0.38,0.03-10.12,0.51-17.11-3.6
		c0.51-0.03,1.12-0.03,1.44-0.06c0.45,0,0.8,0,1.06-0.06c0.1,0.03,0.26,0.06,0.42,0.1c0.38,0.1,0.93,0.19,1.61,0.29
		c0.32,0.03,0.71,0.1,1.09,0.13c0.38,0.03,0.8,0.06,1.22,0.1s0.87,0.03,1.32,0.03c0.45,0,0.9-0.03,1.35-0.03
		c0.45-0.03,0.9-0.06,1.35-0.13c0.45-0.06,0.87-0.13,1.28-0.22c0.42-0.1,0.8-0.16,1.19-0.29c0.35-0.13,0.71-0.22,1.03-0.35
		s0.58-0.26,0.84-0.38c0.26-0.13,0.45-0.26,0.61-0.35c0.32-0.19,0.51-0.32,0.51-0.32s-0.22,0.06-0.58,0.16
		c-0.19,0.03-0.38,0.13-0.68,0.19c-0.26,0.06-0.55,0.13-0.87,0.19c-0.32,0.06-0.68,0.1-1.03,0.16c-0.35,0.06-0.77,0.06-1.15,0.1
		c-0.38,0.03-0.8,0.03-1.25,0.06c-0.42,0-0.87,0-1.28,0c-0.42-0.03-0.87-0.03-1.28-0.06c-0.42-0.03-0.84-0.06-1.25-0.1
		c-0.8-0.06-1.54-0.19-2.18-0.26c-0.64-0.1-1.15-0.16-1.54-0.26c-0.22-0.03-0.38-0.06-0.48-0.1c-0.16-0.1-0.35-0.13-0.48-0.16
		c-1.61-0.42-6.87-3.98-8.8-5.72c0.68,0.13,1.57,0.35,2.47,0.64c0,0,2.21,1.12,2.99,1.38c0.77,0.26,1.38,0.38,1.83,0.48
		c0.42,0.06,0.68,0.06,0.68,0.06s-0.19-0.16-0.55-0.38c-0.35-0.26-0.87-0.61-1.54-1c-0.68-0.42-3.08-1.9-3.15-1.93
		c-0.68-0.48-1.38-1.03-1.99-1.7c-0.19-0.22-0.38-0.48-0.51-0.74l-0.13-0.19l-0.03-0.06l-0.06-0.13c0-0.03-0.03-0.1-0.03-0.13
		c0-0.03,0-0.03,0-0.06c0,0,0,0,0-0.03c0.03,0,0.1-0.03,0.16-0.03c0.26-0.03,0.61,0,0.96,0.06c1.41,0.26,5.97,2.02,6.42,2.18
		c0.22,0.06,0.48,0.19,0.74,0.26c0.26,0.1,0.55,0.19,0.84,0.26c0.29,0.1,0.58,0.16,0.9,0.22c0.29,0.06,0.61,0.13,0.93,0.19
		c0.32,0.06,0.64,0.1,0.96,0.13c0.32,0.03,0.61,0.06,0.93,0.06c0.29,0,0.61,0.03,0.87,0c0.29,0,0.55-0.03,0.77-0.03
		c0.22-0.03,0.45-0.06,0.64-0.1c0.19-0.03,0.35-0.1,0.48-0.13c0.26-0.06,0.42-0.13,0.42-0.13s-0.16-0.03-0.42-0.06
		c-0.13-0.03-0.29-0.03-0.48-0.06c-0.19-0.03-0.38-0.06-0.61-0.13c-0.22-0.06-0.48-0.13-0.71-0.16c-0.26-0.06-0.51-0.13-0.8-0.19
		c-0.26-0.06-0.55-0.16-0.84-0.22c-0.29-0.1-0.58-0.19-0.87-0.26c-0.29-0.1-0.58-0.19-0.87-0.29s-0.58-0.19-0.84-0.29
		c-0.55-0.19-1.03-0.35-1.48-0.51c-0.42-0.16-0.8-0.29-1.03-0.35c-0.03,0-0.06-0.03-0.1-0.03l-0.03-0.03l-0.06-0.1
		c-0.16-0.16-0.32-0.32-0.48-0.48c-0.29-0.29-0.61-0.61-0.93-0.9c-0.61-0.61-1.22-1.22-1.83-1.86c-0.61-0.64-1.19-1.31-1.7-1.99
		c-0.26-0.32-0.51-0.68-0.71-1.03c0-0.03-0.03-0.03-0.03-0.06c0.22,0.1,0.42,0.19,0.64,0.32c0.77,0.42,1.51,0.87,2.25,1.35
		l0.58,0.35l0.29,0.19c0.13,0.06,0.19,0.13,0.38,0.19l0.06,0.03c0,0,0,0,0.03,0c0.1,0.1,0.22,0.16,0.35,0.26
		c0.16,0.1,0.35,0.22,0.55,0.35c0.19,0.13,0.38,0.26,0.61,0.38c0.22,0.13,0.45,0.26,0.68,0.35c0.22,0.13,0.48,0.22,0.74,0.35
		c0.51,0.19,1,0.38,1.51,0.51c0.26,0.06,0.48,0.13,0.71,0.16c0.22,0.03,0.45,0.06,0.64,0.1c0.19,0,0.38,0.03,0.55,0.03
		s0.29,0,0.42,0c0.22,0,0.35-0.03,0.35-0.03s-0.13-0.03-0.35-0.1c-0.1-0.03-0.26-0.03-0.38-0.1c-0.16-0.06-0.32-0.1-0.51-0.16
		c-0.19-0.06-0.38-0.16-0.58-0.22c-0.19-0.1-0.42-0.19-0.61-0.29c-0.19-0.1-0.42-0.22-0.64-0.35c-0.22-0.13-0.42-0.26-0.64-0.42
		c-0.19-0.16-0.42-0.29-0.61-0.42c-0.19-0.16-0.38-0.29-0.58-0.45c-0.35-0.26-0.68-0.55-0.96-0.77c0.03-0.16-0.03-0.29-0.03-0.32
		c-0.06-0.19-0.1-0.22-0.13-0.32c-0.06-0.13-0.13-0.22-0.19-0.32l-0.38-0.58c-0.48-0.71-1-1.44-1.44-2.12
		c-0.74-1.09-1.48-2.18-2.09-3.21c0.13,0.1,0.26,0.22,0.38,0.32c1.03,0.87,1.93,1.7,2.79,2.44c0.84,0.74,1.61,1.31,2.34,1.74
		c0.71,0.42,1.35,0.64,1.83,0.71c0.22,0.03,0.42,0.03,0.55,0.03c0.06,0,0.1-0.03,0.13-0.03c0.03,0,0.03,0,0.03,0
		s-0.22-0.1-0.51-0.38c-0.32-0.29-0.71-0.74-1.25-1.28c-0.55-0.55-1.22-1.22-2.06-1.93c-0.13-0.1-0.22-0.22-0.35-0.32
		c-0.42-0.77-0.74-1.57-0.84-2.02c0.03,0,0.1,0.03,0.13,0.06c1.19,0.45,2.09,1.19,2.79,1.8c0.87,0.71,1.51,1.25,2.34,1.15
		c0.32-0.03,0.58-0.19,0.71-0.48c0.32-0.68-0.19-1.64-1.54-3.85c-0.32-0.55-0.58-0.74-0.84-1.03v-0.1v-0.26v-0.16c0,0,0-0.06,0-0.22
		l-0.03-0.55c0-0.32-0.03-0.64-0.03-0.96c0.26,0.45,0.51,0.9,0.77,1.35c0.58,1,1.09,1.99,1.64,2.96c0.55,0.96,1.03,1.93,1.61,2.86
		c0.29,0.48,0.58,0.9,1,1.38c0.06,0.06,0.13,0.13,0.19,0.19c0.1,0.06,0.16,0.16,0.38,0.26c0.03,0.03,0.16,0.06,0.22,0.06
		c0.03,0,0.13,0,0.19,0s0.13,0,0.22-0.03c0.06-0.03,0.1-0.06,0.16-0.1c0.61,0.42,1.22,0.87,1.8,1.25c1.57,1.03,3.08,1.86,4.56,2.44
		c0.74,0.29,1.44,0.51,2.15,0.64c0.68,0.13,1.28,0.19,1.86,0.22c0.58,0.03,1.09,0,1.57-0.06c0.48-0.06,0.9-0.19,1.25-0.38
		c0.61-0.35,1.19-1.35,1.19-1.35l-1.64-0.03c1.41-1.51,3.56-3.24,5.26-4.62c1.28-1.03,2.28-1.86,2.76-2.37
		c0.19-0.19,0.64-0.71,0.35-1.25c-0.29-0.55-0.87-0.45-1.32-0.38c-0.1,0-0.22,0.03-0.35,0.03c0.03-0.1,0.13-0.26,0.22-0.45
		c1.12-1.96,4.17-3.66,5.75-4.4c0.03,0.13,0.06,0.29,0.1,0.42c0.1,0.29,0.26,0.61,0.51,0.96c-0.13,0.19-0.32,0.38-0.51,0.64
		c-0.51,0.68-1.19,1.64-1.77,2.6c-0.16,0.26-0.29,0.48-0.45,0.74c-0.13,0.26-0.29,0.48-0.38,0.71c-0.13,0.22-0.26,0.45-0.35,0.68
		c-0.1,0.22-0.19,0.42-0.29,0.61c-0.16,0.38-0.29,0.71-0.38,0.96c0,0.03-0.03,0.06-0.03,0.1c0,0.04-0.03,0.03-0.03,0.06
		c0,0.02-0.01,0.04-0.02,0.07c0.03-0.05,0.06-0.11,0.11-0.2c0.13-0.22,0.29-0.51,0.51-0.87c0.1-0.19,0.26-0.35,0.38-0.58
		c0.13-0.19,0.29-0.38,0.45-0.61c0.16-0.22,0.32-0.42,0.48-0.64c0.16-0.22,0.35-0.42,0.55-0.64c0.71-0.84,1.51-1.64,2.09-2.21
		c0.16-0.16,0.32-0.32,0.45-0.42c2.09,2.12,6.39,4.72,12.46,5.46c0,0.03-0.03,0.1-0.03,0.13c-0.16,0.61-0.35,1.44-0.51,2.25
		c-0.16,0.84-0.29,1.64-0.38,2.28c-0.1,0.61-0.16,1.03-0.16,1.03s0.55-1.57,1.19-3.08c0.32-0.77,0.68-1.51,0.96-2.06
		c0.1-0.16,0.16-0.32,0.22-0.45c0.68,0.06,1.38,0.06,2.09,0.06c1.06,0,2.18-0.06,3.31-0.19c0,0,0,0,0,0.03
		c0.03,0.06,0.1,0.13,0.16,0.26c0.22,0.38,0.51,1.03,0.74,1.9c0.13,0.42,0.22,0.93,0.32,1.48
		C161.44,201.52,161.48,201.81,161.54,202.1z M162.66,192.01c-0.06,0.16-0.55,0.87-3.56,1.09c-4.79,0.35-16.47-5.55-16.95-7.93
		c0-0.06-0.03-0.16,0.19-0.29c1.96,1.28,12.17,7.58,20.36,7.03C162.7,191.95,162.66,191.98,162.66,192.01z M164.11,171.27
		c0.03,0.16,0.06,0.32,0.1,0.45l0.06,0.26c0.03,0.22,0.29,0.51,0.55,0.58c0.26,0.06,0.55,0,0.74-0.19c0.16-0.16,0.16-0.22,0.19-0.29
		v-0.03l0.03-0.06c0.22-0.61,0.42-1.19,0.61-1.74c0.42-1.12,0.77-2.21,1.09-3.27c0.03-0.13,0.06-0.22,0.1-0.35
		c0.06,0.29,0.16,0.61,0.19,0.9c0.32,1.48,0.45,2.67,0.51,3.47c0.03,0.38,0.03,0.71,0.03,0.9c-0.06,0.13-0.13,0.26-0.16,0.35
		c-0.19,0.42-0.38,0.77-0.48,1c0,0.03-0.03,0.06-0.03,0.1c-0.03,0.03-0.03,0.1-0.06,0.13c0,0.03,0,0.03-0.03,0.06
		c0,0,0,0.03-0.03,0.03c-0.03,0.03-0.03,0.06-0.03,0.06c0.03-0.03,0.13-0.1,0.29-0.26c0.19-0.16,0.48-0.45,0.8-0.8
		c0.32-0.35,0.68-0.84,1.03-1.44c0.32-0.55,0.61-1.22,0.87-1.99c0.1,0.45,0.19,0.87,0.29,1.32c0.06,0.48,0.19,1,0.22,1.48
		c0.03,0.26,0.06,0.51,0.1,0.77c0.03,0.26,0.03,0.51,0.06,0.77c0.06,1.03,0.03,2.09-0.06,3.15c-0.1,1.06-0.29,2.09-0.58,3.08
		c-0.26,1-0.64,1.96-1.03,2.83c-0.42,0.9-0.87,1.7-1.38,2.47c-0.48,0.77-1,1.44-1.51,2.06c-1,1.22-1.99,2.09-2.7,2.7
		c-0.35,0.29-0.64,0.51-0.84,0.64c-0.06,0.03-0.13,0.1-0.16,0.1c-7.51,0.71-17.4-5.26-19.65-6.68c0.06-0.19,0.13-0.42,0.22-0.74
		c0.22-0.84,0.51-2.09,0.55-3.73c0-0.8-0.1-1.74-0.32-2.7c-0.38-1.54-1.19-2.76-1.19-2.76s-1.32-2.21-1.48-5.01
		c0.19,0.32,0.38,0.61,0.61,0.93c0.48,0.64,3.08,2.92,4.05,2.34c0.1-0.06,0.13-0.16,0.19-0.26c0.03-0.06-0.13-0.68-0.26-1.22
		c-0.16-0.71-0.29-1.44-0.38-2.18c-0.16-1.77-0.29-4.72,0.74-5.62v-0.03c0,10.63,1.96,7.22,2.02,7.19c0,0,2.15-2.79,2.44-3.05
		c0.48-0.48,1.03-0.9,1.57-1.25c-0.42,0.87-0.55,1.74-0.61,2.6c-0.06,0.96,0,1.9,0.19,2.83c0.06,0.22,0.1,0.48,0.19,0.71
		c0.1,0.26,0.16,0.48,0.35,0.8c0.06,0.06,0.13,0.19,0.26,0.29c0.03,0.03,0.06,0.06,0.13,0.1s0.1,0.06,0.16,0.1
		c0.13,0.06,0.29,0.1,0.48,0.06c0.1,0,0.16-0.03,0.22-0.06c0.06-0.03,0.13-0.06,0.16-0.1c0.1-0.06,0.16-0.16,0.19-0.19
		c0.1-0.13,0.13-0.22,0.19-0.29c0.13-0.32,0.19-0.58,0.22-0.84l0.1-0.64c0.03-0.19,0.06-0.38,0.13-0.61c0.1-0.38,0.19-0.8,0.32-1.19
		c0.26-0.8,0.55-1.57,0.9-2.31c0.13-0.26,0.26-0.51,0.38-0.74c0,0.19,0.03,0.38,0.06,0.55c0.1,0.9,0.32,1.77,0.61,2.6
		c0.29,0.84,0.64,1.64,1.25,2.37c0.16,0.19,0.32,0.38,0.58,0.55c0.22,0.16,0.58,0.35,1.03,0.35c0.22,0,0.45-0.1,0.61-0.19
		c0.06-0.06,0.16-0.1,0.22-0.16s0.13-0.13,0.16-0.19c0.06-0.06,0.1-0.13,0.16-0.19l0.06-0.1c0.03-0.03,0.03-0.03,0.03-0.06
		l0.06-0.13l0.03-0.03c0.03-0.1,0.03-0.03,0.03-0.06l0.03-0.06c0.35-0.84,0.51-1.67,0.61-2.47c0.13-0.8,0.16-1.57,0.26-2.31
		c0.03-0.32,0.06-0.61,0.13-0.9c0.03,0.03,0.06,0.06,0.1,0.13c0.19,0.26,0.35,0.55,0.48,0.84c0.58,1.19,1,2.5,1.32,3.73
		C163.95,170.63,164.01,170.95,164.11,171.27z M198.63,85.64c-0.22,0-0.42,0-0.64,0.03c-1.35,0.03-2.73,0.1-3.5-0.26
		c-0.9-0.42-1.96,0.19-3.24,0.93c-1,0.58-2.12,1.22-3.43,1.64c-1.8,0.55-3.66,1.54-5.33,2.44c-1.19,0.64-2.31,1.22-3.11,1.51
		c-2.09,0.71-3.6,1.67-4.3,2.63c-0.51,0.71-10.12,10.66-11.08,11.4c-0.93,0.71-3.43,3.31-3.76,5.36c-0.1,0.55,0.13,2.86,0.64,8.47
		c1.03,10.82,2.86,30.28,2.83,45.72c-0.1-0.19-0.22-0.35-0.32-0.55c-0.06-0.1-0.13-0.16-0.19-0.26l-0.1-0.13l-0.06-0.06l-0.03-0.03
		l-0.03-0.06c-0.1-0.1-0.29-0.35-0.71-0.51c-0.06-0.03-0.13-0.03-0.19-0.06c-0.06,0-0.16-0.03-0.22,0c-0.16,0-0.35,0.06-0.48,0.16
		c-0.13,0.06-0.22,0.19-0.29,0.26c-0.03,0.03-0.06,0.1-0.1,0.13l-0.06,0.1c-0.13,0.29-0.19,0.51-0.22,0.71
		c-0.1,0.42-0.13,0.8-0.16,1.19c-0.1,0.77-0.13,1.51-0.26,2.25c-0.1,0.74-0.26,1.48-0.51,2.09l-0.03,0.06l-0.06,0.13
		c0,0.03-0.03,0.06-0.03,0.06l-0.03,0.03l-0.03,0.03c0,0-0.03-0.03-0.06-0.03c-0.1-0.06-0.19-0.16-0.29-0.29
		c-0.42-0.51-0.74-1.25-1-1.96c-0.26-0.74-0.45-1.51-0.55-2.25c-0.03-0.38-0.06-0.77-0.03-1.12l0.03-0.32c0-0.16,0-0.29-0.03-0.45
		l-0.03-0.13c0-0.06-0.03-0.13-0.03-0.16c-0.03-0.1-0.13-0.29-0.26-0.42c-0.1-0.1-0.22-0.19-0.35-0.22
		c-0.13-0.03-0.29-0.06-0.42-0.03c-0.1,0.03-0.19,0.03-0.26,0.06c-0.1,0.03-0.13,0.06-0.16,0.1c-0.13,0.06-0.16,0.13-0.22,0.16
		c-0.06,0.06-0.1,0.1-0.16,0.16c-0.1,0.1-0.19,0.19-0.26,0.29c-0.16,0.19-0.29,0.38-0.38,0.61c-0.26,0.38-0.45,0.8-0.64,1.19
		c-0.38,0.8-0.71,1.64-1,2.5c-0.1,0.35-0.19,0.68-0.29,1.03c-0.03-0.45-0.06-0.93-0.03-1.38c0.06-0.8,0.19-1.61,0.55-2.18l0.16-0.29
		c0.03-0.03,0.06-0.13,0.1-0.19c0.03-0.06,0.06-0.13,0.1-0.19l0.1-0.22c0.03-0.1,0.06-0.19,0.06-0.26s0-0.13,0.03-0.19
		c0-0.06,0-0.1,0-0.19s-0.03-0.16-0.06-0.26c-0.03-0.1-0.1-0.22-0.16-0.29c-0.06-0.1-0.16-0.16-0.26-0.22
		c-0.1-0.06-0.16-0.1-0.26-0.13c-0.1-0.03-0.16-0.03-0.22-0.03s-0.16,0-0.19,0c-0.22,0-0.38,0.06-0.51,0.1
		c-0.26,0.06-0.48,0.19-0.68,0.29c-0.16-6.23-0.87-31.79-3.4-51.12c0,0-1.38-12.75-3.82-18.11c-3.4-7.54-6.87-15.6-10.02-21.93
		c-3.27-6.65-6.13-12.36-6.23-14.61c-0.1-2.21,1.61-5.23,4.24-6.26c2.79-1.06,5.91,0.32,8.99,4.01
		c7.71,9.31,16.09,39.98,16.41,44.98v0.22l0.16,0.19c0.1,0.13,0.96,1.09,2.18,1.19c0.71,0.03,1.38-0.22,1.96-0.77
		c0.68-0.64,3.34-2.73,5.91-4.79c6.29-4.98,7.03-5.59,7-6.1c0.19-0.45,1.06-1.64,1.54-1.83c0.51-0.19,1.32-1,3.37-2.99
		c1.54-1.48,3.24-3.18,4.49-4.11c1.35-1,3.05-1.61,4.4-2.12c1.22-0.45,1.99-0.71,2.37-1.19c0.51-0.61,4.62-4.27,7.9-4.69
		c1.83-0.22,4.4,1.41,6.2,2.89c0,0,1.8,1.64,1.93,1.96c0.06,0.1,0.16,0.26,0.16,0.32c-0.13-0.13-0.32-0.26-0.45-0.38
		c-0.8-0.68-1.61-1.32-2.21-1.77c-0.55-0.42-0.96-0.71-1.03-0.74c0.06,0.06,0.42,0.42,0.87,0.9c0.51,0.55,1.22,1.32,1.86,2.09
		c0.16,0.19,0.32,0.38,0.45,0.58c0.16,0.19,0.29,0.38,0.38,0.58l0.06,0.13c0,0.03,0.03,0.1,0.03,0.1v0.03
		c0,0.06-0.03,0.19-0.06,0.22c-0.03,0.06-0.06,0.1-0.1,0.13c-0.16,0.19-0.38,0.32-0.55,0.42c-0.32-0.51-0.64-0.93-0.96-1.32
		c-0.35-0.42-0.68-0.8-1.03-1.12c-0.32-0.32-0.64-0.61-0.93-0.87c-0.29-0.26-0.55-0.45-0.77-0.61c-0.45-0.32-0.71-0.48-0.71-0.48
		s0.16,0.26,0.48,0.71c0.16,0.22,0.35,0.48,0.58,0.77c0.22,0.29,0.48,0.64,0.77,1c0.29,0.35,0.61,0.74,0.93,1.15
		c0.32,0.42,0.64,0.87,0.87,1.35c0.06,0.13,0.13,0.22,0.16,0.35c0.03,0.06,0.03,0.13,0.06,0.16l0.03,0.06v0.03c0,0,0,0.03,0,0.1
		v0.03v0.03c0,0.03-0.03,0.1-0.03,0.13c-0.03,0.03-0.03,0.06-0.06,0.13c-0.03,0.03-0.06,0.06-0.06,0.1
		c-0.13,0.13-0.29,0.19-0.55,0.26c-0.22,0.03-0.51,0.03-0.77,0c-0.26-0.03-0.55-0.1-0.8-0.19c-0.13-0.03-0.26-0.1-0.38-0.13
		c-0.1-0.03-0.29-0.13-0.38-0.19c-0.16-0.1-0.48-0.35-0.48-0.35c-0.22-0.22-0.45-0.48-0.64-0.71c-0.35-0.42-0.64-0.9-0.93-1.35
		c-0.16-0.22-0.29-0.45-0.55-0.71c-0.03-0.03-0.1-0.06-0.13-0.1c-0.06-0.03-0.1-0.06-0.29-0.1c-0.03,0-0.06,0-0.13,0
		c-0.03,0-0.03,0-0.03,0h-0.03l-0.1,0.03l-0.1,0.03c-0.13,0.06-0.22,0.1-0.35,0.16c-0.45,0.19-0.84,0.45-1.12,0.77
		c-0.06,0.1-0.16,0.16-0.19,0.29c0,0.03-0.03,0.06-0.03,0.1c-0.03,0.03-0.03,0.1-0.03,0.16s0,0.06,0,0.1v0.03v0.06l0.03,0.06
		c0.06,0.13,0.13,0.16,0.16,0.19c0.03,0.03,0.1,0.06,0.13,0.06c0.06,0.03,0.16,0.06,0.22,0.1c0.06,0.03,0.13,0.03,0.16,0.06
		c-0.03,0.93-0.03,2.21-0.03,3.73C198.79,85.64,198.69,85.64,198.63,85.64z M199.04,93.25c0.13,2.02,0.29,4.17,0.58,6.23
		c-0.19,0.16-0.45,0.35-0.68,0.58c-0.26,0.22-0.51,0.45-0.71,0.61c-0.06,0.03-0.1,0.1-0.13,0.13c-0.22,0.1-0.55,0.19-0.84,0.26
		c-0.35,0.1-0.71,0.19-1.06,0.26c-0.29,0.06-0.84,0.1-1.32,0.22c-0.26,0.1-0.51,0.19-0.77,0.35c-0.26,0.16-0.48,0.42-0.61,0.68
		c-0.29,0.48-0.38,0.93-0.51,1.35c-0.1,0.42-0.22,0.8-0.32,1.19c-0.03,0.1-0.06,0.19-0.1,0.29c-0.03,0.1-0.06,0.16-0.1,0.22
		c-0.06,0.16-0.16,0.29-0.26,0.42c-0.19,0.26-0.42,0.48-0.68,0.68c-0.42,0.29-0.8,0.48-1.15,0.58c-0.19-0.16-0.35-0.35-0.48-0.58
		C188.48,104.13,192.04,98.35,199.04,93.25z M184.75,110.59c-1.67-2.96,1.74-8.35,8.03-13.71c-3.76,4.05-5.49,8.03-4.05,10.56
		c0.42,0.74,1.06,1.28,1.93,1.67l-3.05,3.37C186.26,112.16,185.27,111.52,184.75,110.59z M192.14,109.59
		c0.68,0.13,1.41,0.19,2.25,0.19c0.96,0,2.02-0.1,3.18-0.29c0.74-0.13,1.12-0.19,1.93-0.38c0.1,0.16,0.93,0.64,0.93,0.64
		s0.19-0.77,0.19-0.93c1.28-0.32,2.25-0.64,3.6-1.15c0.13,0.1,0.87,0.48,0.87,0.48s-0.06-0.68-0.1-0.8c2.34-0.9,4.62-1.99,7-3.34
		c2.12-1.19,4.17-2.47,6.07-3.82l2.21,0.22c-2.37,1.8-5.04,3.53-7.9,5.17c-8.83,4.98-17.72,7.54-23.05,7.13L192.14,109.59z
		 M189.35,114.15c0.42,0.03,0.84,0.03,1.28,0.03c5.72,0,13.94-2.57,22.41-7.32c3.24-1.83,6.2-3.79,8.8-5.81l3.37,7
		c-1.57,1.25-3.34,2.54-5.42,3.82c-10.95,6.87-21.96,8.35-26.01,8.67L189.35,114.15z M195.64,126.39c-0.9-0.84-2.67-2.83-2.86-4.33
		c3.02-0.16,15.41-1.22,27.71-8.96c2.02-1.25,3.76-2.5,5.3-3.73l2.5,5.23c-4.11,3.24-8.89,6.32-13.48,8.09
		C205.3,126.39,197.15,126.42,195.64,126.39z M198.59,127.73c3.6-0.22,9.73-1,16.73-3.69c4.05-1.57,8.96-4.53,13.58-8.16l3.73,7.8
		c-1.9,1.67-4.05,3.21-6.39,4.43c-7.93,4.05-18.98,6.36-22.61,7.03L198.59,127.73z M203.34,137.65l-0.13-0.35
		c-0.1-0.26-0.13-0.45-0.19-0.61c2.34-0.42,14.96-2.76,23.86-7.32c2.34-1.19,4.49-2.73,6.39-4.33l2.76,5.78
		c-9.09,8.25-25.88,10.24-27.81,10.43C204.6,141.64,203.99,139.71,203.34,137.65z M213.2,149.12l-4.46-6.52
		c3.08-0.35,18.85-2.54,27.93-10.47l3.79,7.9C234.1,145.23,224.95,148.28,213.2,149.12z M247.75,129.88
		c-0.26,0.93-1.57,5.04-6.17,9.18l-3.82-7.96c4.3-4.27,6.29-7.07,7.13-8.8L247.75,129.88z"/>
</g>
</svg>
