<?xml version="1.0" encoding="utf-8"?>
<!-- Generator: Adobe Illustrator 23.0.1, SVG Export Plug-In . SVG Version: 6.00 Build 0)  -->
<svg version="1.1" id="Layer_1" xmlns="http://www.w3.org/2000/svg" xmlns:xlink="http://www.w3.org/1999/xlink" x="0px" y="0px"
	 viewBox="0 0 300 300" style="enable-background:new 0 0 300 300;" xml:space="preserve">
<style type="text/css">
	.st0{fill-rule:evenodd;clip-rule:evenodd;fill:#010101;}
	.st1{fill:#010101;}
	.st2{fill-rule:evenodd;clip-rule:evenodd;fill:#FAE9C8;}
	.st3{fill:#FAE9C8;}
	.st4{fill-rule:evenodd;clip-rule:evenodd;fill:#FBD735;}
	.st5{fill:#FBD735;}
	.st6{fill-rule:evenodd;clip-rule:evenodd;fill:#FFFFFF;}
	.st7{fill:#FFFFFF;}
	.st8{fill-rule:evenodd;clip-rule:evenodd;fill:#0268A3;}
	.st9{fill:#0268A3;}
	.st10{fill-rule:evenodd;clip-rule:evenodd;fill:#F4A58E;}
	.st11{fill:#F4A58E;}
	.st12{fill-rule:evenodd;clip-rule:evenodd;fill:#E82A35;}
	.st13{fill:#E82A35;}
</style>
<g>
	<path class="st0" d="M226.9,105.84c0.46,2.81,3.51,12.86-3.27,16.83c2.1,4.44-3.51,7.71-5.84,8.42
		c4.67,19.64-7.71,43.25-16.83,41.62c-6.31-1.17-5.14-6.78-5.84-7.02c-3.51-1.64-8.65-1.4-10.05,0.46c0.7,0.94,1.63,1.87,2.1,2.81
		c2.34-0.46,3.97,0.23,5.38,2.81c1.64,3.27,2.34,8.65,0,12.16c9.11,9.59,5.84,25.25,2.1,36.47l-0.23,0.94c0,0,0.23-0.24,0.7-0.46
		c5.38-2.81,16.36-5.84,21.51-1.87c7.71,6.31,1.63,22.44-10.99,24.31c3.74,2.34,3.04,7.24,1.64,9.11
		c4.44,6.31-2.81,12.39-10.52,11.46c-12.39,7.02-29.69,3.74-39.98-5.14c-3.97-3.74-8.88-7.71-8.65-13.33
		c-1.87-1.17-3.97-0.23-5.38,0.94c1.17,7.71-9.59,10.29-11.46,13.33c-3.97,3.04-13.09,18.94-27.82,14.73
		c-4.44,0.94-9.11,2.81-13.8,0.94c-3.97-1.4-6.08-4.91-4.91-9.11c-2.34-2.1-3.04-4.91-3.04-8.18c-3.97,0.46-15.89,0-16.36-7.48
		c-0.94-14.26,33.43-13.8,51.89-24.55c8.18-4.67,18.94-11.69,27.36-20.11c-0.7-3.51,0.7-6.78,1.4-10.05
		c-1.64-0.46-3.27-2.34-3.51-3.74c-0.46-4.21,3.51-5.84,4.21-10.29c-6.31,0.7-11.22,7.71-13.33,13.33c1.4,2.34,2.57,5.14,1.4,8.42
		c-2.1,5.84-22.67,7.71-40.21-20.8c-3.74,1.87-6.31,3.51-8.42,1.87c-1.87-1.4-3.04-1.4-3.74-1.64c-7.02,0.24-16.36-4.91-20.8-10.99
		c-1.87-2.57-1.87-5.84-1.4-7.71c-0.46-1.17-1.64-2.1-1.87-4.21c-0.46-2.81,3.04-6.08,4.44-9.59c-0.94-1.17-0.94-1.4-4.67-3.97
		c-1.4-0.94-3.27-3.97-0.46-7.48c2.57-3.51,9.11-2.1,12.86,2.34c2.57,3.27,4.21,7.24,6.31,10.05c2.34,2.57,6.08,3.97,8.88,2.1
		c2.1-10.99,10.29-14.49,16.6-15.43c0-5.61,2.1-10.75,2.81-13.33c-10.99-2.57-15.2-16.36-7.02-24.55
		c-1.87-7.24-3.74-16.6-3.74-30.63c0-13.09-1.17-23.85,4.44-24.78c10.05-1.87,12.86,20.11,18.71,28.29
		c3.51,5.38,20.8,20.34,27.36,25.01c6.78,0.46,14.02,2.1,17.53,9.11c2.57,4.67-0.46,9.35-0.46,10.05c2.81,3.04,3.51,4.68,4.21,6.55
		c0,0.23,1.17-0.7,1.17-0.7s0-0.46-0.94-1.4c-1.87-3.04-2.81-10.29,1.87-11.69c6.08-1.87,10.52,7.24,9.11,13.33
		c1.4,0.94,4.44,5.15,4.21,10.52c-0.24,4.91-1.87,10.52-7.71,16.36c0.46,0.23,1.4,0.7,1.64,0.7c3.27-1.87,19.87-13.8,21.27-17.77
		c-0.7-6.31,3.04-11.92,8.65-13.56c-3.74-8.88-9.11-18.94-4.67-29.46l-29.92-23.14l-1.4,6.31l-5.38-7.24
		c-0.23,0-7.95,1.17-7.95,1.17s3.74-6.31,3.74-6.55c0,0.23-3.97-7.95-3.74-7.95c-0.23,0,8.18,1.64,8.18,1.64l4.68-5.61l1.87,8.18
		l8.65,2.81c-0.23,0-6.08,3.51-6.08,3.51l29.92,21.27c3.04-1.64,4.67-2.34,7.71-1.64c4.21,0.94,6.08,5.38,6.31,5.84
		c4.44,0.46,6.08,2.81,7.02,6.08c1.4-0.46,4.21-4.21,7.02-4.44c5.38-0.24,5.84,7.24,3.97,10.05
		C232.98,103.74,230.17,105.14,226.9,105.84L226.9,105.84z"/>
	<path class="st1" d="M94.02,276.13c-1.44,0-2.89-0.22-4.34-0.8c-4.12-1.45-6.04-5.03-4.91-9.11c-2.1-1.89-3.04-4.42-3.04-8.18
		c-2.38,0.3-10.07,0.34-14.03-2.97c-1.44-1.19-2.22-2.71-2.33-4.5c-0.26-3.96,2.12-7.04,7.51-9.66c4.81-2.34,11.45-4.05,18.47-5.87
		c9.19-2.37,18.69-4.81,25.92-9.03c7.71-4.41,18.72-11.47,27.36-20.11c-0.53-2.65,0.15-5.19,0.8-7.65c0.21-0.79,0.43-1.61,0.6-2.4
		c-1.71-0.49-3.29-2.41-3.51-3.75c-0.25-2.29,0.81-3.83,1.94-5.45c0.96-1.38,1.95-2.81,2.27-4.83c-6,0.67-11.02,7.18-13.33,13.33
		c1.29,2.14,2.61,5.03,1.4,8.42c-0.66,1.81-3.03,3.14-6.2,3.46c-0.17,0.02-0.35,0.04-0.54,0.04c0.18-0.02,0.36-0.03,0.54-0.04
		c3.18-0.32,5.55-1.65,6.2-3.46c1.2-3.38-0.12-6.27-1.4-8.42c2.31-6.16,7.32-12.66,13.33-13.33c-0.32,2.03-1.31,3.46-2.27,4.83
		c-1.13,1.62-2.19,3.16-1.94,5.45c0.22,1.33,1.8,3.25,3.51,3.75c-0.17,0.8-0.39,1.61-0.6,2.4c-0.66,2.46-1.33,5-0.81,7.65
		c-8.63,8.63-19.64,15.7-27.36,20.11c-7.23,4.21-16.73,6.66-25.92,9.03c-7.02,1.81-13.66,3.52-18.47,5.87
		c-5.38,2.62-7.77,5.69-7.51,9.66c0.11,1.79,0.89,3.31,2.33,4.5c3.96,3.31,11.66,3.25,14.03,2.97c0,3.77,0.94,6.29,3.04,8.18
		c-1.13,4.08,0.79,7.67,4.91,9.11c3.79,1.52,7.57,0.58,11.23-0.33c0.84-0.21,1.71-0.42,2.56-0.6c1.7,0.49,3.33,0.7,4.89,0.7
		c9.07,0,15.6-7.42,19.75-12.13c1.32-1.49,2.35-2.66,3.18-3.3c0.6-0.98,2.11-1.9,3.87-2.97c3.74-2.28,8.38-5.12,7.59-10.35
		c0.04-0.04,0.09-0.07,0.15-0.12c-0.05,0.04-0.1,0.08-0.15,0.12c0.79,5.23-3.85,8.07-7.59,10.35c-1.75,1.07-3.27,1.99-3.87,2.97
		c-0.83,0.64-1.87,1.81-3.18,3.31c-4.86,5.52-13,14.76-24.64,11.42c-0.85,0.18-1.72,0.39-2.56,0.61
		C98.65,275.55,96.35,276.13,94.02,276.13z M181.43,267.67c-1.8,0-3.62-0.13-5.46-0.4c-7.24-1.06-14.06-4.1-19.2-8.53
		c-0.26-0.25-0.52-0.49-0.79-0.73c-3.87-3.61-7.87-7.34-7.87-12.59c-0.35-0.22-1.29-0.68-2.61-0.46c0.82-0.16,1.73-0.1,2.61,0.46
		c0,5.25,4,8.98,7.87,12.59c0.26,0.25,0.53,0.49,0.78,0.74c5.14,4.44,11.96,7.47,19.2,8.53c7.58,1.11,14.95-0.1,20.78-3.39
		c4.49,0.54,9.11-1.35,11.01-4.51c1.31-2.18,1.13-4.65-0.49-6.95c0.76-1.01,1.4-3.08,1.01-5.19c-0.32-1.68-1.23-3.03-2.65-3.92
		c7.47-1.1,12.34-7.12,13.85-12.59c1.32-4.79,0.25-9.17-2.86-11.73c-2.89-2.22-7.39-2.1-10.66-1.61c-4.33,0.66-8.44,2.22-10.84,3.48
		c-0.46,0.23-0.7,0.46-0.7,0.46l0.23-0.94c2.41-7.24,3.65-13.41,3.77-18.85c0.17-7.42-1.81-13.35-5.88-17.62
		c0.92-1.38,1.51-3.46,1.51-5.78c0.03,2.09-0.42,4.15-1.51,5.78c4.06,4.27,6.04,10.2,5.88,17.62c-0.12,5.44-1.35,11.6-3.77,18.85
		l-0.23,0.94c0-0.01,0.24-0.24,0.7-0.46c2.4-1.25,6.5-2.82,10.84-3.48c3.28-0.5,7.79-0.62,10.66,1.61
		c3.12,2.55,4.18,6.93,2.86,11.73c-1.51,5.47-6.38,11.48-13.85,12.59c1.42,0.89,2.34,2.25,2.65,3.92c0.4,2.12-0.25,4.18-1.01,5.19
		c1.62,2.3,1.79,4.77,0.49,6.95c-1.68,2.8-5.49,4.6-9.46,4.6c-0.52,0-1.04-0.03-1.55-0.1C192.33,266.37,187.03,267.67,181.43,267.67
		z M121.46,206.33c-2.37-0.63-5.13-1.75-8.19-3.62c-6.82-4.18-13.1-10.89-18.68-19.96c-0.4,0.2-0.79,0.4-1.16,0.59
		c-3.12,1.59-5.38,2.74-7.25,1.28c-1.46-1.1-2.52-1.34-3.22-1.5c-0.2-0.04-0.37-0.08-0.52-0.14c-0.15,0.01-0.31,0.01-0.46,0.01
		c-3.25,0-7.1-1.1-10.9-3.13c-3.85-2.06-7.3-4.92-9.44-7.86c-1.83-2.52-1.9-5.73-1.4-7.71c-0.16-0.39-0.4-0.76-0.65-1.16
		c-0.5-0.78-1.07-1.65-1.23-3.05c-0.29-1.74,0.95-3.66,2.26-5.7c0.81-1.25,1.65-2.55,2.18-3.89c-0.09-0.11-0.17-0.22-0.25-0.31
		c-0.72-0.91-1.04-1.34-4.43-3.67c-0.71-0.48-1.63-1.56-1.87-3.07c-0.23-1.46,0.25-2.98,1.39-4.41c0.9-1.23,2.32-1.91,4.1-1.97
		c0.09-0.01,0.17-0.01,0.26-0.01c2.96,0,6.27,1.68,8.49,4.32c1.39,1.77,2.5,3.74,3.58,5.63c0.91,1.61,1.76,3.13,2.73,4.42
		c2.26,2.48,6.03,4.01,8.88,2.1c0.95-4.94,3.21-8.8,6.72-11.48c2.67-2.04,6-3.37,9.88-3.95c0-4.46,1.34-8.67,2.23-11.45
		c0.23-0.73,0.43-1.36,0.58-1.89c-5.23-1.23-9.24-5.06-10.73-10.27c-1.47-5.15-0.08-10.48,3.71-14.28
		c-1.85-7.17-3.74-16.41-3.74-30.63c0-2.01-0.03-3.95-0.05-5.82c-0.14-10.15-0.25-18.16,4.5-18.95c6.67-1.24,10.11,7.92,13.44,16.77
		c1.69,4.51,3.3,8.76,5.26,11.52c3.52,5.4,20.72,20.28,27.36,25.01c6.26,0.43,13.9,1.86,17.53,9.12c2.06,3.74,0.55,7.41-0.17,9.17
		c-0.17,0.43-0.3,0.73-0.3,0.88c2.75,2.97,3.48,4.59,4.21,6.55l1.17-0.7c0-0.01-0.01-0.48-0.94-1.4c-1.32-2.14-2.09-6.14-1.05-8.88
		c0.55-1.45,1.53-2.39,2.92-2.81c1.96-0.61,3.91-0.1,5.61,1.47c2.89,2.68,4.43,7.88,3.51,11.85c1.53,1.02,4.43,5.29,4.21,10.52
		c-0.3,6.2-2.75,11.4-7.71,16.36c0.42,0.21,1.39,0.7,1.63,0.7c3.02-1.72,19.85-13.73,21.28-17.77c-0.69-6.19,2.95-11.89,8.65-13.56
		c-0.38-0.9-0.76-1.79-1.18-2.73c-3.51-8.1-7.49-17.27-3.5-26.72l-29.92-23.14l-1.4,6.31L164,66.1l-7.95,1.17
		c0.04-0.06,3.75-6.31,3.75-6.54l-3.75-7.95l8.18,1.63l4.68-5.61l1.87,8.18l8.65,2.81l-6.08,3.51l29.92,21.27
		c3.15-1.7,4.73-2.32,7.71-1.64c2.56,0.57,4.78,2.6,6.26,5.73c0.03,0.05,0.04,0.09,0.05,0.11c4.78,0.5,6.2,3.22,7.02,6.08
		c0.52-0.17,1.23-0.79,2.06-1.52c1.42-1.24,3.19-2.78,4.96-2.93c0.08-0.01,0.17-0.01,0.25-0.01c2.1,0,3.23,1.22,3.82,2.25
		c1.38,2.45,1.06,6.08-0.09,7.81c-2.09,2.92-4.68,4.58-8.42,5.38c0.05,0.31,0.14,0.71,0.23,1.18c0.39,1.84,1.03,4.91,0.8,7.92
		c-0.26,3.61-1.72,6.22-4.31,7.74c0.59,1.25,0.62,2.5,0.07,3.72c-1.09,2.46-4.21,4.18-5.92,4.69c1.99,8.38,0.72,16.38-0.7,21.62
		c-1.8,6.64-4.86,12.59-8.38,16.32c-2.68,2.83-5.36,4.12-7.76,3.68c-4.74-0.88-5.25-4.21-5.53-6c-0.09-0.58-0.14-0.96-0.32-1.01
		c-3.49-1.63-8.66-1.39-10.05,0.46c0.24,0.32,0.5,0.63,0.76,0.95c0.51,0.61,1.04,1.25,1.35,1.86c2.43-0.49,4.04,0.35,5.38,2.81
		c0.06,0.12,0.11,0.24,0.17,0.35c-0.05-0.12-0.11-0.24-0.17-0.35c-1.34-2.45-2.95-3.29-5.38-2.81c-0.31-0.62-0.83-1.25-1.35-1.86
		c-0.25-0.31-0.52-0.63-0.76-0.95c1.39-1.85,6.56-2.1,10.05-0.46c0.17,0.05,0.23,0.44,0.32,1.01c0.27,1.79,0.78,5.12,5.53,6
		c0.31,0.05,0.61,0.08,0.92,0.08c2.15,0,4.49-1.28,6.83-3.76c3.53-3.73,6.58-9.67,8.38-16.32c1.42-5.24,2.69-13.24,0.7-21.62
		c1.71-0.51,4.82-2.25,5.92-4.69c0.54-1.22,0.52-2.47-0.07-3.72c2.59-1.52,4.04-4.12,4.31-7.74c0.22-3-0.42-6.08-0.81-7.92
		c-0.1-0.46-0.18-0.87-0.23-1.18l0,0c3.74-0.8,6.33-2.46,8.42-5.38c1.15-1.73,1.47-5.36,0.09-7.81c-0.59-1.04-1.72-2.25-3.82-2.25
		c-0.08,0-0.16,0-0.25,0.01c-1.77,0.15-3.53,1.69-4.96,2.93c-0.82,0.72-1.53,1.34-2.06,1.52c-0.82-2.86-2.23-5.58-7.02-6.08
		c-0.02-0.03-0.04-0.06-0.05-0.11c-1.47-3.12-3.69-5.16-6.26-5.73c-2.97-0.68-4.55-0.06-7.71,1.64l-29.92-21.27l6.08-3.51
		l-8.65-2.81l-1.87-8.18l-4.68,5.61l-8.18-1.63l3.75,7.95c0,0.23-3.7,6.48-3.75,6.54L164,66.1l5.38,7.24l1.4-6.31l29.92,23.14
		c-3.99,9.45-0.01,18.63,3.5,26.72c0.41,0.95,0.8,1.83,1.17,2.73c-5.7,1.66-9.34,7.37-8.65,13.56
		c-1.43,4.03-18.26,16.04-21.28,17.77c-0.24,0-1.22-0.49-1.63-0.7c4.96-4.96,7.42-10.17,7.71-16.36c0.23-5.24-2.67-9.5-4.21-10.52
		c0.91-3.96-0.63-9.17-3.51-11.85c-1.69-1.57-3.63-2.08-5.61-1.47c-1.38,0.42-2.37,1.36-2.92,2.81c-1.04,2.74-0.27,6.74,1.04,8.88
		c0.92,0.92,0.94,1.39,0.94,1.4l-1.17,0.7c-0.73-1.96-1.46-3.58-4.21-6.55c0-0.14,0.12-0.45,0.3-0.88c0.72-1.76,2.22-5.44,0.17-9.17
		c-3.63-7.25-11.28-8.69-17.53-9.12c-6.63-4.73-23.83-19.61-27.36-25.01c-1.97-2.75-3.57-7.01-5.26-11.52
		c-3.12-8.31-6.35-16.88-12.24-16.88c-0.39,0-0.79,0.04-1.19,0.11c-4.75,0.79-4.64,8.81-4.5,18.95c0.03,1.88,0.05,3.82,0.05,5.82
		c0,14.21,1.89,23.46,3.74,30.63c-3.79,3.79-5.17,9.13-3.71,14.28c1.48,5.2,5.5,9.05,10.73,10.27c-0.14,0.53-0.34,1.16-0.58,1.89
		c-0.89,2.78-2.23,6.98-2.23,11.45c-3.88,0.58-7.2,1.9-9.88,3.95c-3.52,2.68-5.78,6.55-6.72,11.48c-2.85,1.9-6.63,0.38-8.88-2.1
		c-0.96-1.28-1.82-2.81-2.74-4.41c-1.07-1.9-2.18-3.86-3.58-5.64c-2.22-2.64-5.53-4.31-8.49-4.31c-0.09,0-0.17,0-0.26,0.01
		c-1.78,0.06-3.2,0.75-4.1,1.97c-1.14,1.43-1.63,2.95-1.39,4.41c0.24,1.51,1.15,2.59,1.87,3.07c3.39,2.32,3.71,2.75,4.43,3.67
		c0.07,0.1,0.16,0.2,0.25,0.31c-0.53,1.33-1.37,2.63-2.18,3.89c-1.32,2.03-2.55,3.96-2.26,5.7c0.16,1.39,0.72,2.27,1.23,3.05
		c0.25,0.39,0.49,0.76,0.65,1.16c-0.5,1.99-0.43,5.19,1.4,7.71c2.15,2.94,5.59,5.8,9.44,7.86c3.79,2.03,7.65,3.13,10.9,3.13
		c0.16,0,0.32,0,0.46-0.01c0.15,0.05,0.32,0.09,0.52,0.14c0.7,0.16,1.75,0.4,3.22,1.5c1.88,1.46,4.13,0.31,7.25-1.28
		c0.38-0.19,0.76-0.39,1.16-0.59c5.57,9.06,11.86,15.78,18.68,19.96C115.12,203.85,118.06,205.4,121.46,206.33z"/>
	<path class="st2" d="M168.93,151.89c-5.14,3.97-14.26,3.27-19.17-0.23c-3.97-2.81-4.21-4.68-5.84-5.84c-0.23-0.23,0.46,0,1.17,0.23
		c0.46,0,0.94,0,0.46-0.46c-2.57-2.1-7.02-1.4-8.42,1.64c-0.23,0.23-0.23,0.7,0.24,0.94c0.94-1.17,2.34-1.87,3.27-2.1
		c3.74,0.7,4.91,4.21,6.55,8.42c1.64,4.67,4.44,8.18,8.18,8.18c6.31,0,3.74-6.31,6.78-6.78c2.81-0.23,5.84-1.87,5.84-1.87
		c-0.7,3.04-3.51,4.21-4.44,5.38c-0.94,0.23,0.46-1.4,0.23-1.87h-0.46c-1.64,1.4-2.34,8.18-7.01,8.65
		c-5.84,0.46-8.65-5.61-10.29-6.08c-0.23,0-0.46,0-0.46,0.46c0.23,0.24,0.7,0.94,0.94,1.17c-3.97-1.64-8.88-1.64-12.86-0.94
		c-4.68-1.4-12.62-11.46-2.81-19.4c6.08-4.91,13.33-1.4,15.2-0.23c0.24,0,0.24,0,0-0.23c-7.95-6.08-14.02-15.66-12.86-23.14
		c1.87-1.4,3.74-1.87,5.15-2.34c-0.46,3.27,0.23,6.78,0.94,7.48c0-3.51,0-6.78,1.4-7.95c2.34-2.57,8.18,1.17,5.15-1.17
		c0.23,0,1.17-0.24,1.17-0.24s3.51,1.87,3.74,2.1l-0.23-2.57c2.57-0.7,3.74,0,3.74,0c-0.46,0.7-0.23,2.34,0.24,2.57
		c0-1.17,0.46-2.34,1.63-1.87c2.34,0.7,7.24,5.61,8.88,10.29l0.46,0.7l-0.46,0.7l-0.7-1.4c-2.34-4.67-5.84-7.48-7.48-6.78
		c-2.34,1.17,0.46,8.42,5.61,12.62c-2.1,0.7-3.97,2.81-4.91,5.38c1.4-0.46,2.1-2.57,4.67-3.97c-0.46,1.64-0.23,4.21,0.23,4.21
		c0.46-5.61,4.21-10.75,6.31-11.22c1.17,1.17,4.21,3.04,7.48,0.46C180.85,129.22,182.95,141.61,168.93,151.89L168.93,151.89z"/>
	<path class="st3" d="M155.67,166.18c-3.7,0-6.13-2.66-7.78-4.45c-0.77-0.84-1.38-1.51-1.88-1.65c-0.01,0-0.46,0.01-0.46,0.46
		c0.12,0.12,0.3,0.35,0.46,0.59c0.17,0.23,0.35,0.46,0.46,0.59c-3.46-1.43-8.15-1.76-12.86-0.94c-2.85-0.86-6.46-4.63-7.3-8.89
		c-0.53-2.71-0.18-6.73,4.49-10.52c2.6-2.1,5.69-2.9,9.17-2.39c3.18,0.46,5.57,1.89,6.02,2.17c0.11,0,0.17,0,0.17-0.03
		c0.01-0.03-0.05-0.08-0.17-0.21c-4-3.05-7.5-6.98-9.85-11.04c-2.53-4.36-3.57-8.54-3.01-12.09c1.61-1.21,3.23-1.73,4.53-2.14
		c0.21-0.07,0.41-0.13,0.61-0.2c-0.46,3.27,0.25,6.79,0.94,7.48c0-3.49,0-6.78,1.4-7.95c1.38-1.52,4-0.83,5.25-0.51
		c0.43,0.11,0.71,0.19,0.75,0.12c0.04-0.06-0.2-0.28-0.86-0.78c0.23,0,1.16-0.23,1.17-0.24c0.04,0.02,3.51,1.87,3.74,2.1l-0.24-2.57
		c2.54-0.69,3.73-0.01,3.74,0c-0.31,0.46-0.31,1.32-0.15,1.91c0.1,0.35,0.23,0.58,0.39,0.66c0-0.87,0.25-1.55,0.66-1.83
		c0.27-0.18,0.6-0.19,0.98-0.04c2.33,0.7,7.24,5.59,8.88,10.29l0.46,0.7l-0.46,0.7l-0.7-1.4c-2.11-4.23-5.18-6.89-6.94-6.89
		c-0.2,0-0.38,0.04-0.54,0.11c-0.46,0.23-0.73,0.7-0.81,1.39c-0.29,2.59,2.28,7.84,6.42,11.23c-2.07,0.69-3.96,2.75-4.91,5.38
		c0.65-0.22,1.16-0.8,1.75-1.47c0.69-0.78,1.54-1.75,2.92-2.5c-0.4,1.4-0.3,3.61,0.08,4.11c0.05,0.06,0.1,0.1,0.15,0.1
		c0.46-5.53,4.15-10.74,6.31-11.22c0.36,0.36,3.67,3.47,7.48,0.46c1.89,1.8,3.8,5.44,3.5,10.29c-0.27,4.29-2.36,10.68-10.74,16.83
		l0,0c-2.27,1.75-5.44,2.7-9,2.7c-0.22,0-0.45-0.01-0.68-0.01c-3.6-0.12-7.06-1.18-9.5-2.92c-2.43-1.71-3.45-3.06-4.26-4.15
		c-0.53-0.69-0.94-1.25-1.58-1.7c-0.04-0.04-0.05-0.06-0.04-0.08c0.01-0.01,0.03-0.02,0.05-0.02c0.17,0,0.67,0.17,1.16,0.33
		c0.3,0,0.61,0,0.66-0.12c0.03-0.07-0.03-0.18-0.18-0.34c-1.31-1.07-3.14-1.46-4.92-1.05c-1.61,0.37-2.88,1.35-3.5,2.69
		c-0.12,0.12-0.17,0.3-0.14,0.46c0.03,0.2,0.17,0.36,0.38,0.47c0.95-1.18,2.36-1.88,3.27-2.1c3.55,0.67,4.77,3.81,6.3,7.78
		l0.25,0.63c1.82,5.2,4.81,8.18,8.18,8.18c3.76,0,4.36-2.2,4.89-4.15c0.36-1.31,0.67-2.44,1.89-2.63c2.77-0.23,5.81-1.85,5.84-1.87
		c-0.5,2.15-2.01,3.34-3.23,4.3c-0.5,0.39-0.94,0.74-1.21,1.08c-0.15,0.04-0.25,0.03-0.3-0.03c-0.11-0.13,0.06-0.47,0.24-0.83
		c0.19-0.39,0.39-0.81,0.29-1h-0.46c-0.53,0.46-0.96,1.48-1.47,2.67c-1.06,2.53-2.39,5.66-5.54,5.97
		C156.09,166.17,155.87,166.18,155.67,166.18z M146.01,160.08c0.5,0.14,1.1,0.81,1.88,1.65c1.64,1.79,4.07,4.45,7.77,4.45
		c0.21,0,0.42-0.01,0.63-0.03c3.15-0.32,4.48-3.46,5.54-5.97c0.5-1.19,0.94-2.22,1.47-2.67h0.46c0.1,0.2-0.1,0.61-0.29,1
		c-0.18,0.37-0.34,0.71-0.24,0.83c0.04,0.05,0.14,0.07,0.3,0.03c0.27-0.34,0.71-0.68,1.21-1.08c1.22-0.96,2.74-2.16,3.23-4.3
		c-0.03,0.02-3.07,1.64-5.84,1.87c-1.23,0.19-1.53,1.32-1.89,2.63c-0.53,1.94-1.13,4.15-4.89,4.15c-3.38,0-6.36-2.98-8.18-8.18
		l-0.25-0.63c-1.53-3.97-2.75-7.12-6.3-7.78c-0.91,0.23-2.32,0.92-3.27,2.1c-0.22-0.11-0.35-0.27-0.38-0.47
		c-0.03-0.17,0.03-0.34,0.15-0.46c0.62-1.34,1.89-2.32,3.5-2.69c1.77-0.41,3.61-0.02,4.92,1.05c0.16,0.16,0.22,0.27,0.18,0.34
		c-0.05,0.12-0.36,0.12-0.66,0.12c-0.49-0.16-0.99-0.33-1.16-0.33c-0.03,0-0.05,0.01-0.05,0.02c-0.01,0.02,0.01,0.04,0.04,0.08
		c0.64,0.45,1.05,1,1.58,1.7c0.82,1.09,1.84,2.44,4.26,4.15c2.44,1.74,5.89,2.81,9.5,2.92c0.23,0.01,0.45,0.01,0.68,0.01
		c3.56,0,6.74-0.95,9-2.7c8.38-6.15,10.47-12.55,10.74-16.83c0.31-4.84-1.61-8.49-3.49-10.29c-3.82,3.01-7.12-0.1-7.48-0.46
		c-2.17,0.48-5.85,5.7-6.31,11.22l0,0c-0.05,0-0.11-0.04-0.15-0.1c-0.38-0.5-0.48-2.71-0.08-4.11c-1.38,0.75-2.24,1.73-2.92,2.5
		c-0.59,0.68-1.1,1.25-1.75,1.46c0.96-2.63,2.83-4.68,4.91-5.38c-4.14-3.39-6.71-8.64-6.42-11.23c0.08-0.69,0.35-1.16,0.81-1.39
		c1.59-0.68,5.13,2.08,7.48,6.78l0.7,1.4l0.46-0.7l-0.46-0.7c-1.65-4.7-6.55-9.59-8.88-10.29c-0.39-0.15-0.71-0.14-0.98,0.04
		c-0.41,0.27-0.66,0.96-0.66,1.83c-0.16-0.08-0.3-0.32-0.39-0.66c-0.16-0.6-0.16-1.45,0.15-1.91c-0.02-0.01-1.19-0.69-3.74,0
		l0.24,2.57c-0.23-0.23-3.7-2.09-3.74-2.1c-0.01,0.01-0.94,0.24-1.17,0.24c0.66,0.5,0.89,0.72,0.86,0.78
		c-0.04,0.05-0.32-0.02-0.75-0.12c-1.25-0.33-3.87-1.01-5.25,0.51c-1.4,1.17-1.4,4.46-1.4,7.95c-0.69-0.69-1.4-4.22-0.94-7.48
		c-0.19,0.06-0.4,0.13-0.61,0.2c-1.31,0.41-2.92,0.94-4.53,2.14c-0.55,3.55,0.49,7.74,3.01,12.1c2.35,4.07,5.85,7.99,9.85,11.04
		c0.13,0.13,0.18,0.18,0.17,0.21c-0.01,0.02-0.07,0.02-0.17,0.02c-0.45-0.28-2.84-1.7-6.02-2.16c-3.49-0.51-6.58,0.3-9.17,2.39
		c-4.68,3.79-5.03,7.81-4.49,10.52c0.84,4.26,4.45,8.03,7.3,8.89c4.71-0.83,9.39-0.49,12.86,0.94c-0.12-0.12-0.3-0.35-0.46-0.59
		c-0.17-0.23-0.35-0.46-0.46-0.59C145.55,160.08,146.01,160.08,146.01,160.08z"/>
	<g>
		<path class="st0" d="M152.57,134.36c-5.38-2.34-12.16-14.26-7.71-16.6c3.27-2.1,13.33,8.42,11.92,15.89
			C156.3,134.83,154.9,135.77,152.57,134.36L152.57,134.36z"/>
		<path class="st1" d="M154.71,135.06c-0.64,0-1.38-0.24-2.16-0.7l0,0c-4.03-1.75-8.98-9.08-9.15-13.52
			c-0.06-1.51,0.42-2.54,1.43-3.08c0.89-0.57,2.31-0.25,4.02,0.9c2.11,1.42,4.3,3.86,5.85,6.51c1.78,3.05,2.52,6.07,2.06,8.48
			c-0.25,0.63-0.72,1.09-1.32,1.29C155.22,135.03,154.98,135.06,154.71,135.06z M145.86,117.49c-0.39,0-0.73,0.09-1.01,0.27
			c-1.01,0.53-1.49,1.56-1.43,3.08c0.17,4.44,5.13,11.77,9.15,13.52l0,0c1.09,0.66,2.09,0.86,2.89,0.59c0.6-0.2,1.07-0.66,1.32-1.29
			c0.45-2.41-0.28-5.43-2.06-8.48c-1.54-2.65-3.74-5.09-5.85-6.51C147.71,117.89,146.68,117.49,145.86,117.49z"/>
	</g>
	<g>
		<path class="st0" d="M140.64,23.09c-0.94,0.23-1.87-0.23-2.34-1.17c-0.24-1.17,0.7-2.34,1.87-2.57c0.94,0,1.87,0.7,2.1,1.64
			C142.28,21.91,141.58,22.85,140.64,23.09L140.64,23.09z"/>
		<path class="st1" d="M140.16,23.14c-0.76,0-1.47-0.45-1.86-1.23c-0.11-0.51,0.02-1.05,0.33-1.53c0.36-0.54,0.92-0.92,1.54-1.04
			c0.95,0,1.88,0.72,2.1,1.64c0,0.95-0.72,1.88-1.64,2.1l0,0C140.48,23.12,140.32,23.14,140.16,23.14z M140.17,19.35
			c-0.61,0.12-1.18,0.5-1.53,1.04c-0.32,0.47-0.43,1.01-0.33,1.53c0.46,0.94,1.39,1.41,2.34,1.17c0.91-0.23,1.64-1.15,1.64-2.1
			C142.05,20.06,141.12,19.35,140.17,19.35z"/>
	</g>
	<g>
		<path class="st4" d="M140.41,21.68c-0.23,0.24-0.7,0.24-0.7-0.23c-0.23,0-0.23-0.23,0-0.46c0-0.46,0.94-0.46,1.17,0
			C140.87,21.22,140.64,21.68,140.41,21.68L140.41,21.68z"/>
		<path class="st5" d="M140.04,21.83c-0.05,0-0.1-0.01-0.14-0.03c-0.13-0.05-0.2-0.18-0.2-0.36l0,0c-0.08,0-0.14-0.03-0.16-0.09
			c-0.04-0.1,0.03-0.25,0.17-0.38c0-0.16,0.11-0.29,0.32-0.33c0.3-0.08,0.71,0.04,0.85,0.33c0,0.25-0.24,0.7-0.46,0.7
			C140.31,21.78,140.17,21.83,140.04,21.83z M140.2,20.63c-0.06,0-0.12,0.01-0.18,0.02c-0.2,0.05-0.32,0.17-0.32,0.33
			c-0.14,0.14-0.2,0.29-0.17,0.38c0.03,0.05,0.08,0.09,0.17,0.09c0,0.18,0.07,0.31,0.2,0.36c0.16,0.06,0.36,0.01,0.5-0.13l0,0
			c0.23,0,0.46-0.45,0.46-0.7C140.76,20.75,140.47,20.63,140.2,20.63z"/>
	</g>
	<path class="st0" d="M170.56,27.53c-0.24,0.23-8.18,3.51-8.18,3.27l-2.34,10.29c0,0-3.27-9.82-3.51-10.05l-10.29-2.57
		c0-0.23,9.82-2.81,9.82-2.81l2.81-9.82c0,0,3.51,9.59,3.74,9.59C162.62,25.42,170.33,27.76,170.56,27.53L170.56,27.53z"/>
	<path class="st1" d="M160.04,41.08l-3.51-10.05l-10.29-2.57l9.81-2.81l2.81-9.82l3.74,9.59l7.95,2.1l-8.18,3.27L160.04,41.08z
		 M158.88,15.84l-2.81,9.82l-9.81,2.81l10.29,2.57l3.51,10.05l2.34-10.29l8.18-3.27l-7.95-2.1L158.88,15.84z"/>
	<path class="st4" d="M161.21,29.63l-1.17,7.48l-2.57-7.24c0.23,0.23-7.48-1.4-7.48-1.4l7.24-1.64l1.87-7.24l2.34,7.02l5.84,1.17
		C167.29,27.76,161.44,29.63,161.21,29.63L161.21,29.63z"/>
	<path class="st5" d="M160.04,37.11l-2.57-7.24l-7.48-1.4l7.24-1.64l1.87-7.24l2.34,7.02l5.84,1.17l-6.08,1.87L160.04,37.11z
		 M159.11,19.58l-1.87,7.24l-7.24,1.64l7.48,1.4l2.57,7.24l1.17-7.48l6.08-1.87l-5.85-1.16L159.11,19.58z"/>
	<g>
		<path class="st0" d="M139.47,39.21c-1.4,0.46-2.81-0.46-3.04-1.87c-0.24-1.17,0.46-2.34,1.63-2.81c1.4-0.46,2.81,0.46,3.04,1.87
			C141.58,37.58,140.64,38.98,139.47,39.21L139.47,39.21z"/>
		<path class="st1" d="M138.73,39.34c-0.41,0-0.81-0.11-1.18-0.33c-0.6-0.36-1.01-0.96-1.12-1.66c-0.23-1.15,0.45-2.33,1.63-2.81
			c0.65-0.22,1.33-0.14,1.91,0.21c0.6,0.36,1.01,0.96,1.13,1.66c0.21,0.51,0.15,1.1-0.14,1.64c-0.32,0.6-0.89,1.04-1.5,1.16l0,0
			C139.23,39.29,138.98,39.34,138.73,39.34z M138.81,34.42c-0.25,0-0.5,0.04-0.75,0.12c-1.18,0.47-1.87,1.65-1.63,2.81
			c0.11,0.7,0.53,1.31,1.12,1.66c0.59,0.35,1.27,0.43,1.91,0.21l0,0c0.6-0.12,1.17-0.57,1.5-1.16c0.3-0.54,0.35-1.13,0.14-1.64
			c-0.12-0.7-0.53-1.31-1.13-1.66C139.62,34.53,139.22,34.42,138.81,34.42z"/>
	</g>
	<g>
		<path class="st4" d="M139,38.05c-0.7,0-1.17-0.7-1.17-1.17s0.46-0.94,0.94-0.94c0.46-0.23,1.17,0.46,1.17,0.94
			C139.94,37.35,139.47,37.81,139,38.05L139,38.05z"/>
		<path class="st5" d="M139,38.05c-0.7,0-1.17-0.7-1.17-1.17c0-0.46,0.47-0.94,0.94-0.94c0.16-0.08,0.38-0.05,0.6,0.08
			c0.32,0.2,0.58,0.58,0.58,0.86C139.94,37.36,139.45,37.82,139,38.05L139,38.05z M138.97,35.89c-0.07,0-0.14,0.02-0.2,0.04
			c-0.46,0-0.94,0.47-0.94,0.94s0.46,1.17,1.17,1.17c0.45-0.23,0.94-0.69,0.94-1.17c0-0.28-0.25-0.66-0.58-0.86
			C139.23,35.94,139.09,35.89,138.97,35.89z"/>
	</g>
	<g>
		<path class="st0" d="M119.83,38.05c-1.17,0.46-2.34,0-2.81-1.17c-0.47-1.17,0.46-3.04,1.87-3.04c1.17-0.23,2.34,0.7,2.34,1.87
			C121.47,36.88,120.77,37.81,119.83,38.05L119.83,38.05z"/>
		<path class="st1" d="M118.93,38.23c-0.83,0-1.56-0.49-1.9-1.35c-0.25-0.61-0.11-1.47,0.34-2.13c0.39-0.58,0.95-0.91,1.53-0.91
			c0.57-0.12,1.16,0.04,1.63,0.42c0.45,0.38,0.71,0.89,0.71,1.45c0.25,1.23-0.54,2.12-1.4,2.34l0,0
			C119.53,38.17,119.23,38.23,118.93,38.23z M119.26,33.8c-0.12,0-0.25,0.02-0.36,0.04c-0.58,0-1.14,0.33-1.53,0.91
			c-0.45,0.67-0.59,1.52-0.34,2.13c0.46,1.17,1.62,1.65,2.81,1.17l0,0c0.86-0.22,1.65-1.11,1.4-2.34c0-0.54-0.26-1.07-0.71-1.45
			C120.16,33.96,119.71,33.8,119.26,33.8z"/>
	</g>
	<g>
		<path class="st4" d="M119.83,36.88c-0.46,0.24-1.17,0-1.4-0.46c0-0.46,0.23-1.17,0.7-1.4c0.46,0,0.94,0,1.17,0.46
			C120.54,35.94,120.3,36.65,119.83,36.88L119.83,36.88z"/>
		<path class="st5" d="M119.42,36.97c-0.12,0-0.25-0.02-0.38-0.06c-0.28-0.1-0.5-0.27-0.61-0.5c0-0.44,0.22-1.16,0.7-1.4
			c0.01,0,0.01,0,0.01,0c0.46,0,0.92,0.01,1.16,0.46c0.11,0.22,0.12,0.51,0.03,0.79c-0.1,0.27-0.27,0.5-0.5,0.61
			C119.71,36.94,119.57,36.97,119.42,36.97z M119.13,35.01c-0.48,0.24-0.7,0.96-0.7,1.4c0.11,0.22,0.33,0.4,0.61,0.5
			c0.27,0.09,0.57,0.08,0.79-0.03c0.22-0.11,0.4-0.33,0.5-0.61s0.08-0.57-0.03-0.79C120.07,35.01,119.59,35.01,119.13,35.01z"/>
	</g>
	<path class="st0" d="M134.33,61.89c-1.17,0.46-2.57-0.46-2.57-1.87c-0.23-0.94,0.94-1.87,1.87-1.87c0.94,0,1.63,0.23,2.1,1.17
		C136.2,60.25,135.5,61.42,134.33,61.89L134.33,61.89z"/>
	<path class="st1" d="M133.69,62.01c-0.36,0-0.73-0.11-1.06-0.33c-0.55-0.38-0.88-0.99-0.88-1.66c0-0.95,0.92-1.87,1.87-1.87
		c1.08,0,1.69,0.34,2.1,1.17c0.18,0.37,0.2,0.78,0.04,1.2c-0.23,0.59-0.76,1.1-1.44,1.37l0,0
		C134.13,61.97,133.91,62.01,133.69,62.01z M133.63,58.15c-0.95,0-1.87,0.92-1.87,1.87c0,0.67,0.33,1.29,0.88,1.66
		c0.52,0.35,1.16,0.43,1.69,0.21c0.68-0.27,1.22-0.78,1.44-1.37c0.16-0.42,0.15-0.83-0.04-1.2
		C135.31,58.49,134.71,58.15,133.63,58.15z"/>
	<g>
		<path class="st4" d="M134.33,60.72c-0.46,0.23-1.17,0-1.4-0.24c0-0.46,0-1.17,0.46-1.4c0.46,0,0.94,0,1.17,0.46
			C134.8,60.02,134.56,60.49,134.33,60.72L134.33,60.72z"/>
		<path class="st5" d="M133.88,60.82c-0.39,0-0.79-0.17-0.95-0.33c0-0.46,0-1.17,0.46-1.4c0.01,0,0.01,0,0.01,0
			c0.46,0,0.92,0.01,1.16,0.46c0.25,0.49-0.03,0.96-0.24,1.17l0,0C134.19,60.79,134.03,60.82,133.88,60.82z M133.39,59.09
			c-0.46,0.23-0.46,0.94-0.46,1.4c0.22,0.22,0.91,0.48,1.4,0.24c0.2-0.2,0.48-0.68,0.24-1.17
			C134.33,59.09,133.85,59.09,133.39,59.09z M134.33,60.72L134.33,60.72L134.33,60.72z"/>
	</g>
	<g>
		<path class="st0" d="M150.69,56.05c-1.17,0.23-2.1-0.46-2.34-1.4c-0.46-1.4,0.46-3.04,1.87-3.04c1.17,0,2.1,0.46,2.34,1.64
			C153.03,54.41,151.86,56.05,150.69,56.05L150.69,56.05z"/>
		<path class="st1" d="M150.24,56.1c-0.99,0-1.7-0.69-1.89-1.45c-0.25-0.73-0.11-1.58,0.34-2.21c0.38-0.53,0.94-0.83,1.53-0.83
			c1.29,0,2.12,0.58,2.34,1.64c0.22,0.53,0.1,1.22-0.32,1.83c-0.41,0.61-1,0.97-1.55,0.97l0,0C150.54,56.08,150.38,56.1,150.24,56.1
			z M150.22,51.6c-0.59,0-1.15,0.3-1.53,0.83c-0.45,0.63-0.59,1.47-0.34,2.21c0.18,0.75,0.89,1.45,1.89,1.45
			c0.14,0,0.3-0.02,0.45-0.04l0,0c0.55,0,1.15-0.38,1.55-0.97c0.41-0.61,0.53-1.29,0.32-1.83C152.35,52.19,151.52,51.6,150.22,51.6z
			"/>
	</g>
	<g>
		<path class="st4" d="M149.76,54.64c-0.46-0.23-0.46-0.94-0.23-1.4c0.23-0.7,0.94-0.94,1.64-0.46c0.23,0.23,0.46,0.7,0.23,1.17
			C151.16,54.64,150.46,54.88,149.76,54.64L149.76,54.64z"/>
		<path class="st5" d="M150.28,54.73c-0.17,0-0.34-0.03-0.52-0.09l0,0c-0.21-0.11-0.35-0.32-0.38-0.61
			c-0.03-0.25,0.03-0.55,0.15-0.79c0.11-0.33,0.32-0.57,0.61-0.66c0.31-0.11,0.68-0.04,1.03,0.19c0.2,0.2,0.48,0.68,0.23,1.17
			c-0.1,0.3-0.3,0.53-0.55,0.67C150.66,54.69,150.48,54.73,150.28,54.73z M149.76,54.64c0.39,0.13,0.77,0.11,1.08-0.04
			c0.26-0.13,0.46-0.36,0.55-0.67c0.25-0.49-0.03-0.96-0.23-1.17c-0.35-0.23-0.71-0.3-1.03-0.19c-0.29,0.1-0.5,0.33-0.61,0.66
			c-0.12,0.24-0.17,0.53-0.15,0.79C149.41,54.32,149.54,54.54,149.76,54.64L149.76,54.64z"/>
	</g>
	<g>
		<path class="st0" d="M154.2,74.75c-1.4,0.46-2.81-0.46-3.04-1.87c-0.23-1.4,0.23-2.57,1.64-3.04c1.4-0.46,3.04,0.7,3.27,2.34
			C156.3,73.35,155.37,74.52,154.2,74.75L154.2,74.75z"/>
		<path class="st1" d="M153.45,74.87c-0.41,0-0.81-0.11-1.18-0.33c-0.6-0.36-1.01-0.96-1.12-1.66c-0.25-1.53,0.32-2.6,1.63-3.04
			c0.61-0.21,1.31-0.11,1.92,0.27c0.73,0.45,1.24,1.22,1.35,2.06c0.11,0.55-0.04,1.14-0.41,1.64c-0.36,0.48-0.89,0.82-1.46,0.94l0,0
			C153.95,74.83,153.71,74.87,153.45,74.87z M153.44,69.74c-0.22,0-0.44,0.04-0.64,0.11c-1.31,0.44-1.89,1.52-1.63,3.04
			c0.11,0.7,0.53,1.31,1.12,1.66c0.58,0.35,1.26,0.42,1.91,0.21l0,0c0.57-0.11,1.1-0.45,1.46-0.94c0.38-0.5,0.52-1.08,0.41-1.64
			c-0.12-0.84-0.62-1.61-1.35-2.06C154.31,69.87,153.87,69.74,153.44,69.74z"/>
	</g>
	<g>
		<path class="st4" d="M154.2,73.35c-0.7,0.46-1.63,0-1.87-0.7c-0.23-0.7,0.24-1.4,0.94-1.64c0.46-0.23,1.17,0.23,1.4,0.94
			C154.9,72.41,154.66,73.11,154.2,73.35L154.2,73.35z"/>
		<path class="st5" d="M153.58,73.53c-0.13,0-0.27-0.03-0.41-0.07c-0.4-0.14-0.72-0.45-0.84-0.82c-0.11-0.33-0.07-0.68,0.12-0.99
			c0.18-0.3,0.47-0.53,0.82-0.64c0.17-0.09,0.38-0.08,0.59,0.01c0.36,0.15,0.68,0.51,0.82,0.93c0.24,0.47,0.01,1.17-0.46,1.4l0,0
			C154.01,73.47,153.8,73.53,153.58,73.53z M153.53,70.95c-0.1,0-0.18,0.02-0.27,0.06c-0.34,0.11-0.64,0.35-0.82,0.64
			c-0.18,0.31-0.23,0.67-0.12,0.99c0.12,0.37,0.45,0.68,0.84,0.82c0.35,0.12,0.72,0.08,1.03-0.12l0,0c0.47-0.24,0.7-0.93,0.46-1.4
			c-0.14-0.41-0.46-0.78-0.82-0.92C153.74,70.97,153.63,70.95,153.53,70.95z"/>
	</g>
	<g>
		<path class="st0" d="M167.99,45.53c-1.64,0.7-3.74-0.46-3.97-2.34c0-1.4,0.7-2.34,1.87-2.81c1.64-0.23,3.27,0.7,3.51,2.34
			C169.62,43.89,168.93,44.82,167.99,45.53L167.99,45.53z"/>
		<path class="st1" d="M166.98,45.73c-0.5,0-1.02-0.14-1.48-0.4c-0.82-0.47-1.36-1.25-1.47-2.14c0-1.35,0.65-2.32,1.87-2.81
			c0.8-0.12,1.63,0.05,2.28,0.46c0.68,0.43,1.11,1.1,1.23,1.87c0.2,1.01-0.27,1.96-1.4,2.81l0,0
			C167.67,45.67,167.33,45.73,166.98,45.73z M166.38,40.35c-0.17,0-0.33,0.01-0.49,0.04c-1.23,0.49-1.87,1.46-1.87,2.81
			c0.11,0.89,0.65,1.67,1.47,2.14c0.79,0.45,1.73,0.53,2.5,0.2c1.13-0.85,1.61-1.79,1.4-2.81c-0.11-0.77-0.54-1.44-1.23-1.87
			C167.65,40.52,167.02,40.35,166.38,40.35z M167.99,45.53L167.99,45.53L167.99,45.53z"/>
	</g>
	<g>
		<path class="st4" d="M167.06,44.13c-0.46,0-1.17-0.23-1.4-0.7c-0.23-0.46-0.23-1.17,0.23-1.64c0.46-0.7,2.1,0,2.1,0.94
			C167.99,43.42,167.76,43.89,167.06,44.13L167.06,44.13z"/>
		<path class="st5" d="M167.06,44.13c-0.44,0-1.16-0.22-1.4-0.7c-0.23-0.45-0.25-1.16,0.24-1.64c0.18-0.28,0.57-0.36,1.03-0.22
			c0.53,0.16,1.08,0.61,1.08,1.16C167.99,43.49,167.71,43.91,167.06,44.13L167.06,44.13z M166.5,41.5c-0.27,0-0.49,0.1-0.61,0.29
			c-0.48,0.48-0.46,1.18-0.24,1.64c0.25,0.48,0.96,0.7,1.4,0.7c0.66-0.22,0.94-0.64,0.94-1.4c0-0.54-0.54-0.99-1.08-1.16
			C166.77,41.52,166.63,41.5,166.5,41.5z"/>
	</g>
	<g>
		<path class="st0" d="M192.77,68.67c-0.94,0.23-2.1-0.46-2.34-1.64c-0.46-1.17,0.23-2.34,1.4-2.57c1.17-0.46,2.81,0.46,2.81,1.87
			C194.64,67.5,193.94,68.44,192.77,68.67L192.77,68.67z"/>
		<path class="st1" d="M192.4,68.71c-0.34,0-0.69-0.11-1.01-0.31c-0.49-0.31-0.83-0.81-0.95-1.37c-0.22-0.54-0.19-1.12,0.07-1.61
			c0.27-0.5,0.75-0.85,1.33-0.96c0.58-0.24,1.31-0.13,1.9,0.27c0.58,0.39,0.9,0.97,0.9,1.6c0,1.19-0.73,2.11-1.87,2.34l0,0
			C192.65,68.7,192.52,68.71,192.4,68.71z M192.49,64.34c-0.23,0-0.45,0.04-0.66,0.12c-0.58,0.11-1.06,0.46-1.33,0.96
			c-0.26,0.49-0.3,1.06-0.07,1.61c0.11,0.56,0.46,1.06,0.95,1.37c0.44,0.27,0.95,0.38,1.39,0.26l0,0c1.14-0.23,1.87-1.15,1.87-2.34
			c0-0.62-0.33-1.21-0.9-1.6C193.35,64.48,192.92,64.34,192.49,64.34z"/>
	</g>
	<g>
		<path class="st6" d="M192.53,67.74c-0.46,0.23-0.94-0.24-1.17-0.7c-0.24-0.46,0.23-1.4,0.7-1.4c0.7-0.23,1.4,0.23,1.4,0.94
			C193.71,67.03,193.24,67.74,192.53,67.74L192.53,67.74z"/>
		<path class="st7" d="M192.29,67.8c-0.36,0-0.71-0.36-0.91-0.76c-0.14-0.29-0.02-0.71,0.15-0.99c0.16-0.25,0.36-0.41,0.55-0.41
			c0.34-0.11,0.71-0.06,0.99,0.14c0.26,0.18,0.41,0.48,0.41,0.8c0.1,0.2,0.07,0.46-0.07,0.69c-0.18,0.3-0.52,0.48-0.87,0.48
			C192.45,67.78,192.37,67.8,192.29,67.8z M192.43,65.58c-0.12,0-0.25,0.02-0.37,0.06c-0.18,0-0.39,0.15-0.55,0.41
			c-0.17,0.28-0.3,0.71-0.15,0.99c0.25,0.5,0.72,0.91,1.17,0.7l0,0c0.35,0,0.68-0.18,0.87-0.48c0.14-0.23,0.17-0.49,0.07-0.69
			c0-0.32-0.15-0.61-0.41-0.8C192.88,65.64,192.66,65.58,192.43,65.58z"/>
	</g>
	<g>
		<path class="st0" d="M199.08,50.44c-1.4,0.46-2.57-0.46-2.81-1.63c-0.23-1.4,0.94-3.04,2.34-3.04c1.17,0.23,1.87,0.94,2.1,1.87
			C201.19,48.8,200.25,50.2,199.08,50.44L199.08,50.44z"/>
		<path class="st1" d="M198.35,50.56c-0.43,0-0.78-0.14-1.03-0.27c-0.53-0.31-0.92-0.87-1.05-1.48c-0.12-0.72,0.13-1.56,0.67-2.18
			c0.46-0.54,1.07-0.86,1.68-0.86c1.11,0.22,1.86,0.89,2.1,1.87c0.21,0.51,0.15,1.1-0.14,1.64c-0.32,0.6-0.89,1.04-1.5,1.16l0,0
			C198.82,50.53,198.57,50.56,198.35,50.56z M198.62,45.76c-0.6,0-1.22,0.32-1.68,0.86c-0.53,0.62-0.78,1.46-0.67,2.18
			c0.12,0.62,0.52,1.17,1.05,1.48c0.37,0.21,0.97,0.41,1.75,0.15l0,0c0.6-0.12,1.17-0.57,1.5-1.16c0.3-0.54,0.35-1.13,0.14-1.64
			C200.48,46.65,199.73,45.99,198.62,45.76z"/>
	</g>
	<g>
		<path class="st6" d="M199.08,49.5c-0.7,0.24-1.4-0.23-1.4-0.94c-0.24-0.46,0.23-0.94,0.7-1.17c0.46,0,0.7,0,1.17,0.23
			C200.02,48.1,199.78,49.27,199.08,49.5L199.08,49.5z"/>
		<path class="st7" d="M198.71,49.56c-0.23,0-0.45-0.06-0.63-0.2c-0.26-0.18-0.41-0.48-0.41-0.8c-0.11-0.21-0.07-0.44,0.09-0.68
			c0.13-0.18,0.36-0.37,0.61-0.5c0.01,0,0.01,0,0.02,0c0.46,0,0.69,0,1.16,0.24c0.22,0.22,0.3,0.62,0.2,1.04
			c-0.1,0.42-0.35,0.73-0.67,0.83l0,0C198.97,49.54,198.84,49.56,198.71,49.56z M198.38,47.4c-0.25,0.13-0.48,0.31-0.61,0.5
			c-0.16,0.23-0.19,0.46-0.09,0.67c0,0.32,0.15,0.61,0.41,0.8c0.27,0.2,0.65,0.25,0.99,0.14c0.32-0.11,0.57-0.42,0.67-0.83
			c0.1-0.41,0.02-0.81-0.2-1.04C199.08,47.4,198.85,47.4,198.38,47.4z"/>
	</g>
	<g>
		<path class="st0" d="M159.57,84.57c-1.17,0.23-2.34-0.46-2.57-1.64c-0.46-1.4,0.7-2.81,1.87-3.04c1.4,0,2.57,0.94,2.81,2.34
			C161.68,83.4,160.75,84.57,159.57,84.57L159.57,84.57z"/>
		<path class="st1" d="M159.13,84.61c-1.02,0-1.92-0.68-2.12-1.68c-0.19-0.58-0.12-1.22,0.22-1.79c0.38-0.64,1.01-1.11,1.65-1.25
			c1.42,0,2.58,0.96,2.81,2.34c0,1.25-0.98,2.34-2.1,2.34l0,0C159.43,84.6,159.27,84.61,159.13,84.61z M158.88,79.89
			c-0.65,0.13-1.28,0.61-1.65,1.25c-0.33,0.58-0.41,1.21-0.22,1.79c0.2,0.99,1.1,1.68,2.12,1.68c0.15,0,0.3-0.02,0.45-0.04l0,0
			c1.12,0,2.1-1.09,2.1-2.34C161.45,80.86,160.3,79.89,158.88,79.89z"/>
	</g>
	<g>
		<path class="st4" d="M159.57,83.4c-0.7,0.23-1.4,0-1.64-0.7c-0.23-0.7,0.24-1.4,0.94-1.4c0.7-0.24,1.17,0.23,1.17,0.94
			C160.28,82.7,160.04,83.17,159.57,83.4L159.57,83.4z"/>
		<path class="st5" d="M159.06,83.49c-0.53,0-0.96-0.29-1.12-0.79c-0.12-0.35-0.06-0.71,0.14-0.99c0.18-0.26,0.48-0.41,0.8-0.41
			c0.31-0.11,0.59-0.08,0.8,0.08c0.24,0.17,0.37,0.48,0.37,0.86c0.11,0.22,0.12,0.46,0.03,0.68c-0.09,0.21-0.26,0.38-0.5,0.5l0,0
			C159.4,83.46,159.22,83.49,159.06,83.49z M159.22,81.23c-0.11,0-0.23,0.02-0.35,0.06c-0.32,0-0.61,0.15-0.8,0.41
			c-0.2,0.28-0.25,0.64-0.14,0.99c0.22,0.66,0.9,0.95,1.64,0.7c0.23-0.12,0.41-0.3,0.5-0.5c0.1-0.22,0.08-0.45-0.03-0.68
			c0-0.38-0.14-0.68-0.37-0.86C159.55,81.28,159.39,81.23,159.22,81.23z M159.57,83.4L159.57,83.4L159.57,83.4z"/>
	</g>
	<g>
		<path class="st0" d="M217.79,67.74c-0.94,0.23-1.87-0.24-2.34-1.17c-0.7-1.4,0.24-3.04,1.64-3.27c1.4-0.24,3.04,0.7,3.04,2.1
			C220.12,66.57,219.19,67.74,217.79,67.74L217.79,67.74z"/>
		<path class="st1" d="M217.31,67.79c-0.76,0-1.47-0.45-1.87-1.23c-0.32-0.64-0.32-1.39,0.02-2.05c0.33-0.66,0.94-1.1,1.62-1.22
			c0.81-0.13,1.69,0.11,2.31,0.63c0.47,0.4,0.73,0.92,0.73,1.47c0,1.13-0.89,2.34-2.34,2.34l0,0
			C217.62,67.78,217.47,67.79,217.31,67.79z M217.53,63.26c-0.15,0-0.3,0.01-0.45,0.04c-0.68,0.11-1.29,0.57-1.62,1.23
			c-0.33,0.66-0.34,1.4-0.02,2.04c0.46,0.94,1.41,1.39,2.34,1.17l0,0c1.45,0,2.34-1.22,2.34-2.34c0-0.55-0.26-1.07-0.73-1.47
			C218.89,63.5,218.2,63.26,217.53,63.26z"/>
	</g>
	<g>
		<path class="st6" d="M217.79,66.57c-0.7,0.23-1.17-0.23-1.17-0.94c-0.24-0.46,0.23-1.17,0.7-1.17c0.7-0.23,1.17,0.46,1.17,0.94
			C218.48,66.1,218.26,66.57,217.79,66.57L217.79,66.57z"/>
		<path class="st7" d="M217.43,66.63c-0.17,0-0.32-0.04-0.45-0.14c-0.24-0.17-0.37-0.48-0.37-0.86c-0.11-0.21-0.07-0.5,0.08-0.75
			c0.16-0.25,0.4-0.41,0.62-0.41c0.33-0.11,0.58-0.01,0.73,0.11c0.29,0.21,0.44,0.58,0.44,0.83c0,0.75-0.25,1.17-0.7,1.17
			C217.67,66.61,217.54,66.63,217.43,66.63z M217.59,64.42c-0.08,0-0.17,0.02-0.27,0.04c-0.22,0-0.46,0.16-0.61,0.41
			c-0.16,0.26-0.19,0.54-0.08,0.75c0,0.38,0.14,0.69,0.37,0.86c0.21,0.15,0.49,0.18,0.8,0.08l0,0c0.45,0,0.7-0.42,0.7-1.17
			c0-0.25-0.15-0.62-0.44-0.83C217.95,64.49,217.79,64.42,217.59,64.42z"/>
	</g>
	<g>
		<path class="st6" d="M214.98,94.85c-2.1-3.74-4.67-5.14-8.65-5.38c0.46-0.94,0.7-1.4,0.94-2.81c0-0.24-0.94,0.46-0.94,0.46
			s-1.17-0.94-1.64-1.17c1.4-1.4,5.14-1.87,7.24-0.7C216.15,87.84,216.61,93.69,214.98,94.85L214.98,94.85z"/>
		<path class="st7" d="M214.98,94.85L214.98,94.85c-2.01-3.58-4.52-5.14-8.65-5.38c0.46-0.94,0.7-1.41,0.94-2.81
			c0-0.02-0.01-0.04-0.02-0.04c-0.01-0.01-0.02-0.01-0.03-0.01c-0.19,0-0.88,0.51-0.88,0.52c-0.02-0.01-1.18-0.94-1.64-1.17
			c1.45-1.45,5.24-1.82,7.24-0.7c2.76,1.69,3.84,4.72,3.91,6.81C215.9,93.39,215.57,94.43,214.98,94.85L214.98,94.85z M207.21,86.63
			c0.01,0,0.02,0,0.03,0.01c0.02,0.01,0.02,0.03,0.02,0.04c-0.23,1.39-0.46,1.87-0.93,2.8c4.13,0.25,6.64,1.81,8.65,5.38
			c0.59-0.42,0.91-1.46,0.87-2.78c-0.07-2.08-1.14-5.11-3.91-6.81c-2.01-1.11-5.8-0.75-7.24,0.7c0.46,0.23,1.63,1.16,1.64,1.17
			C206.34,87.13,207.02,86.63,207.21,86.63z"/>
	</g>
	<g>
		<path class="st6" d="M171.26,120.8c-0.7,0.46-1.87-0.46-2.81-2.1s-1.64-3.97-0.94-4.21c0.94-0.46,2.34,0.46,3.04,2.1
			C171.5,118.7,171.96,120.33,171.26,120.8L171.26,120.8z"/>
		<path class="st7" d="M170.86,120.92c-0.07,0-0.14-0.01-0.22-0.03c-0.67-0.16-1.48-0.98-2.18-2.19c-0.78-1.36-1.43-3.28-1.16-3.97
			c0.04-0.12,0.12-0.21,0.23-0.24c0.31-0.15,0.68-0.16,1.08-0.02c0.77,0.28,1.53,1.1,1.96,2.12c1.09,2.46,1.32,3.8,0.7,4.21l0,0
			C171.15,120.88,171.01,120.92,170.86,120.92z M168.05,114.37c-0.18,0-0.36,0.04-0.53,0.12c-0.11,0.04-0.18,0.11-0.23,0.24
			c-0.26,0.69,0.39,2.61,1.16,3.97c0.7,1.22,1.51,2.04,2.18,2.19c0.24,0.05,0.45,0.03,0.62-0.1c0.61-0.41,0.39-1.75-0.7-4.21
			c-0.44-1.03-1.19-1.83-1.96-2.12C168.41,114.4,168.22,114.37,168.05,114.37z"/>
	</g>
	<path class="st6" d="M108.14,55.58l-3.51,1.87l0.46-4.21c0,0-3.04-3.74-3.27-3.74l2.81-0.23c0.24,0.23,1.17,1.17,1.87,2.57
		C107.21,53.48,108.14,55.58,108.14,55.58L108.14,55.58z"/>
	<path class="st7" d="M104.64,57.45l0.46-4.21l-3.27-3.74l2.81-0.23c0.76,0.76,1.41,1.64,1.87,2.57c0.69,1.62,1.63,3.72,1.64,3.74
		L104.64,57.45z M104.64,49.27l-2.81,0.23l3.27,3.74l-0.46,4.21l3.51-1.87c-0.02-0.04-0.95-2.13-1.64-3.74
		C106.05,50.91,105.4,50.02,104.64,49.27z"/>
	<path class="st6" d="M99.97,72.64l-0.94,4.21c0,0-2.34-2.81-2.57-3.74c-0.23-1.17-0.23-8.65-0.23-8.88c0,0,2.1,0.7,2.1,0.94
		c0-0.24,3.74-1.17,3.74-1.4c0,0.23-0.7,4.67-0.7,4.67s2.81,3.51,2.57,3.51L99.97,72.64L99.97,72.64z"/>
	<path class="st7" d="M99.02,76.86c-0.03-0.03-2.34-2.82-2.57-3.74c-0.23-1.16-0.23-8.81-0.23-8.88l2.1,0.94l3.74-1.4l-0.7,4.67
		l2.57,3.51l-3.97,0.7L99.02,76.86z M96.22,64.23c0,0.08,0.01,7.73,0.23,8.88c0.24,0.92,2.55,3.71,2.57,3.74l0.94-4.21l3.97-0.7
		l-2.57-3.51l0.7-4.67l-3.74,1.4L96.22,64.23z"/>
	<path class="st6" d="M107.91,107.24l-0.23,4.21c0,0-3.27-1.17-3.27-1.4c-0.94-1.4-3.51-9.59-3.51-9.59c0-0.23,2.81,0.94,2.81,0.94
		s3.27-3.51,3.51-3.27c0,0,1.17,3.97,0.94,3.97l3.74,3.04L107.91,107.24L107.91,107.24z"/>
	<path class="st7" d="M107.68,111.46l-3.27-1.4c-0.92-1.39-3.48-9.51-3.51-9.59l2.81,0.94l3.51-3.27l0.94,3.97l3.74,3.04l-3.97,2.1
		L107.68,111.46z M100.9,100.47c0.03,0.08,2.58,8.2,3.51,9.59l3.27,1.4l0.24-4.21l3.97-2.1l-3.74-3.04l-0.94-3.97l-3.51,3.27
		L100.9,100.47z"/>
	<g>
		<path class="st8" d="M160.75,115.66c-0.24-0.46-3.97-3.74-5.38-3.74c-0.24,0-0.46,0.24-1.4,0c-2.1-0.94-16.13,0.24-24.31,5.84
			c-8.66,5.84-13.33,13.56-14.96,24.78c-3.04-2.57-7.01-4.21-10.52-4.67c0-7.95,4.44-20.8,14.02-28.99
			c13.56-10.99,28.29-10.99,37.41-6.78C162.84,105.61,162.84,112.86,160.75,115.66L160.75,115.66z"/>
		<path class="st9" d="M114.69,142.55c-2.88-2.43-6.81-4.18-10.52-4.68c0-8.45,4.81-21.13,14.02-28.99
			c6.19-5.02,13.23-8.16,20.36-9.09c6.06-0.79,12.11,0.04,17.04,2.31c4.1,1.98,5.57,4.95,6.09,7.08c0.58,2.39,0.21,4.94-0.95,6.48
			l0,0l0,0c-0.22-0.43-3.94-3.74-5.38-3.74c-0.06,0-0.12,0.02-0.2,0.04c-0.2,0.05-0.51,0.14-1.2-0.04
			c-1.05-0.46-5.03-0.42-9.88,0.46c-3.36,0.61-9.7,2.13-14.44,5.38c-4.37,2.95-7.67,6.35-10.11,10.38
			C117.11,132.17,115.52,136.88,114.69,142.55z M143.05,99.5c-1.48,0-2.98,0.1-4.48,0.3c-7.13,0.92-14.17,4.07-20.36,9.09
			c-9.21,7.86-14.02,20.53-14.02,28.99c3.71,0.5,7.65,2.25,10.52,4.68c0.82-5.66,2.41-10.37,4.85-14.41
			c2.44-4.03,5.74-7.42,10.11-10.38c4.73-3.24,11.08-4.76,14.44-5.38c4.85-0.89,8.83-0.94,9.88-0.46c0.69,0.17,1,0.1,1.2,0.04
			c0.07-0.02,0.14-0.04,0.2-0.04c1.43,0,5.16,3.31,5.38,3.74c1.16-1.54,1.53-4.08,0.95-6.48c-0.52-2.14-2-5.1-6.09-7.08
			C151.89,100.39,147.55,99.5,143.05,99.5z"/>
	</g>
	<g>
		<path class="st6" d="M155.6,128.29c-1.64-2.34-5.61-4.44-6.78-2.57c-0.7,0.7-0.7,2.1-0.23,3.51c-2.34-2.34-5.61-8.88-3.27-10.29
			C148.12,116.6,154.9,125.94,155.6,128.29L155.6,128.29z"/>
		<path class="st7" d="M148.59,129.22c-1.84-1.85-4.36-6.41-4.05-8.93c0.08-0.64,0.34-1.1,0.78-1.36c0.46-0.39,1.06-0.47,1.78-0.25
			c3.26,0.98,7.97,7.82,8.51,9.61l0,0c-1.24-1.77-3.71-3.29-5.33-3.29c-0.02,0-0.04,0-0.06,0c-0.63,0.02-1.1,0.26-1.39,0.72
			C148.17,126.36,148.08,127.7,148.59,129.22z M146.37,118.56c-0.4,0-0.76,0.12-1.05,0.38c-0.44,0.26-0.7,0.72-0.78,1.36
			c-0.31,2.52,2.2,7.08,4.05,8.93c-0.5-1.52-0.41-2.86,0.24-3.51c0.29-0.46,0.75-0.7,1.39-0.72c0.02,0,0.04,0,0.06,0
			c1.62,0,4.09,1.52,5.32,3.29c-0.54-1.79-5.25-8.62-8.51-9.6C146.83,118.6,146.6,118.56,146.37,118.56z"/>
	</g>
	<g>
		<path class="st6" d="M158.88,124.54c-1.4-1.87-2.57-5.61-1.4-6.08c2.57-0.94,7.24,7.71,7.02,7.95
			C163.08,123.14,159.57,121.27,158.88,124.54L158.88,124.54z"/>
		<path class="st7" d="M164.48,126.41c-0.87-2.02-2.6-3.58-3.95-3.58c-0.05,0-0.11,0.01-0.16,0.01c-0.76,0.07-1.28,0.67-1.5,1.7l0,0
			l0,0c-0.06-0.07-0.11-0.15-0.17-0.23c0.05,0.08,0.11,0.16,0.17,0.23c0.22-1.04,0.75-1.63,1.5-1.7c0.05-0.01,0.11-0.01,0.16-0.01
			C161.88,122.83,163.62,124.39,164.48,126.41c0.1-0.1-0.65-1.64-1.75-3.36c-0.94-1.46-3.18-4.67-4.86-4.67
			c-0.14,0-0.28,0.03-0.41,0.07c-0.2,0.08-0.33,0.25-0.41,0.53c-0.15,0.54-0.01,1.57,0.36,2.68c-0.36-1.05-0.53-2.07-0.36-2.68
			c0.07-0.27,0.22-0.45,0.41-0.53c0.13-0.05,0.27-0.07,0.41-0.07c1.68,0,3.92,3.2,4.86,4.67
			C163.84,124.78,164.58,126.31,164.48,126.41z"/>
	</g>
	<g>
		<path class="st10" d="M156.07,161.48c-3.74,0.24-7.95-5.61-6.55-6.55c0.94-0.46,2.34,0.23,3.04,1.64c0.7,1.17,1.4,2.57,2.1,2.34
			c0.46,0-0.94-1.17,0-1.64C156.54,156.8,159.81,161.01,156.07,161.48L156.07,161.48z"/>
		<path class="st11" d="M155.84,161.48c-2.87,0-5.84-3.38-6.46-5.24c-0.22-0.66-0.17-1.11,0.14-1.32c0.45-0.23,1.04-0.18,1.61,0.12
			c0.59,0.31,1.1,0.85,1.43,1.52c0.09,0.14,0.17,0.29,0.26,0.44c0.55,0.95,1.13,1.93,1.69,1.93c0.05,0,0.11-0.01,0.15-0.03
			c0.04,0,0.07-0.02,0.09-0.04c0.04-0.06-0.04-0.2-0.14-0.38c-0.14-0.26-0.34-0.61-0.25-0.9c0.04-0.13,0.14-0.25,0.31-0.32
			c0.1-0.03,0.2-0.04,0.31-0.04c0.7,0,1.49,0.53,2.01,1.11c0.67,0.75,0.95,1.58,0.72,2.17c-0.2,0.52-0.76,0.85-1.64,0.96l0,0
			C155.99,161.48,155.92,161.48,155.84,161.48z M150.16,154.79c-0.23,0-0.44,0.04-0.63,0.14c-0.32,0.21-0.36,0.67-0.14,1.32
			c0.62,1.85,3.59,5.24,6.46,5.24c0.07,0,0.15-0.01,0.23-0.01l0,0c0.88-0.11,1.45-0.44,1.64-0.96c0.22-0.59-0.05-1.43-0.72-2.17
			c-0.61-0.68-1.55-1.26-2.32-1.08c-0.16,0.08-0.26,0.19-0.31,0.32c-0.09,0.29,0.11,0.64,0.25,0.9c0.1,0.18,0.18,0.32,0.14,0.38
			c-0.02,0.02-0.04,0.04-0.09,0.04c-0.05,0.02-0.11,0.03-0.15,0.03c-0.57,0-1.14-0.98-1.69-1.92c-0.09-0.15-0.17-0.3-0.26-0.44
			c-0.33-0.67-0.85-1.21-1.43-1.52C150.8,154.88,150.47,154.79,150.16,154.79z M156.07,161.48L156.07,161.48L156.07,161.48z"/>
	</g>
	<g>
		<path class="st6" d="M130.35,166.39c-2.1,0.94-12.86,0.94-14.26,0.94c2.81-1.64,5.14-7.24,4.67-11.69
			c3.04,3.27,6.78,5.61,10.52,6.78C129.88,163.82,130.12,165.92,130.35,166.39L130.35,166.39z"/>
		<path class="st7" d="M116.09,167.32c2.86-1.68,5.13-7.35,4.67-11.69c2.95,3.18,6.68,5.58,10.52,6.78
			c-1.44,1.44-1.14,3.56-0.94,3.97l0,0C128.4,167.25,118.95,167.32,116.09,167.32z M120.77,155.64c0.46,4.34-1.82,10.02-4.67,11.69
			c2.85,0,12.31-0.07,14.26-0.94c-0.21-0.41-0.5-2.53,0.94-3.97C127.45,161.21,123.71,158.81,120.77,155.64z"/>
	</g>
	<path class="st12" d="M177.58,158.67c0.46,8.65-10.52,16.36-28.99,9.11c-6.31-2.34-12.62-3.27-13.33-2.57
		c-0.7,0.94-3.27,1.17-3.27,0.46c-0.46-0.94,0.23-3.04,3.27-3.51c4.44-0.7,7.24-0.23,11.46,0.7c2.1,2.57,5.14,4.91,8.88,5.14
		c4.21,0,6.55-4.21,7.95-7.02c0.46-0.94,4.91-2.81,6.08-6.31c0-1.4,0.94,0.7,0.94,1.4c0.7,3.51-2.81,7.48-3.97,8.18
		c-0.23,0.23,0,0.23,0.46,0c2.34-1.17,3.97-3.04,4.91-6.08c0.7-1.64,0-4.21-1.17-5.38c0-0.23,1.4-1.4,1.4-1.4
		C175,152.36,177.34,155.17,177.58,158.67L177.58,158.67z"/>
	<path class="st13" d="M162.14,170.67c-3.61,0-8.1-0.75-13.55-2.89c-6.4-2.37-12.64-3.24-13.33-2.57c-0.55,0.73-2.24,1.04-2.95,0.8
		c-0.21-0.07-0.32-0.18-0.32-0.32c-0.22-0.43-0.17-1.04,0.12-1.61c0.3-0.58,1.1-1.59,3.15-1.9c4.53-0.71,7.35-0.21,11.46,0.7
		c1.81,2.2,4.81,4.89,8.88,5.14c3.91,0,6.21-3.55,7.95-7.02c0.15-0.3,0.72-0.7,1.45-1.22c1.53-1.08,3.84-2.72,4.63-5.09
		c0-0.32,0.04-0.47,0.14-0.47c0.26,0,0.8,1.34,0.8,1.88c0.68,3.39-2.68,7.41-3.97,8.18c-0.07,0.08-0.11,0.13-0.09,0.16
		c0.04,0.05,0.26-0.02,0.55-0.16c2.45-1.23,4.02-3.16,4.91-6.08c0.72-1.69-0.02-4.23-1.17-5.38l1.4-1.4c3,1,5.16,3.91,5.38,7.25
		c0.18,3.46-1.46,6.71-4.53,8.93C171.41,168.78,167.9,170.67,162.14,170.67z M136.45,165c2.24,0,7.13,0.94,12.13,2.8
		c14.15,5.55,21.81,1.72,24.45-0.18c3.07-2.22,4.72-5.47,4.53-8.93c-0.22-3.33-2.38-6.25-5.38-7.25l-1.4,1.4
		c1.15,1.15,1.89,3.69,1.17,5.38c-0.89,2.92-2.46,4.85-4.91,6.08c-0.3,0.15-0.51,0.21-0.55,0.16c-0.02-0.03,0.01-0.08,0.09-0.16
		c1.29-0.77,4.66-4.79,3.97-8.18c0-0.53-0.53-1.88-0.8-1.88c-0.09,0-0.14,0.16-0.14,0.47c-0.79,2.38-3.1,4.02-4.63,5.1
		c-0.72,0.51-1.29,0.91-1.45,1.22c-1.73,3.47-4.03,7.02-7.95,7.02c-4.07-0.25-7.08-2.94-8.88-5.14c-4.1-0.91-6.92-1.42-11.46-0.7
		c-2.04,0.32-2.85,1.32-3.15,1.9c-0.29,0.57-0.34,1.18-0.12,1.61c0,0.14,0.11,0.25,0.32,0.32c0.71,0.24,2.4-0.06,2.95-0.8
		C135.41,165.07,135.83,165,136.45,165z"/>
	<g>
		<path class="st12" d="M128.25,200.28c-3.04,3.97-20.34-4.67-27.12-17.76l12.86-1.4C118.9,191.4,130.35,197.71,128.25,200.28
			L128.25,200.28z"/>
		<path class="st13" d="M125.66,201.26c-0.21,0-0.43-0.02-0.67-0.03c-6.05-0.53-18.36-8.08-23.86-18.71l12.86-1.4
			c2.55,5.34,6.93,9.67,10.13,12.85c2.99,2.95,5.15,5.09,4.13,6.32l0,0C127.76,200.92,126.87,201.26,125.66,201.26z M113.99,181.12
			l-12.86,1.4c5.51,10.62,17.81,18.18,23.86,18.71c0.23,0.02,0.45,0.03,0.67,0.03c1.22,0,2.1-0.33,2.59-0.97
			c1.01-1.24-1.15-3.38-4.13-6.32C120.92,190.79,116.54,186.46,113.99,181.12z"/>
	</g>
	<g>
		<path class="st12" d="M184.12,171.77c-1.4-1.64-2.1-1.87-2.81-2.1c-1.63-0.46-3.04,1.17-3.27,1.87c0,0-3.97-1.4-6.08-0.94
			c-1.87,0.7-2.57,1.64-3.97,3.97c-0.7,0.7-7.71,2.81-12.86,7.48c-4.21,3.74-7.01,7.02-8.42,11.92c-1.17-0.23-2.1-0.94-2.34-1.87
			c-1.17-3.97,3.51-6.31,3.51-10.05c0.46-0.46,1.4-0.46,3.74,0.23c0.24-0.23,0-0.23,0.24-0.46c-0.7-0.46-1.4-0.7-2.34-0.94
			c0.23-0.46,2.1-0.46,3.04,0c0.46-0.23,0.23-0.23,0.23-0.46c-9.82-3.51-19.64,7.95-21.04,13.09c-3.27-2.34-4.91-4.21-7.48-7.02
			c-0.23,0-0.46-0.23-0.23,0.23c2.34,4.21,11.22,11.46,8.65,15.66c-3.27,5.38-23.38,2.57-35.53-19.4l2.81-0.46
			c11.69,19.64,27.36,22.21,29.69,18.94c2.1-2.81-0.23-4.67-8.18-12.39c-5.84-5.61-7.48-12.39-11.22-16.83
			c-2.1-2.57-6.55-4.21-9.59-1.87c0,0-3.04,0.24-3.27,0.24c-0.23-0.7-0.46-1.17-0.46-1.17c0.94-1.17,2.81-2.34,3.97-2.57
			c5.14-1.63,10.05-1.17,16.13,8.88c0.7,1.17,1.87,3.04,2.1,3.51c0.46,0,0.46,0,0.46-0.23c-1.17-3.27-3.74-7.71-5.14-9.59
			c4.67-1.4,14.26,0.23,23.38-3.51c7.24,0.7,17.77,6.78,26.88,5.84c8.42-0.94,11.92-5.14,14.02-8.42c1.87-0.23,6.55,5.38,6.78,6.55
			C185.29,170.13,184.59,170.83,184.12,171.77L184.12,171.77z"/>
		<path class="st13" d="M126.62,204.74c-0.11,0-0.22-0.01-0.32-0.01c-8.61-0.18-20.97-6.97-29.14-21.75l2.81-0.46
			c3.9,6.56,8.72,11.92,13.94,15.5c4.07,2.8,8.37,4.48,11.8,4.62c1.92,0.08,3.36-0.35,3.96-1.18c1.94-2.6,0.16-4.32-6.49-10.75
			c-0.53-0.52-1.1-1.06-1.69-1.64c-3.46-3.31-5.47-7.1-7.25-10.44c-1.25-2.35-2.44-4.58-3.97-6.39c-0.19-0.24-0.4-0.46-0.63-0.68
			c0.23,0.22,0.44,0.44,0.63,0.68c1.53,1.82,2.72,4.04,3.97,6.39c1.78,3.34,3.8,7.12,7.25,10.44c0.6,0.58,1.16,1.13,1.69,1.64
			c6.65,6.43,8.44,8.15,6.49,10.75c-0.55,0.77-1.82,1.19-3.51,1.19c-0.14,0-0.3-0.01-0.44-0.01c-3.43-0.14-7.74-1.83-11.8-4.62
			c-5.21-3.58-10.03-8.94-13.94-15.5l-2.81,0.46c8.17,14.78,20.52,21.57,29.14,21.75c3.12,0.06,5.45-0.79,6.39-2.35
			c1.78-2.91-1.89-7.24-5.14-11.07c-1.44-1.69-2.79-3.29-3.51-4.6c-0.09-0.17-0.11-0.25-0.09-0.29c0.02-0.02,0.06-0.01,0.13,0.02
			c0.05,0.02,0.12,0.04,0.19,0.04l0.47,0.52c2.29,2.5,3.94,4.31,7.01,6.5c0.86-3.13,5.07-9.05,10.76-12.02
			c3.58-1.87,7.03-2.23,10.28-1.07c0,0.07,0.02,0.12,0.04,0.16c0.04,0.1,0.06,0.14-0.27,0.31c-0.77-0.39-2.08-0.44-2.69-0.24
			c-0.18,0.06-0.3,0.14-0.34,0.24c0.96,0.24,1.64,0.46,2.34,0.94c-0.12,0.12-0.12,0.18-0.12,0.24s0,0.12-0.12,0.24
			c-2.22-0.67-3.24-0.73-3.74-0.24c0,1.68-0.95,3.09-1.87,4.45c-1.13,1.68-2.29,3.4-1.64,5.6c0.23,0.91,1.13,1.63,2.34,1.87
			c1.42-4.96,4.27-8.24,8.42-11.93c3.66-3.33,8.36-5.39,10.88-6.5c1.07-0.47,1.78-0.78,1.98-0.98c1.39-2.32,2.1-3.27,3.97-3.97
			c2.08-0.45,6.04,0.92,6.08,0.94c0.25-0.77,1.68-2.34,3.27-1.87c0.69,0.23,1.4,0.46,2.81,2.1c0.46-0.92,1.14-1.6,1.39-1.85
			l0.02-0.02c-0.22-1.09-4.71-6.55-6.66-6.55c-0.04,0-0.08,0.01-0.12,0.01c-2.21,3.44-5.81,7.5-14.02,8.42
			c-5.51,0.58-11.63-1.46-17.03-3.25c-3.59-1.19-6.99-2.32-9.85-2.59c-5.7,2.34-11.59,2.58-16.33,2.77
			c-2.84,0.11-5.29,0.22-7.04,0.74c1.34,1.8,3.95,6.24,5.15,9.59c0,0.24,0,0.24-0.46,0.24c-0.15-0.31-0.73-1.25-1.28-2.16
			c-0.29-0.48-0.59-0.96-0.82-1.35c-4.4-7.27-8.19-9.6-12.08-9.6c-1.33,0-2.67,0.27-4.05,0.71c-1.22,0.25-3.07,1.45-3.97,2.57
			c0.01,0.01,0.24,0.48,0.46,1.17c0.23,0,3.24-0.23,3.27-0.24c1.38-1.07,3.21-1.38,5.14-0.9c0.95,0.24,1.89,0.67,2.71,1.22
			c-2.35-1.58-5.58-2.07-7.85-0.32c-0.03,0.01-3.04,0.24-3.27,0.24c-0.23-0.69-0.46-1.16-0.46-1.17c0.9-1.13,2.76-2.32,3.97-2.57
			c5.42-1.73,10.24-0.88,16.13,8.88c0.24,0.4,0.53,0.88,0.82,1.35c0.55,0.91,1.13,1.84,1.28,2.16c0.46,0,0.46,0,0.46-0.24
			c-1.19-3.34-3.8-7.79-5.15-9.59c1.75-0.53,4.21-0.62,7.04-0.74c4.74-0.19,10.64-0.43,16.33-2.77c2.87,0.27,6.26,1.4,9.85,2.59
			c4.77,1.58,10.1,3.35,15.09,3.35c0.66,0,1.31-0.03,1.95-0.1c8.23-0.91,11.81-4.98,14.02-8.42c0.04-0.01,0.08-0.01,0.12-0.01
			c1.96,0,6.45,5.47,6.66,6.55l-0.01,0.02c-0.25,0.25-0.93,0.94-1.39,1.85l0,0c-1.4-1.63-2.11-1.87-2.81-2.1
			c-0.2-0.05-0.39-0.08-0.59-0.08c-1.35,0-2.46,1.28-2.68,1.96c-0.04-0.02-3.99-1.39-6.08-0.94c-1.88,0.7-2.58,1.65-3.97,3.97
			c-0.2,0.2-0.91,0.51-1.98,0.98c-2.53,1.1-7.22,3.17-10.88,6.5c-4.14,3.68-7,6.96-8.42,11.93c-1.22-0.24-2.11-0.96-2.34-1.87
			c-0.64-2.2,0.52-3.93,1.64-5.6c0.91-1.37,1.87-2.78,1.87-4.45c0.5-0.49,1.52-0.43,3.74,0.24c0.12-0.12,0.12-0.18,0.12-0.24
			s0-0.12,0.12-0.24c-0.7-0.46-1.39-0.69-2.34-0.94c0.04-0.1,0.16-0.18,0.34-0.24c0.61-0.21,1.93-0.15,2.69,0.24
			c0.33-0.17,0.31-0.22,0.27-0.31c-0.02-0.04-0.04-0.09-0.04-0.16c-3.24-1.16-6.69-0.8-10.28,1.07c-5.69,2.96-9.91,8.89-10.76,12.02
			c-3.06-2.19-4.72-3.99-7.01-6.5l-0.47-0.52l0,0c-0.07,0-0.14-0.02-0.19-0.04c-0.06-0.02-0.11-0.04-0.13-0.01
			c-0.02,0.03,0.01,0.11,0.09,0.28c0.72,1.3,2.08,2.9,3.51,4.6c3.24,3.83,6.92,8.16,5.14,11.07
			C131.77,203.89,129.58,204.74,126.62,204.74z"/>
	</g>
	<g>
		<path class="st4" d="M167.53,178.78c-6.08,2.57-9.59,3.74-15.66,9.11c4.21-5.84,7.95-8.42,15.89-11.93
			C167.53,176.91,167.53,177.37,167.53,178.78L167.53,178.78z"/>
		<path class="st5" d="M151.86,187.89c4.02-5.58,7.58-8.25,15.89-11.93c-0.24,0.94-0.24,1.41-0.24,2.81l0,0
			c-0.57,0.24-1.11,0.46-1.64,0.69C160.76,181.61,157.37,183.02,151.86,187.89z M167.76,175.97c-8.31,3.67-11.88,6.35-15.89,11.93
			c5.51-4.88,8.89-6.29,14.02-8.43c0.53-0.22,1.07-0.45,1.64-0.69C167.53,177.38,167.53,176.91,167.76,175.97z M167.53,178.78
			L167.53,178.78L167.53,178.78z"/>
	</g>
	<g>
		<path class="st4" d="M182.95,179.24c-0.7,0-0.94-0.46-0.94-0.46s-1.87-5.38-2.81-6.31c0.23-1.17,1.87-1.64,2.81-1.17
			C185.29,173.4,184.82,179.24,182.95,179.24L182.95,179.24z"/>
		<path class="st5" d="M182.95,179.24c-0.69,0-0.94-0.46-0.94-0.46c-0.02-0.05-1.88-5.38-2.81-6.31c0.1-0.46,0.42-0.86,0.92-1.1
			c0.61-0.3,1.36-0.32,1.88-0.06c2.37,1.52,2.71,4.81,2.19,6.57C183.95,178.74,183.5,179.24,182.95,179.24z M181.18,171.12
			c-0.35,0-0.72,0.08-1.05,0.24c-0.5,0.25-0.83,0.64-0.92,1.1c0.92,0.92,2.78,6.26,2.81,6.31c0.01,0.01,0.24,0.46,0.94,0.46
			c0.54,0,1-0.5,1.26-1.37c0.52-1.75,0.17-5.05-2.19-6.57C181.78,171.18,181.49,171.12,181.18,171.12z"/>
	</g>
	<g>
		<path class="st12" d="M189.26,176.91c-0.46-0.46-2.1-1.64-3.04-1.87c0.7-0.7,2.1-0.7,2.34-0.7
			C189.03,175.04,189.5,176.21,189.26,176.91L189.26,176.91z"/>
		<path class="st13" d="M189.26,176.91L189.26,176.91c-0.44-0.44-2.08-1.63-3.04-1.87c0.63-0.63,1.84-0.7,2.34-0.7
			C188.98,174.96,189.51,176.16,189.26,176.91L189.26,176.91z M188.57,174.34c-0.49,0-1.71,0.07-2.34,0.7
			c0.96,0.24,2.6,1.43,3.04,1.87C189.51,176.16,188.98,174.96,188.57,174.34z"/>
	</g>
	<g>
		<path class="st4" d="M189.03,178.78c0,0.46-2.1,0-3.74-1.4c-0.23-0.23-0.23-1.17,0-1.4C186.46,175.97,189.26,178.08,189.03,178.78
			L189.03,178.78z"/>
		<path class="st5" d="M188.68,178.95c-0.67,0-2.16-0.52-3.39-1.58c-0.11-0.11-0.18-0.37-0.18-0.69s0.07-0.6,0.18-0.71
			c0.91,0,2.89,1.33,3.54,2.23c0.18,0.25,0.25,0.44,0.2,0.58c0,0.06-0.04,0.11-0.1,0.13C188.87,178.94,188.79,178.95,188.68,178.95z
			 M185.3,175.97c-0.11,0.11-0.18,0.39-0.18,0.71s0.07,0.59,0.18,0.69c1.43,1.23,3.22,1.74,3.64,1.54c0.06-0.03,0.1-0.07,0.1-0.13
			l0,0c0.04-0.14-0.02-0.33-0.2-0.58C188.18,177.3,186.21,175.97,185.3,175.97z"/>
	</g>
	<path class="st4" d="M191.37,182.99c-2.57,1.4-6.55-2.34-6.55-3.97c0.24,0,0.24-0.7,0.24-0.7s3.04,2.57,4.44,1.4
		c1.4-0.94,0.46-5.14,0.46-5.14l0.94,0.23c0,0,0-0.23,0-0.46c-1.64-2.1-4.91-0.94-5.84-0.24c0,0.24-0.24-0.94-0.46-1.17
		c0.94-1.4,2.1-2.57,3.97-2.81C192.3,169.66,193.94,181.35,191.37,182.99L191.37,182.99z"/>
	<path class="st5" d="M190.1,183.29c-0.72,0-1.53-0.25-2.36-0.75c-1.56-0.92-2.93-2.58-2.93-3.53l0.24-0.7
		c0.03,0.03,3.05,2.55,4.44,1.4c1.38-0.92,0.48-5.1,0.46-5.15l0.94,0.24v-0.46c-1.6-2.05-4.82-1-5.84-0.24
		c-0.01-0.01-0.24-0.94-0.46-1.17c0.78-1.18,1.94-2.55,3.97-2.81c0.07-0.01,0.14-0.02,0.22-0.02c1.14,0,2.16,1.13,2.91,3.21
		c1.25,3.46,1.34,8.6-0.32,9.66l0,0C190.99,183.19,190.57,183.29,190.1,183.29z M185.06,178.31l-0.24,0.7
		c0,0.96,1.37,2.61,2.93,3.53c1.37,0.81,2.65,0.96,3.62,0.44l0,0c1.66-1.06,1.57-6.2,0.32-9.66c-0.75-2.08-1.78-3.21-2.91-3.21
		c-0.07,0-0.14,0.01-0.22,0.02c-2.03,0.25-3.19,1.63-3.97,2.81c0.23,0.23,0.46,1.16,0.46,1.17c1.02-0.76,4.25-1.82,5.84,0.24v0.46
		l-0.94-0.24c0.01,0.04,0.92,4.22-0.46,5.15C188.11,180.88,185.09,178.34,185.06,178.31z"/>
	<g>
		<path class="st12" d="M211,238.63c-11.45,6.78-25.95,1.64-29.22-3.51c-5.61-8.18-3.04-19.64-1.4-27.58
			c1.87-8.88,3.27-18.7,1.64-27.12c1.4,0.7,2.1,0,2.1,0c1.4,2.1,4.21,4.44,7.01,4.68c1.17,1.4,5.84,6.55,5.38,18
			c-0.46,12.16-8.18,22.21-1.64,30.86c3.97,5.38,9.35,4.21,11.46,3.51c0.94-0.46,1.17-0.7,0.94-1.17c-1.4,0.46-4.44,1.4-7.48,0.24
			c-3.27-1.17-6.78-6.31-5.61-11.69c3.04-3.27,13.8-8.18,20.34-4.44C219.89,223.43,218.26,234.42,211,238.63L211,238.63z"/>
		<path class="st13" d="M198.71,241.87c-1.77,0-3.57-0.18-5.38-0.53c-5.19-1.03-9.83-3.53-11.54-6.22
			c-5.46-7.96-3.19-18.92-1.54-26.92l0.14-0.67c1.68-7.95,3.37-18.21,1.64-27.12c1.39,0.69,2.1,0.01,2.1,0
			c1.39,2.09,4.17,4.44,7.02,4.68l0.13,0.15c1.41,1.68,5.7,6.77,5.25,17.85c-0.17,4.38-1.26,8.43-2.32,12.35
			c-1.88,6.96-3.5,12.97,0.68,18.51c3.78,5.11,8.8,4.39,11.46,3.5c0.91-0.46,1.17-0.69,0.94-1.17c-1.85,0.62-4.66,1.32-7.48,0.24
			c-1.68-0.6-3.35-2.19-4.47-4.26c-1.27-2.34-1.68-4.97-1.14-7.42c2.97-3.2,13.74-8.21,20.34-4.44c2,1.13,3.16,3.48,3.18,6.44
			c0.03,3.93-2.03,9.09-6.68,11.79l0,0C207.38,240.77,203.13,241.87,198.71,241.87z M182.02,180.42c1.73,8.91,0.04,19.17-1.64,27.12
			l-0.14,0.67c-1.65,8.01-3.92,18.96,1.54,26.92c1.72,2.69,6.36,5.19,11.54,6.22c6.32,1.25,12.6,0.29,17.68-2.72
			c4.65-2.69,6.71-7.87,6.68-11.79c-0.02-2.96-1.18-5.31-3.18-6.44c-6.59-3.76-17.36,1.24-20.34,4.44
			c-0.53,2.45-0.13,5.08,1.14,7.42c1.12,2.08,2.8,3.67,4.47,4.27c2.82,1.09,5.62,0.39,7.48-0.24c0.24,0.48-0.03,0.71-0.94,1.17
			c-2.66,0.89-7.68,1.61-11.46-3.5c-4.18-5.53-2.56-11.55-0.68-18.51c1.06-3.92,2.16-7.97,2.32-12.35
			c0.45-11.08-3.84-16.17-5.25-17.85l-0.13-0.15c-2.83-0.24-5.62-2.59-7.02-4.68C184.11,180.43,183.39,181.11,182.02,180.42z"/>
	</g>
	<g>
		<path class="st12" d="M177.81,212.68c-7.48,12.86-22.44,21.04-35.3,25.48c-16.13,5.61-26.42,3.04-43.71,7.48
			c-13.56,3.74-14.26,8.42-16.83,10.05c-4.91,0.94-12.62,0.23-14.02-4.21c-4.21-13.09,30.86-12.86,51.43-24.55
			c10.29-6.08,29.69-19.87,32.03-26.88c-0.23-0.23-3.74,3.74-5.14,4.67c-0.24-6.08,2.81-11.92,6.78-16.13
			c5.14-5.38,13.09-7.95,14.49-8.42c0,1.17,0.94,6.31,3.74,7.71c1.64,0.7,7.48-2.1,9.82-7.71c0.7,4.21,0.23,13.56-0.46,18
			C179.91,204.26,178.28,210.8,177.81,212.68L177.81,212.68z"/>
		<path class="st13" d="M77.96,256.05c-1.51,0-3.01-0.15-4.33-0.45c-2.16-0.49-4.9-1.6-5.7-4.12c-0.55-1.73-0.45-3.24,0.32-4.66
			c2.53-4.62,11.99-7.11,22.94-9.99c9.35-2.46,19.95-5.24,28.17-9.91c4.67-2.75,12.11-7.65,19-13.09
			c5.23-4.13,11.73-9.88,13.03-13.8c-0.01-0.01-0.02-0.01-0.03-0.01c-0.19,0-1.08,0.89-2.1,1.9c-1.08,1.09-2.31,2.31-3.02,2.78
			c-0.21-5.46,2.26-11.35,6.78-16.13c3.24-3.39,8.36-6.37,14.4-8.38l0.1-0.03c0,1.24,0.94,6.31,3.74,7.71
			c0.52,0.22,1.45,0.09,2.54-0.35c2.34-0.95,5.64-3.45,7.28-7.36c0.71,4.24,0.21,13.7-0.46,18c-0.46,4.03-1.41,8.91-2.81,14.49l0,0
			c-8.42,14.48-25.73,22.18-35.3,25.48c-8.8,3.06-15.82,3.68-23.26,4.35c-6.19,0.55-12.59,1.11-20.45,3.13
			c-10.18,2.81-13.1,6.13-15.03,8.33c-0.65,0.74-1.16,1.32-1.8,1.73C80.69,255.94,79.32,256.05,77.96,256.05z M151.36,200.04
			c0.02,0,0.02,0.01,0.03,0.01c-1.31,3.91-7.81,9.66-13.03,13.8c-6.89,5.45-14.32,10.33-19,13.09c-8.22,4.67-18.82,7.46-28.17,9.91
			c-10.95,2.88-20.41,5.36-22.94,9.99c-0.77,1.41-0.88,2.93-0.32,4.66c0.8,2.53,3.53,3.63,5.7,4.12c2.53,0.57,5.63,0.61,8.33,0.09
			c0.64-0.41,1.15-0.99,1.8-1.73c1.93-2.19,4.85-5.52,15.03-8.32c7.87-2.02,14.27-2.59,20.45-3.14c7.44-0.66,14.46-1.28,23.26-4.34
			c9.57-3.31,26.87-11.01,35.3-25.48c1.39-5.59,2.34-10.46,2.81-14.49c0.68-4.3,1.18-13.75,0.46-18c-1.63,3.92-4.94,6.41-7.28,7.36
			c-1.1,0.45-2.03,0.58-2.54,0.35c-2.81-1.4-3.74-6.48-3.74-7.71l-0.1,0.04c-6.03,2.01-11.15,4.99-14.4,8.38
			c-4.52,4.79-6.99,10.66-6.78,16.13c0.7-0.46,1.93-1.7,3.02-2.78C150.28,200.93,151.17,200.04,151.36,200.04z M177.81,212.68
			L177.81,212.68L177.81,212.68z"/>
	</g>
	<g>
		<path class="st0" d="M100.2,240.26c-12.62,4.44-18.23,11.92-24.55,9.59c7.02,0.46,14.73-7.95,24.31-11.22
			c5.84-2.1,17.29-3.51,23.38-1.17C113.76,236.28,103.93,238.86,100.2,240.26L100.2,240.26z"/>
		<path class="st1" d="M78.1,250.29c-0.82,0-1.63-0.14-2.45-0.44c0.18,0.02,0.37,0.02,0.55,0.02c3.86,0,8.02-2.59,12.4-5.32
			c3.57-2.22,7.26-4.52,11.36-5.92c5.58-2.01,17.1-3.58,23.38-1.17c-6.27-2.41-17.8-0.83-23.38,1.17c-4.1,1.39-7.79,3.7-11.36,5.92
			c-4.39,2.73-8.54,5.32-12.4,5.32c-0.18,0-0.38-0.01-0.55-0.02c3.71,1.37,7.19-0.66,12-3.46c3.28-1.91,7.36-4.3,12.54-6.12l0,0
			c4.19-1.57,13.74-3.92,23.03-2.82c-9.29-1.1-18.84,1.25-23.03,2.82c-5.18,1.82-9.27,4.21-12.54,6.12
			C83.91,248.57,80.97,250.29,78.1,250.29z M123.34,237.46L123.34,237.46L123.34,237.46z"/>
	</g>
	<g>
		<path class="st4" d="M137.13,248.91c1.64-0.46,3.04-1.4,4.21-2.57c0.23,6.55-6.31,7.24-9.82,9.82
			c-8.18,6.31-14.49,18.47-26.18,16.6c0.23,0,3.27-2.34,2.81-2.57c-0.7-0.46-11.22,5.61-17.53,3.04c-2.57-0.94-4.67-3.51-3.97-6.08
			c0.94-2.57,6.78-3.74,12.16-3.51c-4.21-1.87-8.88-0.7-12.62,1.63c-1.64-2.34-2.1-5.84-1.4-8.42
			c6.55-12.16,30.63-12.16,36.93-13.09c2.81,0,5.14,0.94,8.18,2.81c-0.94-2.34-3.51-3.27-3.51-3.27s5.14-0.23,6.08-0.46
			c2.1,1.4,1.17,6.55,1.17,6.55c0.46,0,1.63-2.57,1.63-3.74c0.46-0.24,3.04-2.57,3.74-4.21c1.17-0.46,2.81-0.7,4.68-1.4
			C142.74,243.53,139,246.8,137.13,248.91L137.13,248.91z"/>
		<path class="st5" d="M94.25,274.05c-1.32,0-2.58-0.18-3.71-0.65c-2.59-0.95-4.83-3.57-4.09-6.31c0.9-2.48,6-3.68,11-3.68
			c0.08,0,0.15,0.01,0.23,0.01c-3.46-1.1-7.55-0.4-11.41,2.02l-0.15,0.1l-0.11-0.15c-1.6-2.28-2.18-5.81-1.43-8.58
			c5.6-10.42,23.47-11.98,33.06-12.81c1.65-0.14,3.06-0.27,4.03-0.41c0.01,0,0.01,0,0.01,0c2.52,0,4.73,0.7,7.74,2.5
			c-1.04-1.82-3.1-2.59-3.12-2.6l0.05-0.37c0.05-0.01,5.14-0.24,6.04-0.46l0.08-0.02l0.07,0.04c1.81,1.2,1.51,4.88,1.33,6.24
			c0.45-0.66,1.18-2.32,1.18-3.27v-0.12l0.11-0.05c0.46-0.23,2.98-2.55,3.65-4.11l0.03-0.07l0.07-0.03
			c0.55-0.22,1.19-0.39,1.92-0.58c0.82-0.21,1.76-0.46,2.75-0.83l0.35-0.13l-0.1,0.36c-0.76,2.86-3.38,5.59-5.29,7.58
			c-0.28,0.3-0.55,0.58-0.8,0.84c1.23-0.47,2.38-1.24,3.43-2.29l0.31-0.31l0.02,0.44c0.18,4.91-3.45,6.65-6.65,8.18
			c-1.19,0.58-2.32,1.11-3.25,1.8c-2.31,1.78-4.53,4.09-6.66,6.32c-5.51,5.74-11.21,11.66-19.66,10.31l0.03-0.38
			c0.3-0.11,2.3-1.68,2.62-2.21c-0.35,0.04-1.34,0.43-2.3,0.81C102.89,272.25,98.32,274.05,94.25,274.05z M97.49,263.8
			c-4.79,0-9.84,1.12-10.67,3.4c-0.68,2.52,1.42,4.95,3.86,5.83c4.5,1.82,11.23-0.82,14.85-2.25c1.86-0.73,2.46-0.96,2.73-0.78
			c0.11,0.05,0.16,0.18,0.12,0.32c-0.11,0.46-1.61,1.71-2.47,2.29c7.99,0.99,13.47-4.73,18.79-10.28c2.15-2.25,4.38-4.56,6.71-6.36
			c0.96-0.7,2.1-1.25,3.32-1.83c3.14-1.51,6.38-3.06,6.43-7.39c-1.21,1.13-2.54,1.9-3.97,2.31l-0.2-0.31
			c0.38-0.42,0.82-0.89,1.31-1.39c1.8-1.88,4.24-4.42,5.09-7.05c-0.88,0.31-1.7,0.52-2.44,0.71c-0.69,0.18-1.29,0.33-1.81,0.53
			c-0.71,1.57-3.03,3.73-3.69,4.17c-0.07,1.14-1.15,3.82-1.82,3.82h-0.23l0.04-0.23c0.01-0.05,0.87-4.92-1.03-6.31
			c-0.86,0.18-3.83,0.34-5.25,0.42c0.86,0.46,2.25,1.42,2.9,3.05l-0.27,0.24c-3.24-2-5.51-2.78-8.08-2.78
			c-0.95,0.14-2.31,0.26-4.03,0.41c-9.52,0.83-27.25,2.38-32.74,12.58c-0.69,2.57-0.17,5.88,1.29,8.07
			c4.32-2.64,8.92-3.21,12.65-1.55l-0.08,0.37C98.36,263.81,97.93,263.8,97.49,263.8z"/>
	</g>
	<g>
		<path class="st0" d="M109.55,248.68c-2.81-0.23-6.78,0-9.35,0.94c5.84-2.81,12.62-2.34,18.71,0.94
			C115.39,250.55,113.52,249.15,109.55,248.68L109.55,248.68z"/>
		<path class="st1" d="M118.89,250.55c-1.92,0-3.37-0.43-4.9-0.88c-1.31-0.39-2.65-0.78-4.44-0.99l0,0
			c-2.65-0.22-6.68-0.03-9.32,0.92c2.64-0.95,6.67-1.14,9.32-0.92l0,0c1.8,0.21,3.14,0.61,4.44,0.99c1.53,0.45,2.99,0.88,4.91,0.88
			c-6.19-3.33-13-3.67-18.71-0.94l0,0c5.7-2.74,12.52-2.39,18.71,0.94C118.9,250.55,118.9,250.55,118.89,250.55z"/>
	</g>
	<path class="st12" d="M172.43,230.68c-2.57-0.7-6.31-1.17-9.59,1.17c-2.57,1.64-4.67,5.61-5.15,7.24c0,0.24-0.23,0-1.17,0
		c-0.46-0.23-2.57-0.23-4.44,0.7c-2.34,1.17-3.04,3.27-3.27,3.51c-0.94-0.46-3.74,0-4.67,0.23c0.94-1.63,1.64-3.97,1.64-3.97
		c11.22-4.67,24.31-13.33,31.33-21.98l-0.7,8.18L172.43,230.68L172.43,230.68z"/>
	<path class="st13" d="M144.15,243.53c0.92-1.62,1.63-3.95,1.64-3.97c12.2-5.09,24.79-13.92,31.33-21.98l-0.7,8.18l-3.97,4.91
		c-3.82-1.04-7.03-0.65-9.59,1.17c-2.5,1.59-4.64,5.51-5.15,7.24h-1.17c-0.44-0.22-2.54-0.25-4.44,0.7
		c-1.87,0.94-2.67,2.44-3.06,3.17c-0.1,0.17-0.16,0.3-0.21,0.34C147.88,242.83,145.03,243.32,144.15,243.53z M177.11,217.58
		c-6.53,8.06-19.12,16.89-31.33,21.98c-0.01,0.03-0.71,2.36-1.64,3.97c0.88-0.22,3.74-0.71,4.68-0.24c0.04-0.04,0.11-0.17,0.21-0.34
		c0.39-0.72,1.19-2.23,3.06-3.17c1.9-0.95,4.01-0.92,4.44-0.7h1.17c0.5-1.75,2.65-5.66,5.15-7.24c2.55-1.82,5.77-2.21,9.59-1.17
		l3.97-4.91L177.11,217.58z"/>
	<path class="st4" d="M202.13,251.02c-0.46,0.46,2.34,0.46,3.97,2.57c1.4,2.34-0.46,5.84-4.21,7.24c-2.34,0.94-5.14,0.7-6.78-0.24
		c-2.1-1.17-3.04-3.04-3.51-3.74c-0.23,2.57,1.17,3.74,2.57,5.14c-5.84,3.51-14.96,3.97-23.61,1.87
		c-9.59-2.57-21.98-13.09-20.34-19.17c0.94-3.04,3.27-4.44,7.48-4.21c-0.23,0.94,0,3.74,0.46,3.97c0.23-1.17,0.46-3.27,0.46-4.44
		c0.46-2.57,3.27-6.08,6.08-7.71c2.57-1.17,5.84-0.46,6.31-0.23c-1.4,3.27-5.84,7.24-6.08,7.48c-0.7,0.46-1.17,0.7-0.7-0.46
		c-0.23-0.46,2.1-3.51,2.1-3.51c0.7-0.94,0.46-1.4-0.94-0.46c-2.1,1.87-4.21,4.91-2.81,7.02c3.04,3.97,8.42-1.4,11.22-3.04
		c2.57-1.63,4.44-2.34,7.02-2.1c0.7,0.7,1.87,1.4,2.81,2.34c-5.15,0.7-9.82,3.74-13.8,7.24c-0.24,0.23-0.24,0.23,0.23,0.23
		c5.61-3.27,10.75-6.31,16.13-5.84c6.54,2.57,11.92,2.1,15.43,2.34c1.17,0.23,2.1,0.7,2.81,1.4c2.34,1.64,2.57,5.14,1.64,6.78
		C205.16,251.48,201.66,250.78,202.13,251.02L202.13,251.02z"/>
	<path class="st5" d="M180.74,265.31c-3.29,0-6.76-0.41-10.22-1.26c-4.64-1.25-10.18-4.43-14.46-8.31c-4.6-4.17-6.8-8.22-6.02-11.09
		c0.99-3.21,3.42-4.6,7.67-4.35l0.23,0.02l-0.05,0.23c-0.2,0.8-0.04,2.6,0.18,3.39c0.19-1.16,0.38-2.87,0.38-3.9
		c0.47-2.6,3.3-6.2,6.17-7.88c2.67-1.21,6.02-0.48,6.5-0.24l0.16,0.08l-0.07,0.16c-0.84,1.96-2.96,4.6-5.99,7.42
		c-0.07,0.06-0.11,0.11-0.13,0.12c-0.51,0.34-0.87,0.55-1.1,0.37c-0.18-0.15-0.16-0.43,0.07-1.02c0.09-0.58,1.65-2.87,2.13-3.57
		c0.32-0.43,0.36-0.64,0.34-0.69c-0.01,0.02-0.25-0.03-1.02,0.49c-2.26,2-4,4.88-2.75,6.75c2.32,3.03,6.19,0.25,9.02-1.78
		c0.71-0.51,1.38-0.99,1.94-1.32c2.41-1.53,4.38-2.37,7.13-2.13l0.07,0.01l0.05,0.05c0.32,0.32,0.74,0.64,1.19,0.98
		c0.52,0.4,1.1,0.85,1.61,1.36l0.27,0.27l-0.39,0.05c-4.33,0.59-8.73,2.87-13.45,6.99c5.1-2.97,9.93-5.79,14.9-5.79
		c0.38,0,0.75,0.02,1.11,0.05l0.05,0.02c5.22,2.04,9.74,2.16,13.05,2.24c0.83,0.02,1.62,0.04,2.32,0.09
		c1.23,0.25,2.2,0.73,2.93,1.46c2.43,1.7,2.62,5.35,1.67,7.01l-0.05,0.1h-0.11c-0.47,0-1.53-0.17-2.47-0.31
		c-0.39-0.06-0.8-0.13-1.1-0.16c0.11,0.04,0.23,0.08,0.34,0.12c0.88,0.31,2.35,0.82,3.38,2.15c0.58,0.96,0.66,2.11,0.25,3.29
		c-0.64,1.83-2.34,3.43-4.54,4.25c-2.21,0.89-5.14,0.79-6.94-0.25c-1.74-0.96-2.7-2.4-3.24-3.28c0.03,1.89,1.06,2.92,2.24,4.08
		l0.48,0.47l-0.21,0.13C190.81,264.25,186.02,265.31,180.74,265.31z M156.83,240.66c-3.51,0-5.56,1.32-6.42,4.1
		c-0.72,2.68,1.48,6.69,5.91,10.71c4.24,3.84,9.72,7,14.3,8.23c8.83,2.15,17.71,1.48,23.25-1.72l-0.12-0.12
		c-1.32-1.29-2.55-2.52-2.32-5l0.35-0.09c0.06,0.1,0.14,0.22,0.22,0.35c0.5,0.82,1.44,2.34,3.22,3.33c1.47,0.84,4.22,1.18,6.62,0.22
		c2.1-0.79,3.71-2.29,4.32-4.03c0.38-1.06,0.3-2.11-0.2-2.95c-0.95-1.22-2.35-1.71-3.19-2c-0.53-0.18-0.81-0.29-0.86-0.51
		c-0.01-0.04-0.01-0.1,0.01-0.15c-0.01-0.04,0-0.08,0.01-0.11c0.06-0.21,0.1-0.2,1.79,0.06c0.81,0.13,1.81,0.29,2.3,0.31
		c0.82-1.59,0.6-4.87-1.63-6.43c-0.69-0.69-1.61-1.15-2.73-1.37c-0.67-0.04-1.45-0.06-2.28-0.08c-3.33-0.08-7.89-0.19-13.16-2.25
		c-5.23-0.46-10.38,2.54-15.8,5.71l-0.23,0.14h-0.05c-0.36,0-0.5,0-0.57-0.15c-0.06-0.15,0.04-0.26,0.2-0.4
		c4.74-4.18,9.16-6.55,13.52-7.24c-0.42-0.39-0.86-0.72-1.3-1.05c-0.44-0.33-0.85-0.65-1.18-0.97c-2.64-0.22-4.5,0.6-6.82,2.08
		c-0.55,0.32-1.22,0.8-1.92,1.31c-2.96,2.12-7,5.03-9.55,1.69c-1.47-2.21,0.61-5.3,2.83-7.27c0.81-0.55,1.31-0.69,1.53-0.44
		c0.2,0.21,0.09,0.61-0.32,1.17c-1,1.45-2.05,3.12-2.07,3.39l-0.02,0.07c-0.13,0.33-0.17,0.5-0.17,0.58
		c0.11-0.04,0.3-0.15,0.59-0.34l0,0c-0.01,0,0.04-0.04,0.11-0.11c2.89-2.69,4.94-5.22,5.81-7.1c-0.8-0.25-3.69-0.74-5.98,0.3
		c-2.77,1.62-5.52,5.09-5.97,7.57c0.01,1.22-0.25,3.33-0.46,4.45l-0.05,0.25l-0.23-0.11c-0.61-0.31-0.75-2.92-0.61-3.96
		C157.25,240.66,157.04,240.66,156.83,240.66z"/>
	<g>
		<path class="st0" d="M178.28,252.89c4.67-5.61,11.22-9.59,18.94-7.95C189.97,245.64,183.89,248.68,178.28,252.89L178.28,252.89z"
			/>
		<path class="st1" d="M178.28,252.89L178.28,252.89c5.46-6.56,12.2-9.38,18.94-7.95C190.68,245.57,184.66,248.09,178.28,252.89
			L178.28,252.89L178.28,252.89L178.28,252.89z M193.78,244.57c-5.56,0-10.96,2.87-15.5,8.31c6.38-4.79,12.4-7.31,18.94-7.95
			C196.07,244.7,194.92,244.57,193.78,244.57z"/>
	</g>
	<path class="st4" d="M170.1,64.93l-1.4,5.14l-4.21-5.38c0,0-5.61,0.94-5.84,0.94c0-0.23,3.27-5.14,3.27-5.14l-3.27-5.61l6.31,1.64
		c0,0.23,3.27-4.21,3.27-4.21c0,0.24,1.17,5.84,0.94,5.84c0,0.23,7.02,2.1,7.02,1.87l-5.14,3.04l33.9,25.01l-0.24,1.64l-1.17,0.46
		L170.1,64.93L170.1,64.93z"/>
	<path class="st5" d="M203.53,90.18L170.1,64.93l-1.4,5.15l-4.21-5.38l-5.84,0.94l3.27-5.14l-3.27-5.61l6.31,1.63l3.27-4.21
		l0.94,5.84l7.02,1.87l-5.14,3.04l33.9,25.01l-0.24,1.64L203.53,90.18z M170.1,64.93l33.43,25.25l1.17-0.46l0.24-1.64l-33.9-25.01
		l5.14-3.04l-7.02-1.87l-0.94-5.84l-3.27,4.21l-6.31-1.63l3.27,5.61l-3.27,5.14l5.84-0.94l4.21,5.38L170.1,64.93z"/>
	<g>
		<path class="st12" d="M213.81,134.36c0.46,1.87,0.7,8.42,0.7,8.42c-0.46,7.95-5.84,24.07-10.99,23.38
			c-3.27-0.24,0-6.78-0.23-11.93c0-3.27-0.23-7.01-0.7-9.59L213.81,134.36L213.81,134.36z"/>
		<path class="st13" d="M203.85,166.17c-0.11,0-0.22-0.01-0.32-0.02c-0.48-0.04-0.83-0.2-1.07-0.52c-0.71-0.93-0.32-3,0.14-5.39
			c0.37-1.91,0.78-4.07,0.69-6.01c0-3.53-0.27-7.21-0.7-9.59l11.22-10.29l0,0c0.46,1.85,0.7,8.35,0.7,8.42
			c-0.38,6.41-4.17,18.95-8.44,22.46C205.31,165.86,204.56,166.17,203.85,166.17z M213.81,134.36l-11.22,10.29
			c0.43,2.38,0.7,6.04,0.7,9.59c0.09,1.94-0.32,4.1-0.69,6.01c-0.46,2.39-0.86,4.46-0.15,5.39c0.24,0.32,0.59,0.48,1.07,0.52
			c0.81,0.11,1.67-0.2,2.54-0.92c4.27-3.51,8.06-16.04,8.44-22.46C214.51,142.71,214.27,136.22,213.81,134.36z"/>
	</g>
	<g>
		<path class="st12" d="M214.51,133.66l1.17-1.17c4.91,11.46-5.15,40.91-14.96,38.11c-6.08-1.87-2.57-13.09-2.57-15.2
			c-0.23,0-0.23-0.24-0.23-0.24s0,0.24-0.23,0.46c-0.94,2.34-1.64,6.31-1.64,8.18c-3.27-0.46-8.65-2.1-11.92,0.46
			c-1.17-0.94,0.94-4.68,0.94-4.68c-2.1,1.17-2.57,2.81-3.04,4.21c-1.17-0.94-1.4-1.17-2.81-1.87c0.23-1.64,0.94-5.84-2.34-9.82
			c6.55-4.21,13.8-9.59,20.11-15.66c0.46,2.1,0.7,5.84,0.7,7.48c0,0.7,0.46-0.23,0.46-0.46c0.23-0.94-1.17-12.62,1.4-17.07
			c1.17-2.34,2.81-4.21,6.31-4.91c-0.94,1.4-0.46,3.74,0.23,5.14c-9.11,4.44-3.51,17.07-3.74,28.99
			c-0.23,4.91-3.04,11.69,0.46,12.39c4.67,0.94,11.22-10.99,12.39-25.01C215.45,138.57,214.75,134.13,214.51,133.66L214.51,133.66z"
			/>
		<path class="st13" d="M202.04,170.78c-0.44,0-0.88-0.06-1.32-0.18c-4.9-1.51-3.58-9.04-2.87-13.08c0.17-0.96,0.3-1.71,0.3-2.11
			l0,0c-0.22,0-0.23-0.21-0.23-0.23c0,0.03-0.02,0.25-0.24,0.46c-0.92,2.31-1.64,6.29-1.64,8.18c-0.55-0.08-1.17-0.19-1.82-0.31
			c-3.29-0.61-7.38-1.35-10.1,0.78c-1.16-0.92,0.91-4.64,0.94-4.68c-2.01,1.11-2.53,2.66-2.98,4.03l-0.06,0.18l-0.32-0.25
			c-0.91-0.73-1.22-0.98-2.49-1.61l0.02-0.13c0.25-1.74,0.83-5.81-2.36-9.69c5.27-3.39,13.04-8.86,20.11-15.66
			c0.45,2.03,0.7,5.71,0.7,7.48c0,0.17,0.03,0.25,0.08,0.25c0.13,0,0.39-0.55,0.39-0.72c0.05-0.22,0.02-1.09-0.04-2.28
			c-0.17-3.7-0.52-11.41,1.44-14.78c1-2,2.53-4.15,6.31-4.91c-0.98,1.47-0.4,3.88,0.23,5.14c-6.42,3.13-5.54,10.24-4.53,18.46
			c0.42,3.45,0.86,7,0.79,10.53c-0.07,1.47-0.38,3.12-0.67,4.71c-0.68,3.69-1.32,7.19,1.13,7.68c0.92,0.18,1.96-0.13,3.03-0.95
			c3.8-2.86,8.38-12.27,9.35-24.07c0.24-4.49-0.48-8.9-0.7-9.35l1.17-1.17c1.72,4.01,1.72,10.5,0.02,17.82
			c-1.64,7.04-4.55,13.44-7.8,17.11C205.95,169.64,203.94,170.78,202.04,170.78z M197.92,155.17c0,0.01,0.01,0.24,0.23,0.24
			c0,0.41-0.13,1.16-0.3,2.11c-0.71,4.04-2.03,11.57,2.87,13.08c2.29,0.66,4.78-0.44,7.18-3.18c3.24-3.68,6.16-10.08,7.8-17.11
			c1.71-7.32,1.7-13.81-0.02-17.82l-1.17,1.17c0.23,0.45,0.94,4.86,0.7,9.35c-0.98,11.8-5.55,21.21-9.35,24.07
			c-1.08,0.81-2.1,1.13-3.03,0.95c-2.46-0.49-1.82-3.98-1.13-7.68c0.3-1.6,0.6-3.24,0.67-4.71c0.07-3.53-0.37-7.09-0.79-10.53
			c-1.01-8.23-1.89-15.33,4.53-18.46c-0.63-1.26-1.22-3.67-0.23-5.14c-3.78,0.76-5.31,2.91-6.31,4.91
			c-1.96,3.38-1.61,11.08-1.44,14.78c0.05,1.19,0.1,2.06,0.04,2.28c0,0.18-0.25,0.73-0.39,0.73c-0.05,0-0.08-0.09-0.08-0.25
			c0-1.76-0.25-5.45-0.7-7.48c-7.07,6.81-14.83,12.27-20.11,15.66c3.19,3.88,2.6,7.95,2.36,9.69l-0.02,0.13
			c1.26,0.63,1.57,0.88,2.49,1.61l0.32,0.25l0.06-0.18c0.45-1.37,0.96-2.91,2.98-4.03c-0.02,0.04-2.09,3.75-0.94,4.68
			c2.72-2.13,6.81-1.39,10.1-0.78c0.66,0.12,1.27,0.23,1.82,0.31c0-1.89,0.71-5.88,1.64-8.18
			C197.91,155.4,197.92,155.17,197.92,155.17z"/>
	</g>
	<g>
		<path class="st12" d="M207.03,127.58c0.7,0.7,0.46,0.46,0.46,0.46l-5.14,5.14C202.35,132.02,204.22,128.51,207.03,127.58
			L207.03,127.58z"/>
		<path class="st13" d="M202.5,133.33l-0.32-0.14c0-1.21,1.91-4.82,4.81-5.79l0.11-0.04l0.59,0.59l-0.14,0.13l0.1,0.1L202.5,133.33z
			 M206.98,127.8c-2.3,0.83-3.91,3.46-4.32,4.82l4.57-4.58L206.98,127.8z"/>
	</g>
	<g>
		<path class="st6" d="M215.68,103.74c0,0-0.24,0-0.94-0.46c0.46-1.17,0.46-0.94,0.46-0.94S215.21,103.04,215.68,103.74
			L215.68,103.74z"/>
		<path class="st7" d="M215.68,103.74L215.68,103.74c-0.01,0-0.25-0.01-0.94-0.46c0.33-0.82,0.43-0.96,0.46-0.96l0,0
			c0.01,0.01,0.01,0.02,0.01,0.02C215.21,102.34,215.22,103.04,215.68,103.74L215.68,103.74z M215.2,102.32
			c-0.03,0-0.13,0.13-0.46,0.96c0.68,0.45,0.92,0.46,0.94,0.46c-0.46-0.69-0.46-1.39-0.46-1.4
			C215.21,102.34,215.21,102.32,215.2,102.32L215.2,102.32z"/>
	</g>
	<g>
		<path class="st6" d="M215.68,96.02c0,0,0.7,3.04,0.46,4.44c0,0.46-0.23,5.14,3.04,5.14c3.97-0.7,3.97-5.84,3.74-8.42
			c-0.24-1.87-0.7-6.78-5.38-6.55C218.26,94.38,215.68,96.02,215.68,96.02L215.68,96.02z"/>
		<path class="st7" d="M219.19,105.61c-0.75,0-1.37-0.25-1.85-0.74c-0.57-0.58-1.23-1.79-1.18-4.32v-0.09
			c0.23-1.39-0.46-4.41-0.46-4.44l0,0c0.03-0.02,2.56-1.68,1.87-5.38c0.11-0.01,0.21-0.01,0.32-0.01c4.25,0,4.8,4.45,5.04,6.38
			l0.02,0.17C223.19,100.04,223.04,104.92,219.19,105.61z M215.68,96.02c0.01,0.05,0.7,3.06,0.46,4.44v0.09
			c-0.04,2.53,0.62,3.75,1.18,4.32c0.48,0.49,1.1,0.74,1.85,0.74c3.86-0.68,4-5.56,3.75-8.42l-0.02-0.17
			c-0.24-1.93-0.79-6.38-5.04-6.38c-0.11,0-0.21,0.01-0.32,0.01C218.25,94.34,215.72,95.99,215.68,96.02z"/>
	</g>
	<path class="st7" d="M209.13,121.51c0,0-0.46-0.46-0.7-0.7C208.67,121.04,209.13,121.51,209.13,121.51L209.13,121.51z"/>
	<path class="st6" d="M209.13,121.74c-0.94-0.7-1.17-1.17-1.17-1.4c-0.7-1.4-9.59-17.29-6.78-26.18c0,0.46,0.46,1.64,0.46,1.64
		s4.21,7.01,2.34,11.22c2.81-1.4,1.63-6.08,1.17-7.02c-1.17-2.81-3.51-6.08-1.17-7.95c1.63-1.17,3.27-0.94,4.91-0.23
		c3.97,1.4,7.71,8.65,3.04,13.56c0.46,0.46,1.87-1.4,1.87-0.94c4.67,1.87,5.61,5.84,6.08,8.18c0.46-0.46-0.46-4.91-0.94-5.61
		c4.21,0,6.08-5.14,5.61-10.52c2.57-1.17,5.61-6.08,8.42-3.97c2.57,2.1,1.87,6.55,0.23,8.18c-1.87,1.87-4.21,3.27-8.18,3.74
		c-0.94,0,5.14,12.62-2.81,17.29c-0.7,0.7-1.87,1.17-2.57,1.4c0.7,0,1.17,0,2.57-0.23c2.1,3.04-3.51,6.55-7.71,5.84
		c-6.08-0.94-8.42-5.15-7.48-6.78c0.23-0.46,0.94-0.7,0.94-0.7C208.67,121.74,209.13,121.74,209.13,121.74L209.13,121.74z"/>
	<path class="st7" d="M215.64,128.84c-0.39,0-0.76-0.03-1.13-0.09c-4.1-0.63-6.46-2.74-7.31-4.5c-0.43-0.89-0.5-1.73-0.18-2.28
		c0.23-0.46,0.92-0.7,0.94-0.7c0.68,0.45,1.14,0.46,1.17,0.46c-0.92-0.69-1.17-1.39-1.17-1.4c-0.04-0.09-0.13-0.25-0.24-0.45
		c-5.91-11.23-8.23-20.37-6.54-25.73c0,0.46,0.46,1.62,0.46,1.64c0.04,0.07,4.18,7.06,2.34,11.22c2.76-1.38,1.69-5.97,1.17-7.02
		c-0.22-0.53-0.5-1.1-0.76-1.65c-1.13-2.35-2.3-4.79-0.41-6.3c1.42-1.01,2.93-1.09,4.91-0.24c2.25,0.79,4.29,3.34,4.97,6.19
		c0.66,2.75-0.03,5.37-1.93,7.37c0.27,0.27,0.87-0.25,1.3-0.63c0.24-0.21,0.43-0.38,0.52-0.38c0.01,0,0.02,0,0.02,0.01
		c0.02,0.01,0.03,0.04,0.03,0.07c4.82,1.93,5.67,6.15,6.08,8.18c0.47-0.46-0.45-4.89-0.94-5.61c1.34,0,2.5-0.52,3.43-1.53
		c1.69-1.84,2.5-5.2,2.18-8.98c0.85-0.39,1.73-1.16,2.66-1.98c1.91-1.68,3.87-3.41,5.75-1.99c1.01,0.83,1.61,2.13,1.69,3.67
		c0.09,1.74-0.5,3.56-1.46,4.52c-2.18,2.18-4.7,3.33-8.18,3.74c-0.03,0-0.05,0.01-0.06,0.03c-0.12,0.15,0.06,0.85,0.32,1.9
		c0.96,3.84,2.96,11.83-3.06,15.37c-0.71,0.71-1.92,1.18-2.57,1.4c0.7,0,1.17,0,2.57-0.23c0.61,0.89,0.61,1.87-0.01,2.84
		C221.08,127.54,218.2,128.84,215.64,128.84z M207.97,121.27c-0.01,0.01-0.7,0.24-0.94,0.7c-0.32,0.55-0.25,1.39,0.18,2.28
		c0.85,1.76,3.22,3.87,7.31,4.5c2.8,0.46,6.4-0.94,7.71-3.01c0.61-0.97,0.62-1.96,0.01-2.84c-1.4,0.23-1.87,0.23-2.57,0.23
		c0.66-0.22,1.85-0.69,2.57-1.4c6.02-3.54,4.03-11.52,3.06-15.37c-0.26-1.05-0.44-1.75-0.32-1.9c0.02-0.02,0.04-0.03,0.06-0.03
		c3.48-0.41,6.01-1.56,8.18-3.74c0.96-0.96,1.54-2.77,1.46-4.52c-0.07-1.53-0.68-2.83-1.69-3.67c-1.89-1.41-3.85,0.32-5.75,1.99
		c-0.94,0.82-1.82,1.6-2.66,1.98c0.33,3.78-0.49,7.14-2.18,8.98c-0.94,1.02-2.09,1.53-3.43,1.53c0.48,0.72,1.41,5.14,0.94,5.61
		c-0.4-2.03-1.25-6.25-6.08-8.18c0-0.04-0.01-0.06-0.03-0.07c-0.01-0.01-0.02-0.01-0.02-0.01c-0.09,0-0.28,0.17-0.52,0.38
		c-0.43,0.39-1.03,0.89-1.3,0.63c1.9-2,2.59-4.61,1.93-7.37c-0.68-2.85-2.73-5.4-4.97-6.19c-1.98-0.85-3.5-0.78-4.91,0.24
		c-1.89,1.52-0.72,3.95,0.41,6.3c0.26,0.54,0.53,1.11,0.76,1.65c0.53,1.05,1.6,5.63-1.17,7.02c1.85-4.16-2.3-11.15-2.34-11.22
		c-0.01-0.01-0.46-1.18-0.46-1.64c-1.69,5.35,0.63,14.49,6.54,25.73c0.11,0.21,0.19,0.36,0.24,0.45c0.01,0.01,0.25,0.71,1.17,1.4
		l0,0C209.13,121.74,208.66,121.73,207.97,121.27z"/>
	<g>
		<path class="st0" d="M210.54,121.97c6.78,1.63,8.18-0.94,10.52-5.61C219.89,125.01,212.64,123.6,210.54,121.97L210.54,121.97z"/>
		<path class="st1" d="M214.63,123.19c-1.71,0-3.3-0.61-4.1-1.22l0,0c6.87,1.65,8.25-1.08,10.52-5.61
			c-0.44,3.28-1.84,5.48-4.04,6.38C216.24,123.06,215.42,123.19,214.63,123.19z M210.54,121.97c1.17,0.9,4.03,1.78,6.47,0.77
			c2.2-0.9,3.6-3.11,4.04-6.38C218.79,120.89,217.42,123.63,210.54,121.97z"/>
	</g>
	<path class="st6" d="M72.38,147.92c-2.81-2.57-5.84-2.1-8.18,1.17c-1.64-1.4-4.44-3.51-4.44-3.51s-3.74-1.87-0.94-5.61
		c1.64-2.1,5.14-1.4,7.02-0.46c2.1,1.17,4.44,3.04,6.08,6.55l3.27,5.38c2.1,3.04,6.78,6.31,10.99,3.27c3.04-2.1,2.57-6.78,8.42-7.48
		c7.24-1.17,9.11,7.24,2.81,9.35c-1.87,0.46-3.27,0.46-3.97,2.57c-0.46,2.57,3.51,9.59-1.17,13.8c-0.24,0.46,3.04-2.1,3.04-3.51
		c1.64,3.51,1.4,7.95-0.94,10.75c-2.1,2.34-4.21,3.04-6.08,3.27c-1.17,0-2.34-0.46-1.17-1.17c3.74-2.57,5.61-9.11,0-13.32
		c-1.17-0.24-1.17,0-0.7,0.46c4.91,3.97,3.51,10.99-2.1,11.92c-7.48,0.46-10.75-1.64-14.96-4.21c-5.15-3.27-10.75-9.11-6.55-14.96
		c2.57-3.51,7.24,0.23,10.29,0.7c1.64,0.46,3.51,2.81,1.64,5.61c-2.1,3.04-7.02,1.87-9.35,0.23c-0.94,0.94,3.04,2.81,4.91,3.04
		c1.87,0.23,5.14-0.94,6.31-3.27c0.94-2.1,0.46-5.38-2.34-6.78c-2.1-0.24-6.31-3.27-10.06-2.57c-2.57,0.94-2.1,1.4-3.27,2.34
		c-0.7-0.46-0.94-3.04-0.23-3.97c2.1-3.27,3.04-5.15,3.74-6.08c1.64-2.57,3.51-4.67,5.84-3.51c3.27,1.4,1.87,8.65,0,9.59
		c0.23,0-1.17,0.94-1.17,0.94c0,0.46,1.87-0.23,1.87-0.23s1.4,1.17,3.04,2.1c0.24-0.46-1.4-1.64-1.87-2.81
		C72.61,157.27,75.18,152.36,72.38,147.92L72.38,147.92z"/>
	<path class="st7" d="M88.27,183.46c-0.72,0-1.54-0.19-1.64-0.55c-0.05-0.19,0.11-0.4,0.47-0.62c2.1-1.44,3.48-4.04,3.53-6.62
		c0.04-1.82-0.54-4.46-3.53-6.71c-0.6-0.12-0.91-0.12-0.98-0.01c-0.04,0.09,0.04,0.24,0.28,0.48c2.43,1.97,3.5,4.87,2.79,7.56
		c-0.61,2.32-2.44,3.96-4.89,4.36c-0.71,0.04-1.39,0.07-2.03,0.07c-5.94,0-8.96-1.84-12.68-4.12l-0.25-0.15
		c-2.09-1.33-7.03-4.9-7.89-9.37c-0.38-1.95,0.08-3.83,1.35-5.6c1.82-2.49,4.74-1.31,7.32-0.27c1.07,0.43,2.08,0.84,2.96,0.98
		c0.8,0.23,1.79,0.97,2.21,2.12c0.29,0.77,0.41,2-0.58,3.49c-0.67,0.96-1.64,1.56-2.91,1.79c-2.31,0.41-4.96-0.52-6.44-1.55
		c-0.14,0.14-0.17,0.3-0.11,0.48c0.34,1,3.47,2.37,5.02,2.55c0.16,0.02,0.32,0.03,0.5,0.03c1.89,0,4.73-1.13,5.81-3.3
		c0.98-2.21,0.36-5.43-2.34-6.78c-0.74-0.08-1.73-0.51-2.87-0.99c-2.11-0.9-4.75-2.03-7.18-1.58c-1.75,0.64-2.1,1.06-2.5,1.55
		c-0.2,0.24-0.4,0.49-0.77,0.79c-0.26-0.17-0.47-0.64-0.58-1.29c-0.15-0.87-0.11-2.09,0.34-2.68c1.1-1.71,1.89-3.05,2.47-4.04
		c0.54-0.92,0.94-1.59,1.27-2.03c1.53-2.41,3.43-4.71,5.84-3.51c1.63,0.7,1.92,2.74,1.96,3.89c0.07,2.44-0.86,5.15-1.96,5.7
		l-1.17,0.94c0,0.04,0.02,0.08,0.06,0.11c0.31,0.21,1.8-0.34,1.82-0.34c0.02,0.02,1.42,1.18,3.04,2.1c0.12-0.24-0.25-0.66-0.71-1.18
		c-0.43-0.49-0.93-1.05-1.16-1.62c0.19-0.1,0.76-1,1.15-2.39c0.42-1.48,0.86-4.39-0.91-7.19c-1.18-1.09-2.45-1.65-3.68-1.65
		c-0.14,0-0.28,0.01-0.42,0.02c-1.47,0.16-2.89,1.12-4.08,2.8c-1.62-1.39-4.41-3.48-4.44-3.51c-0.02-0.01-1.54-0.79-1.9-2.31
		c-0.24-1.01,0.09-2.12,0.97-3.3c1.63-2.1,5.09-1.43,7.02-0.46c2.75,1.53,4.73,3.67,6.08,6.55l3.27,5.38
		c1.25,1.82,3.58,3.92,6.31,4.39c1.67,0.29,3.24-0.09,4.67-1.11c1.11-0.77,1.75-1.87,2.41-3.03c1.13-1.97,2.3-4.01,6-4.45
		c0.47-0.08,0.92-0.11,1.35-0.11c2.94,0,4.69,1.72,5.16,3.63c0.02,0.07,0.04,0.14,0.04,0.21c-0.02-0.07-0.03-0.14-0.04-0.21
		c-0.53-2.19-2.75-4.12-6.5-3.52c-3.7,0.44-4.87,2.48-6,4.45c-0.67,1.16-1.3,2.26-2.41,3.03c-1.43,1.03-3.01,1.4-4.67,1.11
		c-2.74-0.47-5.06-2.58-6.31-4.39l-3.27-5.38c-1.34-2.88-3.33-5.02-6.08-6.55c-1.92-0.96-5.38-1.63-7.02,0.46
		c-0.88,1.18-1.2,2.29-0.96,3.3c0.36,1.52,1.89,2.3,1.9,2.31c0.03,0.02,2.82,2.12,4.44,3.51c1.19-1.68,2.6-2.64,4.08-2.8
		c0.14-0.02,0.28-0.02,0.42-0.02c1.24,0,2.5,0.57,3.68,1.65l0,0c1.76,2.8,1.33,5.71,0.91,7.2c-0.39,1.39-0.96,2.29-1.15,2.39
		c0.23,0.57,0.72,1.13,1.16,1.62c0.46,0.53,0.83,0.95,0.71,1.18c-1.62-0.92-3.03-2.09-3.04-2.1c-0.02,0.01-1.51,0.55-1.82,0.34
		c-0.04-0.03-0.06-0.06-0.06-0.11l1.17-0.94c1.1-0.55,2.03-3.26,1.96-5.7c-0.04-1.15-0.33-3.19-1.96-3.89
		c-2.41-1.2-4.31,1.1-5.84,3.51c-0.33,0.45-0.73,1.11-1.27,2.03c-0.58,0.98-1.37,2.34-2.47,4.04c-0.45,0.6-0.5,1.81-0.34,2.68
		c0.11,0.65,0.32,1.11,0.58,1.29c0.38-0.3,0.58-0.55,0.77-0.79c0.4-0.49,0.75-0.91,2.5-1.55c2.43-0.46,5.07,0.68,7.18,1.58
		c1.15,0.49,2.13,0.91,2.87,0.99c2.71,1.35,3.32,4.57,2.34,6.78c-1.09,2.17-3.93,3.3-5.81,3.3c-0.17,0-0.34-0.02-0.5-0.03
		c-1.55-0.19-4.67-1.55-5.02-2.55c-0.06-0.18-0.03-0.35,0.11-0.49c1.48,1.04,4.13,1.97,6.44,1.55c1.27-0.23,2.25-0.83,2.91-1.79
		c0.99-1.48,0.86-2.72,0.58-3.49c-0.42-1.15-1.42-1.89-2.21-2.12c-0.88-0.14-1.89-0.54-2.96-0.97c-2.58-1.04-5.5-2.22-7.32,0.27
		c-1.27,1.76-1.72,3.65-1.35,5.59c0.86,4.47,5.81,8.04,7.89,9.38l0.25,0.15c3.72,2.27,6.74,4.12,12.68,4.12
		c0.64,0,1.32-0.02,2.03-0.06c2.45-0.41,4.28-2.03,4.89-4.36c0.71-2.69-0.36-5.6-2.79-7.56c-0.24-0.24-0.32-0.39-0.28-0.48
		c0.06-0.12,0.39-0.12,0.98,0.01c3,2.25,3.58,4.89,3.54,6.71c-0.05,2.58-1.44,5.18-3.54,6.62c-0.37,0.22-0.53,0.43-0.47,0.62
		C86.73,183.26,87.55,183.46,88.27,183.46c1.52-0.19,3.8-0.74,6.08-3.27c2.25-2.69,2.63-7.12,0.94-10.75c0,1.25-2.56,3.39-2.99,3.55
		c-0.04,0.01-0.05,0.02-0.06,0.01c-0.01-0.01-0.01-0.03,0.01-0.05c3.27-2.94,2.3-7.29,1.6-10.46c-0.31-1.37-0.57-2.56-0.43-3.33
		c0.61-1.81,1.7-2.06,3.22-2.4c0.24-0.05,0.49-0.11,0.75-0.17c1.24-0.41,2.43-1.24,3.15-2.36c-0.6,0.99-1.62,1.85-3.15,2.36
		c-0.26,0.06-0.51,0.12-0.75,0.17c-1.52,0.34-2.62,0.59-3.22,2.39c-0.14,0.77,0.12,1.96,0.43,3.33c0.7,3.18,1.68,7.52-1.6,10.46
		c-0.02,0.03-0.02,0.04-0.01,0.05c0.01,0.02,0.04,0.01,0.06-0.01c0.42-0.16,2.99-2.3,2.99-3.55c1.7,3.64,1.32,8.05-0.94,10.75
		C92.07,182.72,89.79,183.26,88.27,183.46z"/>
	<g>
		<polygon class="st0" points="178.28,38.51 176.88,42.95 172.9,44.59 176.88,46.93 176.88,52.07 180.38,48.33 185.06,50.44 
			183.66,45.53 185.99,41.79 180.85,42.02 		"/>
		<path class="st1" d="M176.91,52.11l-0.08-0.04v-5.11l-4.03-2.37l4.04-1.66l1.42-4.51l0.05,0.07l2.56,3.49l5.21-0.24l-0.05,0.07
			l-2.32,3.73l1.43,4.99l-4.74-2.13L176.91,52.11z M173.01,44.6l3.92,2.3v5.05l3.45-3.68l0.03,0.02l4.59,2.06l-1.38-4.83l0.01-0.02
			l2.29-3.67l-5.08,0.23l-0.02-0.02l-2.52-3.43l-1.38,4.38L176.89,43L173.01,44.6z"/>
	</g>
	<g>
		<polygon class="st4" points="178.74,40.85 177.81,43.89 175.24,44.82 178.28,46.46 178.04,49.73 180.15,46.93 183.66,48.8 
			182.48,45.53 184.12,42.95 180.61,43.42 		"/>
		<path class="st5" d="M178.08,49.77L178,49.73l0.23-3.24l-3.1-1.68l0.1-0.04l2.55-0.92l0.96-3.1l0.05,0.07l1.85,2.55l3.58-0.48
			l-1.68,2.64l1.16,3.25l-0.06,0.06l-3.47-1.85L178.08,49.77z M175.35,44.84l2.97,1.61l-0.01,0.03l-0.22,3.11l2.03-2.71l0.04,0.02
			l3.4,1.82l-1.14-3.18l0.02-0.02l1.58-2.49l-3.43,0.46l-0.02-0.03l-1.82-2.49l-0.91,2.97l-0.03,0.01L175.35,44.84z"/>
	</g>
	<g>
		<polygon class="st0" points="127.08,41.55 127.31,47.17 123.57,51.13 128.72,51.84 130.12,56.28 133.63,51.6 139.24,50.91 
			135.5,47.17 136.9,41.55 131.75,44.13 		"/>
		<path class="st1" d="M130.1,56.39l-1.42-4.5l-5.2-0.71l0.06-0.06l3.73-3.96l-0.24-5.67l0.07,0.04l4.66,2.56l5.22-2.6l-1.42,5.68
			l3.79,3.79l-0.1,0.02l-5.59,0.7L130.1,56.39z M123.67,51.1l5.08,0.69l1.38,4.39l3.46-4.62h0.02l5.52-0.69l-3.69-3.69l1.38-5.53
			l-5.07,2.53l-0.02-0.01l-4.6-2.53l0.23,5.55l-0.02,0.02L123.67,51.1z"/>
	</g>
	<path class="st4" d="M128.72,43.89v3.74c-0.23,0.23-2.81,2.81-2.81,2.81h3.97l0.7,3.27l2.1-3.51l4.21-0.23l-2.81-2.34l0.94-3.97
		l-3.51,1.87L128.72,43.89L128.72,43.89z"/>
	<path class="st5" d="M130.63,53.73l-0.09-0.02l-0.69-3.24h-3.94l-0.04-0.08l2.8-2.79v-3.8l0.07,0.04l2.78,1.62l3.58-1.91
		l-0.03,0.11l-0.93,3.95l2.78,2.32l-0.03,0.08l-4.18,0.23L130.63,53.73z M126.03,50.39h3.89l0.01,0.04l0.68,3.15l2.06-3.42h0.03
		l4.1-0.23l-2.74-2.28l0.01-0.03l0.91-3.87l-3.44,1.83l-0.02-0.02l-2.74-1.6v3.68l-0.02,0.02L126.03,50.39z"/>
	<path class="st8" d="M141.11,97.66c-13.09,1.4-26.88,8.88-33.43,21.74c0,0-1.64-3.74-2.34-7.24c0,0,3.97,1.87,4.21,1.87
		c0,0-0.23-5.61,0-5.84c-0.23,0.24,5.14-2.57,5.14-2.57l-5.14-4.21l-1.87-6.31c0,0.23-4.44,4.44-4.44,4.44l-3.04-1.4
		c-2.81-7.48-3.74-18.94-3.51-21.74l2.34,2.81l2.1-5.14l5.38-0.94c0,0-3.51-5.14-3.51-4.91c0,0,0-5.84,0.23-5.84l-4.67,1.4
		l-2.34-0.94c-0.23-4.91-0.94-15.66,2.81-16.6c1.64-0.24,3.04-0.24,4.91,1.87c-0.24,0-4.68,0.46-4.68,0.46
		c0.24,0,4.44,5.15,4.44,4.91l-0.46,5.84l5.61-2.34c1.17,3.04,2.57,8.18,6.55,15.66c2.81,5.38,13.8,14.73,13.8,14.73L141.11,97.66
		L141.11,97.66z"/>
	<path class="st9" d="M107.68,119.4c-0.02-0.04-1.64-3.78-2.34-7.24l4.21,1.87v-5.84l5.15-2.57l-5.15-4.21l-1.87-6.31l-4.44,4.44
		l-3.04-1.4c-2.86-7.62-3.73-19.14-3.5-21.74l2.34,2.81l2.1-5.14l5.38-0.94l-3.5-4.91c0-0.06,0-5.71,0.23-5.84l-4.67,1.4l-2.34-0.94
		l-0.04-0.68c-0.25-5.25-0.74-15.02,2.84-15.92c1.63-0.24,3.03-0.25,4.91,1.87l-4.68,0.46l4.44,4.91l-0.46,5.84l5.61-2.34
		c0.26,0.67,0.53,1.44,0.83,2.32c1.1,3.17,2.62,7.51,5.71,13.34c2.77,5.32,13.69,14.64,13.8,14.73l11.93,10.29l0,0
		c-6.76,0.72-13.39,3-19.17,6.57C115.69,108.1,110.77,113.34,107.68,119.4z M105.34,112.15c0.69,3.47,2.32,7.21,2.34,7.24
		c3.09-6.06,8.02-11.31,14.26-15.16c5.78-3.58,12.41-5.85,19.16-6.57l-11.92-10.29c-0.11-0.1-11.02-9.41-13.8-14.73
		c-3.1-5.83-4.61-10.17-5.71-13.34c-0.31-0.89-0.58-1.65-0.83-2.32l-5.61,2.34l0.46-5.84l-4.44-4.91l4.68-0.46
		c-1.88-2.11-3.28-2.1-4.91-1.87c-3.58,0.89-3.1,10.66-2.84,15.92l0.04,0.68l2.34,0.94l4.67-1.4c0,0,0.01,0,0.01,0h-0.01
		C103,62.5,103,68.15,103,68.21l3.5,4.91l-5.38,0.94l-2.1,5.14l-2.34-2.81c-0.22,2.6,0.65,14.12,3.5,21.74l3.04,1.4l4.44-4.44
		l1.87,6.31l5.15,4.21l-5.15,2.57v5.84L105.34,112.15z M103.24,62.36c-0.01,0-0.01,0-0.01,0H103.24z"/>
	<g>
		<path class="st0" d="M128.25,88.54c-1.64,3.27-5.14,4.91-10.06,3.04c-6.08-2.34-3.97-12.62-3.97-12.62
			c-7.95,5.14-6.78,17.29,1.64,19.87C125.68,101.87,129.19,92.75,128.25,88.54L128.25,88.54z"/>
		<path class="st1" d="M119.57,99.43c-1.09,0-2.32-0.18-3.71-0.61c-3.74-1.14-6.31-4.27-6.89-8.38c-0.64-4.58,1.37-8.99,5.25-11.5
			c-0.02,0.11-2.03,10.31,3.97,12.62c4.49,1.71,8.24,0.57,10.05-3.04l0,0c0.54,2.44-0.43,6.38-3,8.75
			C124.08,98.37,122.25,99.43,119.57,99.43z M114.22,78.95c-3.88,2.51-5.89,6.92-5.25,11.5c0.58,4.1,3.15,7.23,6.89,8.38
			c4.77,1.47,7.74-0.02,9.39-1.53c2.57-2.37,3.54-6.31,3-8.74c-1.81,3.61-5.56,4.75-10.05,3.04
			C112.19,89.27,114.2,79.06,114.22,78.95z"/>
	</g>
	<g>
		<path class="st6" d="M114.69,96.72c-6.55-3.27-4.44-12.62-2.1-14.49c-0.46,1.63,0.46,8.65,4.21,10.29
			c3.74,1.64,7.71,1.4,10.05-0.46C126.84,94.85,122.17,100.7,114.69,96.72L114.69,96.72z"/>
		<path class="st7" d="M119.57,98.07c-1.39,0-3.02-0.36-4.88-1.35c-3.17-1.58-4.1-4.44-4.32-6.57c-0.35-3.34,0.89-6.86,2.22-7.93
			c-0.5,1.75,0.57,8.69,4.21,10.29c3.71,1.62,7.67,1.44,10.05-0.46c0,1.41-1.18,3.63-3.39,4.95
			C122.51,97.57,121.2,98.07,119.57,98.07z M112.59,82.22c-1.33,1.07-2.57,4.59-2.22,7.93c0.23,2.12,1.16,4.98,4.32,6.57l0,0
			c4.05,2.15,7.01,1.34,8.77,0.27c2.2-1.32,3.39-3.53,3.39-4.95c-2.39,1.91-6.33,2.1-10.05,0.46
			C113.15,90.92,112.09,83.99,112.59,82.22z"/>
	</g>
	<g>
		<path class="st0" d="M180.61,179.24c-0.24,1.4-5.14,7.48-8.42,7.24c-3.74-0.46-4.91-13.8,0.46-14.26
			c4.91-0.46,6.08,1.64,6.08,1.64C179.68,175.27,180.38,176.91,180.61,179.24L180.61,179.24z"/>
		<path class="st1" d="M172.39,186.5c-0.06,0-0.13,0-0.19-0.01c-2.06-0.25-3.25-4.25-3.19-7.81c0.05-2.96,1.04-6.22,3.66-6.45
			c0.49-0.04,0.94-0.07,1.35-0.07c3.74,0,4.72,1.69,4.73,1.71c1.08,1.62,1.66,3.28,1.87,5.38l0,0c-0.01,0.04-0.02,0.07-0.03,0.11
			c0.01-0.04,0.02-0.07,0.03-0.11c-0.21-2.09-0.79-3.75-1.87-5.38c-0.02-0.02-1.23-2.1-6.08-1.64c-2.6,0.23-3.6,3.48-3.66,6.45
			c-0.06,3.56,1.13,7.55,3.19,7.81C172.26,186.5,172.32,186.5,172.39,186.5c0.79,0,1.68-0.35,2.58-0.9
			C174.13,186.12,173.23,186.5,172.39,186.5z"/>
	</g>
	<g>
		<path class="st4" d="M180.61,179.24c-0.24,1.4-5.14,7.48-8.42,7.24c-3.74-0.46-4.91-13.8,0.46-14.26
			c4.91-0.46,6.08,1.64,6.08,1.64C179.68,175.27,180.38,176.91,180.61,179.24L180.61,179.24z"/>
		<path class="st5" d="M172.39,186.5c-0.06,0-0.13,0-0.19-0.01c-2.06-0.25-3.25-4.25-3.19-7.81c0.05-2.96,1.04-6.22,3.66-6.45
			c0.49-0.04,0.94-0.07,1.35-0.07c3.74,0,4.72,1.69,4.73,1.71c1.08,1.62,1.66,3.28,1.87,5.38l0,0c-0.01,0.04-0.02,0.07-0.03,0.11
			c0.01-0.04,0.02-0.07,0.03-0.11c-0.21-2.09-0.79-3.75-1.87-5.38c-0.02-0.02-1.23-2.1-6.08-1.64c-2.6,0.23-3.6,3.48-3.66,6.45
			c-0.06,3.56,1.13,7.55,3.19,7.81C172.26,186.5,172.32,186.5,172.39,186.5c0.79,0,1.68-0.35,2.58-0.9
			C174.13,186.12,173.23,186.5,172.39,186.5z"/>
	</g>
	<g>
		<path class="st0" d="M179.68,178.55c-1.17-2.81-5.84-3.74-7.24-2.34c-1.64,1.87-1.17,6.31,0.7,6.78c0.24,0,0.46,0,0.46-0.23
			c-0.7-0.7-0.7-0.94-0.94-1.64c1.4,0.94,4.67-0.23,6.31-2.34c0.23-0.24,0.94,0.46,0.94,0.46L179.68,178.55L179.68,178.55z"/>
		<path class="st1" d="M173.13,182.98c-0.62-0.15-1.14-0.77-1.44-1.73c-0.48-1.53-0.33-3.83,0.74-5.05c0.6-0.6,1.83-0.81,3.23-0.53
			c1.49,0.3,3.33,1.2,4.02,2.86l0.23,0.7c-0.01-0.01-0.52-0.52-0.81-0.52l0,0c-0.05,0-0.1,0.02-0.13,0.05
			c-1.22,1.57-3.45,2.66-5.06,2.66c-0.49,0-0.92-0.1-1.25-0.32c0.04,0.1,0.06,0.18,0.08,0.26c0.16,0.51,0.25,0.77,0.85,1.38
			C173.6,182.98,173.36,182.98,173.13,182.98z M174.47,175.56c-0.89,0-1.62,0.23-2.04,0.64c-1.07,1.23-1.22,3.53-0.73,5.05
			c0.3,0.96,0.81,1.57,1.44,1.73c0.23,0,0.46,0,0.46-0.23c-0.61-0.61-0.69-0.86-0.85-1.38c-0.03-0.08-0.05-0.16-0.08-0.26
			c1.4,0.93,4.71-0.29,6.31-2.34c0.04-0.04,0.07-0.05,0.13-0.05l0,0c0.29,0,0.8,0.51,0.81,0.52l-0.23-0.7
			c-0.69-1.66-2.53-2.56-4.03-2.86C175.25,175.6,174.85,175.56,174.47,175.56z"/>
	</g>
	<g>
		<path class="st4" d="M172.67,177.61c1.4-0.46,3.74-0.94,3.97-0.7C175.47,176.21,173.37,175.97,172.67,177.61L172.67,177.61z"/>
		<path class="st5" d="M172.67,177.61L172.67,177.61c0.24-0.55,0.65-0.93,1.22-1.11c0.9-0.3,2-0.03,2.71,0.39
			c0.02,0.01,0.04,0.02,0.05,0.03c-0.02-0.01-0.04-0.02-0.05-0.03c-0.05-0.02-0.15-0.04-0.26-0.04
			C175.6,176.85,173.85,177.22,172.67,177.61L172.67,177.61z M174.71,176.37c-0.29,0-0.57,0.04-0.83,0.12
			c-0.57,0.18-0.98,0.55-1.22,1.11c1.18-0.39,2.93-0.76,3.66-0.76c0.12,0,0.21,0.02,0.26,0.03
			C176.09,176.59,175.39,176.37,174.71,176.37z M176.59,176.88c0.02,0.01,0.04,0.02,0.05,0.03
			C176.63,176.9,176.61,176.89,176.59,176.88z"/>
	</g>
	<path class="st12" d="M172.43,179.71c0,0,0-0.46,0.23-0.46c1.17-0.46,2.1-0.94,5.38-1.17c0.23,0,0.46,0.23,0.46,0.23
		C175.94,180.18,174.31,180.65,172.43,179.71L172.43,179.71z"/>
	<path class="st13" d="M174.27,180.18c-0.62,0-1.22-0.16-1.83-0.47l0.23-0.46c0.09-0.04,0.18-0.07,0.26-0.11
		c1.07-0.43,2.09-0.85,5.11-1.06c0.23,0,0.46,0.23,0.46,0.24C176.75,179.59,175.46,180.18,174.27,180.18z M172.43,179.71
		c1.82,0.9,3.4,0.53,6.08-1.4c-0.01-0.01-0.24-0.24-0.46-0.24c-3.02,0.22-4.04,0.62-5.11,1.06c-0.09,0.04-0.18,0.07-0.26,0.11
		L172.43,179.71z"/>
</g>
</svg>
